<svg id="svg" version="1.1" xmlns="http://www.w3.org/2000/svg" xmlns:xlink="http://www.w3.org/1999/xlink" width="400" height="373.2558139534884" viewBox="0, 0, 400,373.2558139534884"><g id="svgg"><path id="path0" d="M196.078 39.261 C 195.565 39.465,194.404 40.421,193.499 41.385 C 192.594 42.349,190.493 44.573,188.830 46.329 C 185.990 49.328,182.770 53.395,178.791 59.010 C 175.573 63.553,175.673 63.492,171.448 63.492 C 168.197 63.492,152.383 65.456,151.566 65.962 C 151.403 66.063,150.314 66.394,149.147 66.698 C 138.466 69.480,132.867 81.434,131.841 103.641 C 131.076 120.186,129.781 130.919,127.155 142.484 C 120.134 173.398,120.301 185.943,127.878 197.012 C 128.721 198.245,129.510 199.337,129.630 199.440 C 129.751 199.542,130.003 199.901,130.191 200.236 C 132.003 203.469,137.830 208.667,141.067 209.940 C 152.953 214.614,163.460 216.147,191.970 217.367 C 209.906 218.135,218.202 217.769,234.360 215.496 C 248.553 213.501,254.529 209.963,255.804 202.801 C 256.042 201.466,256.396 199.617,256.590 198.693 C 256.785 197.768,257.206 195.668,257.527 194.024 C 258.468 189.201,259.664 184.341,260.003 183.959 C 260.176 183.764,260.317 183.165,260.317 182.627 C 260.317 177.250,268.733 160.704,273.759 156.200 L 275.639 154.515 274.111 153.206 C 272.521 151.845,270.775 149.400,270.775 148.533 C 270.775 148.257,270.234 147.036,269.572 145.818 C 268.105 143.118,267.799 137.685,269.009 135.838 C 269.889 134.496,269.820 133.501,268.750 132.095 C 266.057 128.554,265.633 124.286,267.683 121.351 C 268.316 120.443,269.035 118.777,269.281 117.647 C 270.462 112.222,274.249 107.229,278.266 105.802 C 280.301 105.080,280.340 104.973,279.592 102.205 C 279.305 101.146,278.791 98.936,278.449 97.292 C 278.106 95.649,277.519 93.212,277.142 91.877 C 276.766 90.542,276.010 87.768,275.461 85.714 C 272.295 73.865,268.495 70.185,256.956 67.791 C 252.211 66.807,249.942 66.506,239.963 65.539 C 236.881 65.240,233.016 64.835,231.373 64.638 C 226.181 64.015,224.223 64.102,224.965 64.922 C 228.072 68.354,222.976 70.816,211.951 71.209 C 205.303 71.447,204.467 71.251,208.513 70.404 C 213.677 69.324,217.878 65.422,216.321 63.154 C 216.096 62.826,215.189 61.402,214.305 59.988 C 210.420 53.771,207.673 49.889,204.323 45.881 C 201.363 42.338,197.847 38.823,197.308 38.866 C 197.145 38.879,196.592 39.057,196.078 39.261 M150.139 111.858 C 153.515 113.603,155.252 120.117,153.632 124.957 C 150.578 134.080,141.550 130.991,141.550 120.822 C 141.550 114.009,145.775 109.601,150.139 111.858 M215.555 112.458 C 219.605 115.342,219.996 124.900,216.222 128.760 C 210.663 134.447,203.671 125.080,206.945 116.331 C 208.632 111.822,212.328 110.160,215.555 112.458 M274.214 113.750 C 273.222 114.445,272.146 116.451,271.522 118.766 C 271.274 119.688,270.730 120.920,270.313 121.506 C 267.897 124.898,270.575 131.594,275.780 135.175 C 281.031 138.788,290.107 139.625,293.125 136.774 C 301.514 128.850,294.033 114.551,283.902 119.148 C 282.074 119.978,281.606 119.864,281.606 118.590 C 281.606 114.572,277.179 111.674,274.214 113.750 M275.253 117.639 C 276.069 119.165,274.350 122.639,272.882 122.430 C 271.596 122.246,271.578 119.881,272.851 118.212 C 273.983 116.728,274.676 116.563,275.253 117.639 M281.616 123.144 C 286.019 126.206,284.528 132.210,279.365 132.210 C 275.667 132.210,272.197 127.295,273.792 124.315 C 274.715 122.591,279.739 121.839,281.616 123.144 M292.050 126.213 C 293.555 129.023,290.556 133.267,288.511 131.222 C 287.810 130.520,288.025 128.193,288.851 127.544 C 289.113 127.339,289.529 126.793,289.775 126.331 C 290.324 125.299,291.528 125.237,292.050 126.213 M92.473 127.845 C 92.125 128.100,90.617 130.573,89.122 133.342 L 86.404 138.375 80.877 138.375 L 75.349 138.375 73.787 142.670 C 70.741 151.047,71.404 150.514,63.956 150.576 L 57.975 150.626 55.449 152.766 C 52.314 155.421,49.115 157.389,48.388 157.109 C 47.799 156.884,44.457 152.253,43.008 149.656 C 42.526 148.792,42.015 147.961,41.871 147.807 C 41.727 147.654,40.034 148.224,38.109 149.073 C 35.705 150.134,34.441 150.511,34.071 150.278 C 32.678 149.400,29.897 142.828,29.311 139.029 C 29.112 137.737,28.375 136.693,28.388 137.722 C 28.515 147.354,30.763 160.500,33.402 167.046 C 40.022 183.467,55.739 200.688,71.335 208.609 C 79.818 212.918,89.832 216.315,97.670 217.544 C 106.161 218.875,107.736 219.004,115.780 219.020 C 126.566 219.041,131.195 218.590,143.137 216.354 C 144.217 216.152,144.569 215.500,143.599 215.500 C 143.288 215.500,142.742 215.349,142.385 215.164 C 142.029 214.980,141.053 214.548,140.217 214.205 C 131.444 210.598,122.368 199.289,119.951 188.953 C 117.826 179.868,118.619 157.670,121.218 153.465 C 121.473 153.053,120.365 152.530,118.581 152.220 C 105.157 149.889,96.661 142.126,94.136 129.885 C 93.641 127.487,93.388 127.176,92.473 127.845 M301.744 135.107 C 301.452 135.672,301.004 136.357,300.747 136.628 C 300.137 137.273,300.160 138.136,300.819 139.400 C 301.114 139.964,301.473 141.225,301.619 142.202 C 301.779 143.275,302.158 144.171,302.576 144.466 C 304.853 146.071,299.838 153.798,295.264 155.731 C 294.120 156.215,293.184 156.793,293.184 157.017 C 293.184 159.525,287.403 160.273,286.494 157.882 C 285.920 156.372,283.659 156.425,282.166 157.983 C 280.507 159.715,276.004 159.275,276.004 157.380 C 276.004 156.284,275.330 156.987,273.086 160.422 C 268.010 168.192,264.365 177.045,262.788 185.434 C 261.529 192.135,259.952 201.770,259.396 206.162 C 259.071 208.730,258.556 212.764,258.251 215.126 C 257.528 220.727,257.105 227.684,256.226 248.366 C 255.243 271.531,254.805 276.274,253.043 282.820 C 252.669 284.209,253.200 284.165,256.902 282.496 L 259.899 281.146 261.509 282.442 C 262.394 283.155,264.278 284.409,265.696 285.230 L 268.273 286.721 270.946 284.817 C 274.474 282.304,279.600 279.824,280.261 280.310 C 280.533 280.509,281.912 281.542,283.328 282.605 C 284.743 283.668,286.917 285.082,288.159 285.748 L 290.417 286.958 293.388 284.894 C 295.022 283.759,297.733 282.102,299.413 281.213 L 302.467 279.595 306.251 283.227 L 310.034 286.858 312.250 284.853 C 315.955 281.500,316.485 281.319,319.758 282.289 C 323.609 283.430,323.944 283.395,323.559 281.886 C 323.389 281.218,323.308 270.588,323.380 258.263 C 323.523 233.634,322.874 212.533,321.571 199.440 C 321.377 197.488,321.043 194.043,320.828 191.783 C 320.613 189.524,320.167 186.078,319.836 184.127 C 319.092 179.733,319.011 177.704,319.572 177.513 C 320.059 177.347,321.246 180.861,322.688 186.741 C 323.979 192.003,325.677 205.076,325.677 209.752 C 325.677 210.851,325.840 212.888,326.040 214.279 C 326.647 218.501,327.571 234.334,327.612 241.198 C 327.633 244.754,327.780 247.527,327.939 247.361 C 328.099 247.195,328.663 246.235,329.194 245.229 L 330.159 243.399 330.159 211.544 C 330.159 192.481,330.020 179.604,329.814 179.476 C 329.624 179.359,329.351 178.724,329.206 178.066 C 329.062 177.407,328.796 176.611,328.617 176.296 C 327.883 175.009,326.050 170.576,326.050 170.087 C 326.050 169.798,325.882 169.561,325.677 169.561 C 325.472 169.561,325.303 169.372,325.303 169.141 C 325.303 168.385,319.697 157.618,317.159 153.501 C 312.324 145.657,303.610 134.080,302.541 134.080 C 302.394 134.080,302.035 134.542,301.744 135.107 M271.997 136.585 C 270.486 138.891,270.874 144.521,272.686 146.585 C 274.048 148.136,274.616 148.265,274.286 146.950 L 274.047 146.000 275.133 147.043 C 275.731 147.617,276.549 148.286,276.952 148.531 C 277.605 148.927,277.532 148.978,276.284 148.998 C 274.151 149.031,275.414 151.125,278.517 152.699 C 282.782 154.862,292.630 154.799,290.641 152.622 C 289.469 151.338,288.679 149.493,288.441 147.485 L 288.220 145.618 287.652 146.791 C 287.339 147.436,286.728 148.197,286.293 148.482 C 285.556 148.964,278.955 149.733,279.365 149.288 C 279.831 148.783,283.496 147.633,283.681 147.934 C 284.512 149.278,287.993 145.290,288.241 142.709 C 288.431 140.725,288.089 140.446,285.453 140.435 C 283.582 140.427,278.525 138.683,275.652 137.055 C 272.546 135.295,272.819 135.330,271.997 136.585 M253.089 213.940 C 251.894 215.269,246.472 217.263,241.759 218.106 C 239.333 218.540,236.508 219.054,235.481 219.249 C 234.454 219.444,231.681 219.790,229.318 220.017 C 226.956 220.245,224.903 220.505,224.755 220.594 C 223.430 221.401,189.951 222.071,181.225 221.465 C 177.472 221.205,174.306 221.088,174.189 221.205 C 174.072 221.321,175.954 224.077,178.372 227.329 C 182.982 233.529,186.122 238.445,187.276 241.270 C 187.654 242.194,188.173 243.455,188.429 244.071 C 190.993 250.245,190.157 255.249,185.518 261.505 C 180.483 268.295,179.458 271.377,179.458 279.739 C 179.458 285.264,179.542 286.081,180.265 287.645 C 181.550 290.426,184.100 293.939,185.112 294.324 C 186.511 294.856,197.825 294.750,209.061 294.100 C 222.888 293.300,223.928 293.169,223.802 292.243 C 223.211 287.922,223.649 285.019,225.367 281.868 C 226.308 280.142,227.077 278.620,227.077 278.487 C 227.077 278.354,225.227 278.245,222.965 278.245 C 216.565 278.245,208.418 275.806,204.977 272.861 C 203.794 271.848,204.392 271.780,207.110 272.620 C 211.204 273.884,214.947 274.182,229.405 274.395 L 243.123 274.596 243.505 273.590 C 244.516 270.932,250.132 264.573,250.842 265.283 C 250.961 265.402,250.030 267.569,248.775 270.098 C 244.504 278.701,243.793 284.858,246.407 290.608 C 247.812 293.698,247.986 293.815,251.634 294.133 L 254.715 294.401 254.715 291.013 C 254.715 287.045,254.778 287.116,251.904 287.792 C 247.459 288.838,247.518 288.926,249.299 283.912 C 251.394 278.012,252.015 272.508,252.280 257.516 C 252.583 240.385,252.859 232.445,253.457 223.697 C 253.773 219.064,253.976 214.801,253.907 214.222 L 253.782 213.170 253.089 213.940 M354.028 255.041 C 352.183 256.535,353.368 259.944,355.733 259.944 C 357.161 259.944,358.543 258.566,358.543 257.143 C 358.543 254.832,355.840 253.573,354.028 255.041 M309.692 287.656 C 309.445 287.903,309.244 288.423,309.244 288.812 C 309.244 289.205,308.912 289.606,308.497 289.714 C 306.628 290.203,309.326 293.016,311.349 292.688 C 314.215 292.223,316.174 287.955,313.521 287.955 C 313.041 287.955,312.545 287.787,312.418 287.582 C 312.097 287.062,310.235 287.113,309.692 287.656 M305.135 294.678 C 303.443 296.370,304.717 299.533,307.090 299.533 C 308.407 299.533,309.991 298.040,309.991 296.799 C 309.991 294.368,306.827 292.986,305.135 294.678 M391.901 296.540 C 389.197 297.656,390.204 301.774,393.181 301.774 C 394.512 301.774,395.892 300.343,395.892 298.964 C 395.892 297.157,393.673 295.809,391.901 296.540 " stroke="none" fill="#eae4e5" fill-rule="evenodd"></path><path id="path1" d="M0.000 186.741 L 0.000 373.483 200.000 373.483 L 400.000 373.483 400.000 186.741 L 400.000 0.000 200.000 0.000 L 0.000 0.000 0.000 186.741 M199.699 37.794 C 203.082 39.743,206.454 42.860,210.732 47.993 C 211.802 49.275,216.882 56.866,217.779 58.521 L 218.377 59.626 226.199 60.079 C 244.360 61.132,261.660 64.016,267.054 66.891 C 273.465 70.308,278.356 80.077,282.742 98.226 C 284.432 105.216,284.244 104.855,286.349 105.138 C 287.335 105.271,288.982 105.617,290.009 105.908 L 291.877 106.436 293.184 104.992 C 299.580 97.924,313.352 101.089,313.352 109.627 C 313.352 114.506,307.652 114.624,303.105 109.838 C 302.189 108.874,301.726 108.684,300.304 108.689 C 296.735 108.699,296.168 109.319,298.064 111.135 C 301.493 114.417,303.323 119.156,303.421 125.005 C 303.479 128.470,303.568 128.909,304.403 129.863 C 308.855 134.943,310.217 136.568,312.479 139.496 C 318.820 147.705,326.326 160.667,329.792 169.391 C 331.084 172.643,331.475 178.823,330.362 178.396 C 329.919 178.226,329.885 178.365,330.181 179.144 C 330.701 180.512,330.673 243.296,330.152 244.270 C 329.836 244.862,329.878 245.005,330.371 245.005 C 331.917 245.005,330.938 250.855,328.804 254.366 L 326.889 257.516 326.654 263.679 C 326.525 267.068,326.315 270.723,326.188 271.801 L 325.956 273.761 327.265 274.308 C 327.985 274.609,329.091 275.290,329.722 275.821 L 330.870 276.787 330.881 290.000 L 330.893 303.212 329.734 304.187 C 327.492 306.074,327.124 306.178,317.647 307.605 C 314.442 308.088,310.440 308.214,301.587 308.114 C 300.560 308.102,296.125 308.201,291.732 308.333 C 285.965 308.507,283.110 308.444,281.462 308.107 C 280.206 307.851,276.741 307.602,273.763 307.555 C 267.958 307.464,264.945 306.903,261.852 305.337 C 260.455 304.629,259.112 304.388,254.715 304.057 C 243.815 303.237,241.075 301.249,243.906 296.213 L 244.776 294.665 243.384 291.923 C 241.716 288.638,241.118 285.448,241.431 281.513 L 241.661 278.618 238.135 278.618 C 236.195 278.618,234.349 278.519,234.032 278.397 C 233.209 278.081,229.447 281.750,228.327 283.960 C 226.663 287.245,226.478 289.309,227.610 291.997 C 230.010 297.700,228.685 302.050,224.188 303.233 C 217.182 305.076,186.680 305.031,182.231 303.171 C 179.743 302.131,179.006 299.736,180.369 297.120 L 181.140 295.640 179.832 293.671 C 179.113 292.588,178.525 291.627,178.525 291.535 C 178.525 291.444,178.030 290.299,177.425 288.993 C 173.753 281.059,175.392 269.790,181.451 261.318 C 189.265 250.392,186.396 240.934,170.258 224.413 L 166.013 220.068 163.739 219.850 C 162.489 219.730,159.576 219.182,157.267 218.632 L 153.068 217.632 150.204 218.610 C 133.646 224.262,106.525 225.034,90.570 220.306 C 70.622 214.396,56.278 205.582,45.217 192.440 C 32.782 177.664,29.359 170.510,26.500 153.315 C 25.189 145.429,25.828 132.448,27.652 129.903 C 28.449 128.791,28.931 126.886,29.330 123.265 C 30.368 113.857,41.288 97.316,50.472 91.238 C 51.251 90.722,52.392 89.520,53.005 88.567 C 56.100 83.762,61.273 80.220,66.904 79.050 C 81.722 75.971,94.369 93.084,85.077 103.640 C 83.273 105.690,83.313 105.695,86.507 103.828 C 90.529 101.478,93.908 102.160,97.869 106.122 C 103.000 111.253,103.126 117.562,98.215 123.467 C 95.908 126.241,95.833 127.385,97.655 132.025 C 100.417 139.061,105.066 144.080,110.643 146.048 C 115.268 147.680,122.218 149.035,122.620 148.384 C 122.978 147.806,125.029 137.873,125.651 133.707 C 125.973 131.550,126.405 128.777,126.610 127.544 C 127.582 121.715,127.755 119.669,128.087 110.111 C 128.283 104.480,128.528 99.628,128.633 99.330 C 128.737 99.031,128.996 97.190,129.208 95.238 C 129.420 93.287,129.658 91.354,129.738 90.943 C 129.818 90.532,130.003 89.440,130.149 88.515 C 132.110 76.060,139.706 65.392,148.228 63.125 C 151.954 62.134,161.223 60.842,167.644 60.419 C 173.838 60.011,174.555 59.894,175.026 59.209 C 181.155 50.294,182.418 48.709,187.626 43.390 C 193.625 37.263,196.480 35.940,199.699 37.794 M202.428 43.137 C 203.124 43.856,203.779 44.444,203.881 44.444 C 203.984 44.444,203.498 43.856,202.801 43.137 C 202.104 42.418,201.450 41.830,201.347 41.830 C 201.245 41.830,201.731 42.418,202.428 43.137 M188.025 46.405 L 186.928 47.619 188.142 46.522 C 188.810 45.919,189.356 45.373,189.356 45.308 C 189.356 45.020,189.048 45.274,188.025 46.405 M169.655 63.020 C 170.630 63.097,172.227 63.097,173.203 63.020 C 174.178 62.943,173.380 62.880,171.429 62.880 C 169.477 62.880,168.679 62.943,169.655 63.020 M218.861 63.119 C 220.995 63.430,225.451 63.596,225.179 63.354 C 225.093 63.278,223.175 63.126,220.915 63.017 C 218.115 62.882,217.461 62.915,218.861 63.119 M164.990 63.383 C 165.455 63.472,166.127 63.469,166.484 63.375 C 166.841 63.282,166.461 63.209,165.640 63.213 C 164.818 63.217,164.526 63.293,164.990 63.383 M230.532 64.123 C 230.892 64.217,231.480 64.217,231.839 64.123 C 232.199 64.029,231.905 63.952,231.186 63.952 C 230.467 63.952,230.173 64.029,230.532 64.123 M241.181 65.250 C 241.645 65.339,242.318 65.336,242.675 65.243 C 243.032 65.149,242.652 65.076,241.830 65.080 C 241.008 65.084,240.716 65.161,241.181 65.250 M243.978 65.617 C 244.337 65.711,244.925 65.711,245.285 65.617 C 245.644 65.523,245.350 65.446,244.631 65.446 C 243.912 65.446,243.618 65.523,243.978 65.617 M261.251 68.347 C 261.662 68.524,262.250 68.668,262.558 68.668 C 262.911 68.668,262.842 68.550,262.372 68.347 C 261.961 68.171,261.373 68.026,261.064 68.026 C 260.711 68.026,260.780 68.145,261.251 68.347 M140.941 70.682 C 139.834 71.941,138.125 74.323,138.330 74.323 C 138.428 74.323,139.276 73.315,140.213 72.082 C 141.945 69.805,142.281 69.158,140.941 70.682 M131.582 99.160 C 131.584 100.392,131.653 100.851,131.737 100.180 C 131.820 99.509,131.818 98.500,131.733 97.939 C 131.648 97.378,131.580 97.927,131.582 99.160 M131.215 106.256 C 131.217 107.694,131.284 108.236,131.365 107.461 C 131.446 106.686,131.444 105.510,131.362 104.847 C 131.279 104.184,131.213 104.818,131.215 106.256 M278.836 106.074 C 277.826 106.468,276.835 106.956,276.633 107.158 C 276.431 107.360,277.219 107.137,278.384 106.664 C 279.549 106.190,280.611 105.695,280.743 105.563 C 281.086 105.219,280.891 105.272,278.836 106.074 M309.915 107.934 C 310.576 109.096,311.120 109.397,311.099 108.590 C 311.083 107.946,310.183 106.816,309.687 106.816 C 309.442 106.816,309.533 107.264,309.915 107.934 M274.215 109.020 C 272.757 110.523,271.041 113.393,270.620 115.033 C 270.488 115.546,270.875 114.924,271.481 113.649 C 272.086 112.374,273.374 110.483,274.344 109.447 C 276.405 107.243,276.295 106.877,274.215 109.020 M305.509 107.853 C 305.509 108.233,306.734 109.430,307.123 109.430 C 307.260 109.430,307.315 109.052,307.245 108.590 C 307.123 107.780,305.509 107.094,305.509 107.853 M308.397 109.515 C 307.699 110.229,308.178 110.625,310.185 110.990 C 311.225 111.180,311.276 110.222,310.247 109.830 C 309.738 109.637,309.262 109.335,309.189 109.159 C 309.117 108.983,308.760 109.143,308.397 109.515 M130.813 112.232 C 130.817 113.053,130.894 113.345,130.983 112.881 C 131.072 112.416,131.069 111.744,130.976 111.387 C 130.882 111.030,130.809 111.410,130.813 112.232 M130.432 116.900 C 130.432 117.619,130.509 117.913,130.603 117.554 C 130.697 117.194,130.697 116.606,130.603 116.246 C 130.509 115.887,130.432 116.181,130.432 116.900 M269.859 117.416 C 269.747 117.954,269.559 118.847,269.442 119.401 C 269.326 119.955,268.737 120.969,268.135 121.655 C 267.533 122.341,267.045 123.106,267.052 123.356 C 267.058 123.605,267.248 123.473,267.475 123.063 C 267.702 122.652,268.275 121.895,268.749 121.382 C 269.554 120.511,270.650 117.024,270.246 116.620 C 270.146 116.520,269.972 116.878,269.859 117.416 M271.008 117.848 C 270.880 118.182,270.789 118.735,270.807 119.078 C 270.825 119.421,270.987 119.205,271.168 118.600 C 271.520 117.421,271.396 116.837,271.008 117.848 M299.752 123.060 C 299.789 127.003,299.700 127.812,299.198 128.106 C 298.869 128.298,298.794 128.460,299.031 128.467 C 299.290 128.473,299.381 128.815,299.257 129.318 C 298.997 130.382,298.415 131.138,298.036 130.904 C 297.640 130.659,297.229 131.808,297.535 132.304 C 297.673 132.527,297.606 132.593,297.383 132.456 C 297.157 132.316,296.463 133.060,295.780 134.172 C 295.118 135.251,293.968 136.713,293.226 137.419 C 292.361 138.243,292.145 138.602,292.624 138.420 C 293.035 138.264,293.816 138.046,294.360 137.937 C 298.663 137.068,301.900 126.416,299.992 119.406 C 299.827 118.801,299.726 120.335,299.752 123.060 M130.079 121.195 C 130.082 122.222,130.154 122.598,130.240 122.030 C 130.326 121.463,130.324 120.622,130.235 120.163 C 130.146 119.704,130.076 120.168,130.079 121.195 M268.681 125.223 C 268.738 126.412,269.005 127.588,269.274 127.838 C 269.664 128.199,269.703 128.185,269.468 127.771 C 269.305 127.485,269.038 126.309,268.875 125.157 L 268.578 123.063 268.681 125.223 M267.065 127.358 C 267.066 127.666,267.320 128.338,267.629 128.852 L 268.192 129.785 267.944 128.852 C 267.585 127.496,267.062 126.608,267.065 127.358 M270.775 130.803 C 270.775 130.923,271.366 131.730,272.089 132.595 L 273.404 134.168 272.463 135.040 C 271.945 135.520,271.522 136.030,271.522 136.175 C 271.522 136.319,271.840 136.149,272.228 135.798 C 272.900 135.190,273.094 135.241,276.258 136.861 C 279.824 138.686,282.700 139.584,286.275 139.989 L 288.515 140.243 288.731 142.670 C 288.850 144.006,288.976 144.552,289.011 143.884 C 289.047 143.217,289.249 142.670,289.461 142.670 C 290.347 142.670,292.437 143.792,292.437 144.267 C 292.437 144.550,292.898 145.189,293.461 145.687 C 294.205 146.344,294.307 146.379,293.835 145.816 C 292.946 144.756,293.012 144.266,293.931 145.098 C 294.342 145.470,294.678 146.076,294.678 146.446 C 294.678 146.816,295.088 147.529,295.590 148.031 L 296.503 148.943 296.746 147.834 C 297.005 146.657,297.449 146.706,297.468 147.914 C 297.486 149.078,298.197 148.933,298.458 147.712 C 299.220 144.152,298.412 139.429,297.066 139.570 C 296.677 139.611,294.886 139.847,293.087 140.095 C 290.407 140.465,289.631 140.456,288.792 140.044 L 287.768 139.542 289.527 139.317 C 292.506 138.935,291.809 138.751,287.230 138.708 C 279.932 138.641,276.334 137.091,272.176 132.224 C 271.405 131.322,270.775 130.683,270.775 130.803 M269.733 132.402 C 269.879 132.628,270.162 133.224,270.363 133.727 C 270.593 134.305,270.736 134.415,270.751 134.028 C 270.764 133.692,270.481 133.095,270.121 132.704 C 269.762 132.312,269.587 132.176,269.733 132.402 M301.401 134.080 C 300.981 134.902,300.722 135.574,300.823 135.574 C 300.925 135.574,301.277 135.054,301.606 134.418 C 302.051 133.558,302.394 133.311,302.944 133.455 C 303.549 133.613,303.604 133.551,303.244 133.117 C 302.559 132.293,302.223 132.469,301.401 134.080 M303.641 134.197 C 303.641 134.261,304.188 134.808,304.855 135.411 L 306.069 136.508 304.972 135.294 C 303.950 134.163,303.641 133.909,303.641 134.197 M127.939 135.782 C 127.798 136.531,127.758 137.219,127.849 137.310 C 127.940 137.402,128.130 136.863,128.271 136.114 C 128.411 135.364,128.452 134.676,128.360 134.585 C 128.269 134.494,128.079 135.032,127.939 135.782 M269.715 135.777 C 269.089 137.150,269.209 137.443,269.885 136.195 C 270.201 135.612,270.390 135.065,270.305 134.979 C 270.219 134.894,269.954 135.253,269.715 135.777 M28.160 136.152 C 28.029 136.675,28.026 137.207,28.153 137.335 C 28.280 137.462,28.385 137.202,28.385 136.757 C 28.385 136.312,28.553 135.948,28.758 135.948 C 28.964 135.948,29.132 135.780,29.132 135.574 C 29.132 134.799,28.389 135.240,28.160 136.152 M299.778 136.631 C 298.972 137.521,298.988 137.667,300.137 139.869 C 300.854 141.244,301.042 141.441,300.853 140.616 C 300.711 140.000,300.356 139.230,300.064 138.906 C 299.368 138.133,299.393 137.468,300.151 136.631 C 300.491 136.255,300.685 135.948,300.583 135.948 C 300.480 135.948,300.118 136.255,299.778 136.631 M306.999 138.183 C 307.647 139.002,308.373 139.793,308.611 139.940 C 308.850 140.087,308.397 139.417,307.605 138.451 C 306.814 137.485,306.088 136.695,305.993 136.695 C 305.897 136.695,306.350 137.365,306.999 138.183 M86.069 137.418 C 85.874 137.611,84.958 137.833,84.034 137.913 L 82.353 138.058 84.081 138.123 C 85.227 138.167,85.966 138.000,86.275 137.628 C 86.785 137.013,86.635 136.860,86.069 137.418 M268.802 138.955 C 268.432 141.115,269.023 143.934,270.251 145.861 C 271.289 147.490,271.279 147.335,270.205 145.098 C 269.751 144.153,269.415 142.437,269.291 140.430 C 269.104 137.427,269.078 137.347,268.802 138.955 M28.127 141.737 C 28.129 142.969,28.199 143.428,28.282 142.757 C 28.365 142.086,28.363 141.077,28.278 140.516 C 28.193 139.955,28.125 140.504,28.127 141.737 M270.503 141.176 C 270.503 142.101,270.576 142.479,270.665 142.017 C 270.754 141.555,270.754 140.798,270.665 140.336 C 270.576 139.874,270.503 140.252,270.503 141.176 M301.083 143.336 C 301.047 144.120,301.229 144.639,301.587 144.776 C 302.335 145.063,302.312 147.124,301.549 148.214 C 301.220 148.684,301.040 149.157,301.148 149.265 C 301.492 149.609,302.521 147.234,302.521 146.096 C 302.521 145.495,302.279 144.802,301.983 144.556 C 301.687 144.311,301.376 143.660,301.292 143.110 C 301.156 142.222,301.133 142.247,301.083 143.336 M313.012 146.125 C 313.679 147.101,314.287 147.899,314.362 147.899 C 314.616 147.899,313.769 146.599,312.780 145.472 C 312.037 144.623,312.093 144.782,313.012 146.125 M272.210 146.965 C 273.566 148.901,274.493 149.967,274.486 149.580 C 274.481 149.374,273.791 148.450,272.952 147.526 C 272.113 146.601,271.779 146.349,272.210 146.965 M299.571 147.619 L 299.162 148.833 299.900 147.899 C 300.706 146.878,300.838 146.405,300.317 146.405 C 300.131 146.405,299.796 146.951,299.571 147.619 M28.479 148.086 C 28.483 148.908,28.560 149.200,28.649 148.735 C 28.738 148.271,28.735 147.598,28.641 147.241 C 28.548 146.884,28.475 147.264,28.479 148.086 M271.175 147.919 C 271.141 148.671,273.003 151.563,274.270 152.726 C 275.707 154.045,275.477 153.466,273.901 151.795 C 273.156 151.005,272.243 149.678,271.873 148.848 C 271.504 148.018,271.189 147.600,271.175 147.919 M33.606 149.300 C 33.830 149.762,34.301 150.127,34.654 150.111 C 35.173 150.087,35.188 150.040,34.734 149.863 C 34.426 149.743,33.954 149.379,33.686 149.052 C 33.273 148.549,33.261 148.587,33.606 149.300 M289.076 149.060 C 289.076 149.851,291.212 153.128,291.728 153.128 C 292.032 153.128,292.021 153.289,291.690 153.688 C 291.422 154.011,291.386 154.248,291.604 154.248 C 292.333 154.248,292.414 153.142,291.713 152.767 C 291.330 152.562,290.580 151.518,290.046 150.447 C 289.512 149.376,289.076 148.752,289.076 149.060 M299.077 151.787 C 298.107 152.893,296.543 154.171,295.603 154.626 C 294.662 155.082,293.969 155.532,294.063 155.626 C 294.612 156.175,299.794 152.119,300.695 150.436 C 301.255 149.389,300.972 149.626,299.077 151.787 M275.630 151.447 C 276.327 152.166,276.981 152.754,277.084 152.754 C 277.187 152.754,276.701 152.166,276.004 151.447 C 275.307 150.728,274.653 150.140,274.550 150.140 C 274.447 150.140,274.933 150.728,275.630 151.447 M316.665 151.821 C 316.867 152.232,317.306 152.904,317.640 153.315 L 318.248 154.062 317.882 153.315 C 317.680 152.904,317.241 152.232,316.907 151.821 L 316.299 151.074 316.665 151.821 M284.687 154.894 C 285.458 154.974,286.718 154.974,287.488 154.894 C 288.259 154.813,287.628 154.747,286.088 154.747 C 284.547 154.747,283.917 154.813,284.687 154.894 M273.887 156.669 C 272.873 157.379,269.720 161.658,268.171 164.426 C 266.400 167.590,267.031 167.038,269.025 163.679 C 271.026 160.306,273.636 157.044,273.841 157.659 C 273.920 157.893,274.274 157.642,274.629 157.100 C 275.350 156.000,275.072 155.838,273.887 156.669 M319.888 157.236 C 320.207 157.852,320.551 158.357,320.654 158.357 C 320.757 158.357,320.580 157.852,320.261 157.236 C 319.943 156.620,319.598 156.116,319.495 156.116 C 319.393 156.116,319.569 156.620,319.888 157.236 M272.038 160.691 C 270.752 162.872,270.668 163.058,271.323 162.278 C 272.082 161.374,272.736 160.224,272.491 160.224 C 272.393 160.224,272.189 160.434,272.038 160.691 M323.249 163.585 C 323.770 164.613,324.280 165.453,324.382 165.453 C 324.485 165.453,324.143 164.613,323.623 163.585 C 323.102 162.558,322.592 161.718,322.490 161.718 C 322.387 161.718,322.729 162.558,323.249 163.585 M269.655 164.706 C 269.235 165.528,268.976 166.200,269.079 166.200 C 269.182 166.200,269.609 165.528,270.028 164.706 C 270.447 163.884,270.706 163.212,270.603 163.212 C 270.501 163.212,270.074 163.884,269.655 164.706 M119.228 166.200 C 119.228 166.919,119.304 167.213,119.398 166.853 C 119.492 166.494,119.492 165.906,119.398 165.546 C 119.304 165.187,119.228 165.481,119.228 166.200 M265.335 169.724 C 264.599 171.316,264.087 172.708,264.196 172.817 C 264.305 172.926,264.672 172.321,265.012 171.473 C 265.352 170.624,265.944 169.312,266.329 168.557 C 266.714 167.802,266.949 167.104,266.851 167.006 C 266.753 166.909,266.071 168.131,265.335 169.724 M118.900 172.736 C 118.899 174.585,118.962 175.388,119.040 174.521 C 119.119 173.654,119.120 172.142,119.042 171.160 C 118.965 170.178,118.901 170.887,118.900 172.736 M121.501 173.296 C 121.501 174.631,121.569 175.177,121.652 174.510 C 121.735 173.842,121.735 172.750,121.652 172.082 C 121.569 171.415,121.501 171.961,121.501 173.296 M263.509 173.709 C 262.667 176.042,261.114 181.200,260.934 182.260 C 260.812 182.979,261.054 182.474,261.472 181.139 C 261.890 179.804,262.641 177.549,263.142 176.128 C 263.642 174.707,263.972 173.464,263.874 173.367 C 263.776 173.269,263.612 173.423,263.509 173.709 M37.736 177.591 C 37.737 177.796,38.082 178.385,38.502 178.898 C 39.009 179.518,39.136 179.581,38.880 179.085 C 38.250 177.867,37.733 177.191,37.736 177.591 M320.181 182.073 C 320.294 182.689,320.587 184.580,320.834 186.275 C 321.344 189.792,321.761 190.430,321.443 187.208 C 321.304 185.798,321.340 185.381,321.549 185.994 C 322.123 187.676,321.957 185.806,321.348 183.728 C 320.675 181.429,319.849 180.258,320.181 182.073 M262.745 182.633 C 262.603 183.279,262.565 183.885,262.660 183.980 C 262.755 184.075,262.941 183.616,263.072 182.960 C 263.383 181.403,263.082 181.101,262.745 182.633 M41.787 183.693 C 42.202 184.276,42.837 184.991,43.198 185.281 C 43.559 185.570,43.287 185.093,42.593 184.220 C 41.168 182.427,40.640 182.082,41.787 183.693 M260.157 184.714 C 260.020 185.261,259.992 185.793,260.094 185.896 C 260.197 185.999,260.394 185.635,260.531 185.087 C 260.668 184.540,260.697 184.008,260.594 183.905 C 260.491 183.803,260.295 184.167,260.157 184.714 M262.051 185.326 C 261.925 185.796,261.838 186.601,261.857 187.115 C 261.879 187.665,262.027 187.368,262.218 186.391 C 262.561 184.642,262.440 183.872,262.051 185.326 M120.121 187.862 C 120.252 188.581,120.505 189.505,120.685 189.916 C 120.910 190.429,120.938 190.253,120.775 189.356 C 120.645 188.637,120.391 187.712,120.211 187.302 C 119.987 186.789,119.959 186.964,120.121 187.862 M259.384 187.862 C 259.242 188.507,259.210 189.120,259.313 189.222 C 259.415 189.325,259.615 188.881,259.757 188.235 C 259.899 187.590,259.931 186.977,259.828 186.875 C 259.726 186.772,259.526 187.216,259.384 187.862 M322.030 188.049 C 322.030 188.665,322.159 189.673,322.316 190.289 L 322.601 191.410 322.601 190.289 C 322.601 189.673,322.472 188.665,322.316 188.049 L 322.030 186.928 322.030 188.049 M47.432 190.289 C 48.129 191.008,48.783 191.597,48.886 191.597 C 48.989 191.597,48.503 191.008,47.806 190.289 C 47.109 189.570,46.455 188.982,46.352 188.982 C 46.249 188.982,46.735 189.570,47.432 190.289 M258.506 191.970 C 257.693 195.893,257.671 196.859,258.464 193.838 C 258.869 192.297,259.157 190.700,259.105 190.289 C 259.052 189.879,258.783 190.635,258.506 191.970 M321.841 194.211 C 321.951 196.779,322.103 198.950,322.178 199.035 C 322.436 199.327,322.251 193.284,321.945 191.410 C 321.749 190.207,321.712 191.205,321.841 194.211 M322.826 192.530 C 323.273 194.770,323.766 198.607,324.207 203.268 C 324.454 205.887,324.738 208.030,324.838 208.030 C 325.378 208.030,323.476 192.243,322.865 191.661 C 322.720 191.523,322.703 191.914,322.826 192.530 M256.981 199.091 C 256.733 200.350,256.603 201.452,256.690 201.539 C 256.778 201.627,257.066 200.682,257.330 199.440 C 257.593 198.197,257.724 197.095,257.620 196.991 C 257.516 196.888,257.229 197.832,256.981 199.091 M55.649 198.506 C 56.346 199.225,57.000 199.813,57.103 199.813 C 57.205 199.813,56.719 199.225,56.022 198.506 C 55.326 197.787,54.671 197.199,54.569 197.199 C 54.466 197.199,54.952 197.787,55.649 198.506 M128.308 198.963 C 128.689 199.625,129.643 200.886,130.429 201.764 C 131.525 202.990,131.410 202.754,129.936 200.747 C 127.673 197.667,127.372 197.338,128.308 198.963 M322.417 201.307 C 322.417 202.232,322.490 202.610,322.579 202.148 C 322.668 201.685,322.668 200.929,322.579 200.467 C 322.490 200.005,322.417 200.383,322.417 201.307 M256.296 203.175 C 256.296 203.894,256.373 204.188,256.467 203.828 C 256.561 203.469,256.561 202.880,256.467 202.521 C 256.373 202.162,256.296 202.456,256.296 203.175 M61.220 202.937 C 61.718 203.549,63.119 204.475,63.119 204.192 C 63.119 204.120,62.572 203.662,61.905 203.173 C 61.154 202.624,60.893 202.533,61.220 202.937 M322.746 205.976 C 322.716 207.619,322.873 211.232,323.096 214.006 C 323.319 216.779,323.626 227.451,323.778 237.722 L 324.055 256.396 324.121 241.457 C 324.162 232.132,323.972 222.447,323.616 215.686 C 322.967 203.361,322.824 201.759,322.746 205.976 M133.520 205.415 C 134.532 206.443,135.443 207.283,135.546 207.283 C 135.649 207.283,134.905 206.443,133.894 205.415 C 132.882 204.388,131.970 203.548,131.867 203.548 C 131.765 203.548,132.508 204.388,133.520 205.415 M129.225 205.532 C 129.225 205.597,129.771 206.143,130.439 206.746 L 131.653 207.843 130.556 206.629 C 129.533 205.498,129.225 205.244,129.225 205.532 M254.780 207.027 C 253.849 208.019,253.681 208.733,254.549 208.013 C 255.116 207.542,255.995 206.162,255.727 206.162 C 255.653 206.162,255.227 206.551,254.780 207.027 M258.537 208.030 C 258.537 208.749,258.614 209.043,258.707 208.683 C 258.801 208.324,258.801 207.736,258.707 207.376 C 258.614 207.017,258.537 207.311,258.537 208.030 M133.591 209.565 C 134.041 210.056,134.965 210.778,135.645 211.169 C 137.200 212.064,136.991 211.836,134.641 210.073 C 133.541 209.248,133.109 209.039,133.591 209.565 M325.192 214.379 C 325.302 217.358,325.530 220.467,325.699 221.289 C 326.054 223.012,325.739 215.643,325.284 211.578 C 325.093 209.868,325.061 210.838,325.192 214.379 M258.171 210.831 C 258.175 211.653,258.251 211.945,258.341 211.480 C 258.430 211.016,258.427 210.343,258.333 209.986 C 258.240 209.629,258.167 210.009,258.171 210.831 M250.447 211.204 C 248.336 212.705,248.424 212.956,250.583 211.593 C 251.820 210.812,252.801 209.897,252.402 209.897 C 252.338 209.897,251.458 210.486,250.447 211.204 M74.323 210.831 C 74.837 211.125,75.425 211.365,75.630 211.365 C 75.836 211.365,75.584 211.125,75.070 210.831 C 74.556 210.537,73.968 210.297,73.763 210.297 C 73.557 210.297,73.810 210.537,74.323 210.831 M252.504 213.426 C 251.429 214.119,250.436 214.807,250.298 214.956 C 249.886 215.400,251.842 214.323,252.805 213.576 C 253.989 212.657,254.628 212.704,254.825 213.725 C 254.967 214.461,254.993 214.441,255.038 213.561 C 255.114 212.062,254.659 212.038,252.504 213.426 M245.565 213.644 C 244.127 214.242,243.224 214.736,243.558 214.742 C 244.236 214.754,248.366 213.003,248.366 212.703 C 248.366 212.461,248.609 212.379,245.565 213.644 M140.056 213.632 C 140.775 214.026,141.531 214.348,141.737 214.348 C 141.942 214.348,141.522 214.026,140.803 213.632 C 140.084 213.239,139.328 212.916,139.122 212.916 C 138.917 212.916,139.337 213.239,140.056 213.632 M81.793 213.943 C 82.101 214.133,82.773 214.401,83.287 214.538 C 83.936 214.712,84.049 214.683,83.660 214.442 C 83.352 214.252,82.680 213.984,82.166 213.846 C 81.517 213.673,81.403 213.702,81.793 213.943 M240.336 215.126 L 239.216 215.411 240.336 215.429 C 240.952 215.439,241.793 215.303,242.204 215.126 L 242.951 214.805 242.204 214.823 C 241.793 214.833,240.952 214.969,240.336 215.126 M254.443 216.246 C 254.443 217.171,254.516 217.549,254.605 217.087 C 254.694 216.625,254.694 215.868,254.605 215.406 C 254.516 214.944,254.443 215.322,254.443 216.246 M144.747 215.674 C 145.256 216.060,145.314 216.226,144.942 216.235 C 144.651 216.241,144.514 216.347,144.637 216.471 C 144.761 216.594,145.049 216.579,145.278 216.437 C 145.759 216.140,145.096 215.126,144.421 215.126 C 144.201 215.126,144.348 215.373,144.747 215.674 M246.872 216.098 C 245.498 216.606,245.001 216.895,245.728 216.763 C 246.984 216.535,250.411 215.168,249.673 215.190 C 249.468 215.195,248.207 215.604,246.872 216.098 M232.866 216.246 L 231.746 216.532 233.053 216.532 C 233.772 216.532,234.865 216.403,235.481 216.246 L 236.601 215.961 235.294 215.961 C 234.575 215.961,233.483 216.090,232.866 216.246 M257.424 217.180 C 257.428 218.002,257.504 218.294,257.594 217.829 C 257.683 217.365,257.680 216.693,257.586 216.336 C 257.493 215.978,257.420 216.359,257.424 217.180 M166.672 216.515 C 167.240 216.600,168.080 216.598,168.539 216.509 C 168.999 216.421,168.534 216.351,167.507 216.353 C 166.480 216.356,166.104 216.429,166.672 216.515 M171.901 216.888 C 172.468 216.974,173.309 216.972,173.768 216.883 C 174.227 216.794,173.763 216.724,172.736 216.727 C 171.709 216.730,171.333 216.802,171.901 216.888 M228.011 216.869 C 227.600 216.950,225.920 217.170,224.276 217.358 L 221.289 217.699 224.837 217.511 C 228.367 217.324,232.414 216.680,229.879 216.709 C 229.262 216.716,228.422 216.788,228.011 216.869 M140.430 217.367 C 139.690 217.604,139.651 217.666,140.243 217.666 C 140.654 217.666,141.410 217.531,141.923 217.367 C 142.663 217.130,142.702 217.068,142.110 217.068 C 141.699 217.068,140.943 217.202,140.430 217.367 M176.377 217.261 C 176.942 217.347,177.866 217.347,178.431 217.261 C 178.996 217.175,178.534 217.105,177.404 217.105 C 176.275 217.105,175.812 217.175,176.377 217.261 M240.523 217.554 C 239.393 217.816,238.889 218.046,239.402 218.065 C 239.916 218.084,241.176 217.866,242.204 217.580 C 244.537 216.931,243.293 216.911,240.523 217.554 M181.429 217.641 C 182.308 217.720,183.652 217.719,184.417 217.638 C 185.182 217.558,184.463 217.494,182.820 217.495 C 181.176 217.496,180.551 217.562,181.429 217.641 M188.889 218.011 C 189.556 218.093,190.649 218.093,191.317 218.011 C 191.984 217.928,191.438 217.860,190.103 217.860 C 188.768 217.860,188.221 217.928,188.889 218.011 M217.834 218.008 C 218.399 218.094,219.323 218.094,219.888 218.008 C 220.453 217.922,219.991 217.852,218.861 217.852 C 217.731 217.852,217.269 217.922,217.834 218.008 M199.160 218.393 C 202.395 218.455,207.689 218.455,210.924 218.393 C 214.160 218.331,211.513 218.280,205.042 218.280 C 198.571 218.280,195.924 218.331,199.160 218.393 M132.680 218.745 C 133.039 218.839,133.627 218.839,133.987 218.745 C 134.346 218.651,134.052 218.574,133.333 218.574 C 132.614 218.574,132.320 218.651,132.680 218.745 M233.053 218.861 L 232.120 219.160 233.053 219.153 C 233.567 219.149,234.491 219.018,235.107 218.861 L 236.228 218.576 235.107 218.569 C 234.491 218.565,233.567 218.696,233.053 218.861 M254.080 220.728 C 254.080 221.858,254.150 222.320,254.236 221.755 C 254.321 221.190,254.321 220.266,254.236 219.701 C 254.150 219.136,254.080 219.599,254.080 220.728 M105.980 219.499 C 106.445 219.588,107.117 219.584,107.474 219.491 C 107.831 219.397,107.451 219.324,106.629 219.329 C 105.808 219.333,105.515 219.409,105.980 219.499 M123.521 219.504 C 124.184 219.586,125.361 219.588,126.135 219.507 C 126.910 219.426,126.368 219.359,124.930 219.357 C 123.492 219.355,122.858 219.421,123.521 219.504 M228.482 219.499 C 228.947 219.588,229.619 219.584,229.976 219.491 C 230.333 219.397,229.953 219.324,229.132 219.329 C 228.310 219.333,228.018 219.409,228.482 219.499 M112.155 219.886 C 113.757 219.956,116.278 219.956,117.757 219.885 C 119.237 219.814,117.927 219.757,114.846 219.757 C 111.765 219.758,110.554 219.816,112.155 219.886 M224.935 219.876 C 225.503 219.962,226.343 219.959,226.803 219.871 C 227.262 219.782,226.797 219.712,225.770 219.715 C 224.743 219.717,224.367 219.790,224.935 219.876 M257.063 221.289 C 257.066 222.316,257.138 222.691,257.224 222.124 C 257.310 221.556,257.308 220.716,257.219 220.256 C 257.130 219.797,257.060 220.261,257.063 221.289 M221.013 220.245 C 221.477 220.335,222.150 220.331,222.507 220.238 C 222.864 220.144,222.484 220.071,221.662 220.076 C 220.840 220.080,220.548 220.156,221.013 220.245 M174.323 220.625 C 174.991 220.708,176.083 220.708,176.751 220.625 C 177.418 220.542,176.872 220.474,175.537 220.474 C 174.202 220.474,173.655 220.542,174.323 220.625 M207.843 220.727 C 206.611 220.863,208.543 220.895,212.138 220.799 C 215.733 220.703,218.744 220.564,218.830 220.490 C 219.084 220.269,210.271 220.460,207.843 220.727 M180.299 220.998 C 180.966 221.081,182.059 221.081,182.726 220.998 C 183.394 220.916,182.848 220.848,181.513 220.848 C 180.177 220.848,179.631 220.916,180.299 220.998 M187.960 221.370 C 188.528 221.456,189.368 221.453,189.828 221.365 C 190.287 221.276,189.823 221.206,188.796 221.209 C 187.768 221.211,187.393 221.284,187.960 221.370 M198.797 221.377 C 199.779 221.454,201.292 221.453,202.159 221.375 C 203.026 221.296,202.222 221.233,200.373 221.234 C 198.525 221.235,197.816 221.300,198.797 221.377 M253.696 224.463 C 253.696 225.387,253.769 225.766,253.858 225.303 C 253.947 224.841,253.947 224.085,253.858 223.623 C 253.769 223.161,253.696 223.539,253.696 224.463 M326.087 228.229 C 326.108 229.753,326.261 231.923,326.427 233.053 C 326.627 234.409,326.663 233.521,326.531 230.439 C 326.311 225.283,326.029 223.881,326.087 228.229 M253.341 232.680 C 253.341 234.015,253.409 234.561,253.491 233.894 C 253.574 233.226,253.574 232.134,253.491 231.466 C 253.409 230.798,253.341 231.345,253.341 232.680 M256.303 232.493 C 256.307 233.315,256.384 233.607,256.473 233.142 C 256.563 232.678,256.559 232.005,256.466 231.648 C 256.372 231.291,256.299 231.671,256.303 232.493 M326.882 242.670 C 326.799 249.333,327.165 251.239,328.073 248.873 C 328.268 248.365,328.213 248.339,327.748 248.725 C 327.255 249.135,327.175 248.398,327.077 242.522 L 326.966 235.854 326.882 242.670 M252.999 242.577 C 252.999 245.864,253.057 247.158,253.126 245.454 C 253.195 243.749,253.195 241.060,253.125 239.478 C 253.055 237.896,252.999 239.290,252.999 242.577 M255.977 241.643 C 255.977 244.006,256.038 244.972,256.112 243.791 C 256.186 242.610,256.186 240.677,256.112 239.496 C 256.038 238.315,255.977 239.281,255.977 241.643 M189.076 248.926 C 189.081 249.748,189.157 250.040,189.246 249.575 C 189.336 249.111,189.332 248.439,189.239 248.082 C 189.145 247.724,189.072 248.105,189.076 248.926 M255.593 250.980 C 255.593 252.726,255.657 253.441,255.736 252.568 C 255.814 251.695,255.814 250.266,255.736 249.393 C 255.657 248.520,255.593 249.234,255.593 250.980 M357.167 254.012 C 359.884 255.401,360.030 258.783,357.430 260.127 C 355.858 260.940,354.974 260.828,353.657 259.651 C 350.784 257.084,353.776 252.278,357.167 254.012 M255.217 259.010 C 255.218 260.654,255.284 261.279,255.363 260.401 C 255.442 259.523,255.440 258.178,255.360 257.413 C 255.280 256.648,255.215 257.367,255.217 259.010 M252.622 263.492 C 252.622 266.368,252.681 267.495,252.752 265.997 C 252.823 264.498,252.823 262.146,252.751 260.768 C 252.679 259.390,252.621 260.616,252.622 263.492 M323.580 265.920 C 323.580 268.487,323.640 269.538,323.713 268.254 C 323.785 266.970,323.785 264.869,323.713 263.585 C 323.640 262.302,323.580 263.352,323.580 265.920 M254.822 266.480 C 254.825 267.507,254.897 267.883,254.983 267.315 C 255.069 266.747,255.067 265.907,254.978 265.448 C 254.889 264.988,254.819 265.453,254.822 266.480 M248.511 267.218 C 247.872 267.721,247.060 268.602,246.706 269.174 C 246.299 269.832,246.542 269.665,247.366 268.721 C 248.960 266.895,249.431 267.153,248.337 269.252 C 247.892 270.108,247.603 270.884,247.696 270.977 C 247.900 271.181,249.549 267.742,249.475 267.269 C 249.446 267.086,249.647 266.795,249.921 266.621 C 250.196 266.447,250.252 266.304,250.047 266.303 C 249.841 266.302,249.150 266.714,248.511 267.218 M252.187 271.522 C 252.187 272.241,252.264 272.535,252.358 272.176 C 252.452 271.816,252.452 271.228,252.358 270.868 C 252.264 270.509,252.187 270.803,252.187 271.522 M254.428 271.522 C 254.428 272.241,254.505 272.535,254.599 272.176 C 254.693 271.816,254.693 271.228,254.599 270.868 C 254.505 270.509,254.428 270.803,254.428 271.522 M205.820 273.129 C 207.015 273.997,208.140 274.547,207.753 274.074 C 207.498 273.762,207.400 273.397,207.535 273.262 C 207.670 273.126,207.305 273.016,206.723 273.016 C 206.141 273.016,205.735 273.067,205.820 273.129 M234.921 274.510 L 226.144 274.717 234.805 274.800 C 240.268 274.853,243.552 274.745,243.697 274.510 C 243.824 274.304,243.876 274.174,243.813 274.219 C 243.749 274.265,239.748 274.396,234.921 274.510 M218.021 274.785 C 219.099 274.861,220.864 274.861,221.942 274.785 C 223.021 274.710,222.138 274.648,219.981 274.648 C 217.824 274.648,216.942 274.710,218.021 274.785 M213.710 276.395 C 214.883 276.774,216.479 277.178,217.258 277.293 C 218.037 277.407,217.246 277.088,215.500 276.583 C 211.804 275.514,210.597 275.387,213.710 276.395 M178.640 278.431 C 178.643 279.664,178.712 280.123,178.795 279.452 C 178.879 278.780,178.877 277.772,178.792 277.211 C 178.706 276.650,178.638 277.199,178.640 278.431 M219.892 277.762 C 220.357 277.851,221.029 277.848,221.386 277.754 C 221.743 277.661,221.363 277.588,220.542 277.592 C 219.720 277.596,219.428 277.672,219.892 277.762 M302.187 280.205 C 302.276 280.257,303.271 281.139,304.396 282.166 L 306.443 284.034 304.589 282.073 C 303.570 280.994,302.575 280.112,302.379 280.112 C 302.183 280.112,302.097 280.154,302.187 280.205 M178.626 282.353 C 178.626 283.277,178.699 283.655,178.788 283.193 C 178.877 282.731,178.877 281.975,178.788 281.513 C 178.699 281.050,178.626 281.429,178.626 282.353 M244.380 283.287 C 244.382 284.725,244.449 285.267,244.530 284.492 C 244.611 283.717,244.610 282.541,244.527 281.878 C 244.445 281.215,244.379 281.849,244.380 283.287 M252.600 283.470 C 252.641 284.101,252.901 284.424,253.408 284.475 C 253.946 284.530,253.978 284.498,253.524 284.363 C 253.178 284.259,252.814 283.807,252.716 283.357 C 252.567 282.672,252.549 282.690,252.600 283.470 M311.858 286.015 C 311.858 286.194,312.289 286.538,312.816 286.778 C 313.362 287.027,313.674 287.053,313.542 286.840 C 313.203 286.291,311.858 285.633,311.858 286.015 M249.024 287.846 C 249.489 287.935,250.161 287.932,250.518 287.838 C 250.875 287.745,250.495 287.672,249.673 287.676 C 248.852 287.680,248.559 287.757,249.024 287.846 M221.942 293.815 C 222.302 293.909,222.890 293.909,223.249 293.815 C 223.609 293.721,223.315 293.644,222.596 293.644 C 221.877 293.644,221.583 293.721,221.942 293.815 M218.021 294.194 C 218.483 294.284,219.239 294.284,219.701 294.194 C 220.163 294.105,219.785 294.033,218.861 294.033 C 217.937 294.033,217.558 294.105,218.021 294.194 M210.924 294.575 C 211.592 294.657,212.684 294.657,213.352 294.575 C 214.020 294.492,213.473 294.424,212.138 294.424 C 210.803 294.424,210.257 294.492,210.924 294.575 M205.322 294.948 C 205.990 295.031,207.082 295.031,207.750 294.948 C 208.417 294.865,207.871 294.797,206.536 294.797 C 205.201 294.797,204.655 294.865,205.322 294.948 M251.821 294.935 C 252.180 295.029,252.768 295.029,253.128 294.935 C 253.487 294.841,253.193 294.765,252.474 294.765 C 251.755 294.765,251.461 294.841,251.821 294.935 M188.530 295.328 C 189.822 295.401,191.839 295.401,193.012 295.327 C 194.185 295.253,193.128 295.193,190.663 295.194 C 188.198 295.195,187.238 295.255,188.530 295.328 M395.281 296.481 C 397.920 298.847,395.792 303.006,392.280 302.347 C 390.961 302.100,389.547 300.413,389.544 299.084 C 389.537 296.174,393.124 294.547,395.281 296.481 " stroke="none" fill="#042c63" fill-rule="evenodd"></path><path id="path2" d="M191.276 43.224 C 186.558 48.112,183.173 52.192,180.347 56.396 C 178.225 59.553,178.956 58.835,181.513 55.251 C 185.427 49.764,194.391 39.937,196.108 39.251 C 196.898 38.935,196.918 38.886,196.265 38.859 C 195.779 38.839,194.036 40.364,191.276 43.224 M199.505 40.616 C 202.023 42.965,206.715 48.608,209.409 52.525 C 211.839 56.057,212.049 56.378,214.305 59.988 C 215.189 61.402,216.096 62.826,216.321 63.154 C 217.878 65.422,213.677 69.324,208.513 70.404 C 204.467 71.251,205.303 71.447,211.951 71.209 C 223.047 70.814,228.042 68.373,224.930 64.869 C 224.231 64.082,230.485 64.152,234.360 64.975 C 235.182 65.150,237.619 65.381,239.776 65.490 C 242.823 65.644,243.198 65.617,241.457 65.369 C 237.649 64.828,224.472 63.498,220.616 63.266 C 218.599 63.145,216.785 62.853,216.577 62.615 C 216.368 62.379,214.847 60.094,213.196 57.539 C 207.780 49.161,199.351 38.842,197.921 38.842 C 197.747 38.842,198.460 39.641,199.505 40.616 M176.807 61.159 L 175.276 62.932 171.018 63.143 L 166.760 63.354 170.953 63.423 L 175.145 63.492 176.327 62.193 C 177.536 60.865,178.658 59.383,178.453 59.385 C 178.390 59.385,177.649 60.184,176.807 61.159 M162.434 63.647 C 162.348 63.732,160.261 64.091,157.796 64.445 C 155.331 64.799,152.979 65.223,152.568 65.387 C 151.420 65.846,152.039 65.780,159.664 64.637 C 164.810 63.865,166.187 63.561,164.675 63.532 C 163.528 63.510,162.519 63.562,162.434 63.647 M147.924 66.664 C 145.002 67.749,141.765 69.944,140.484 71.709 C 139.629 72.888,139.716 72.846,141.383 71.279 C 143.856 68.954,146.533 67.379,149.186 66.688 C 150.389 66.374,151.460 66.031,151.566 65.925 C 152.032 65.459,150.129 65.845,147.924 66.664 M245.938 66.128 C 246.760 66.298,248.273 66.423,249.300 66.406 L 251.167 66.375 249.113 66.091 C 247.983 65.935,246.471 65.810,245.752 65.813 L 244.444 65.819 245.938 66.128 M251.541 66.682 C 252.405 67.012,261.551 68.732,261.692 68.591 C 261.880 68.404,260.936 68.161,256.325 67.212 C 253.216 66.573,250.453 66.266,251.541 66.682 M262.558 69.058 C 262.866 69.277,263.349 69.459,263.630 69.462 C 264.416 69.471,268.310 71.944,269.575 73.238 C 271.249 74.950,274.323 81.458,275.467 85.714 C 277.330 92.643,277.566 93.427,277.738 93.255 C 277.832 93.161,277.557 91.706,277.127 90.022 C 274.240 78.713,271.153 72.995,266.551 70.433 C 264.339 69.202,261.275 68.147,262.558 69.058 M138.597 74.176 C 137.688 75.332,135.822 79.177,136.057 79.412 C 136.147 79.502,136.442 79.024,136.712 78.350 C 136.983 77.676,137.759 76.242,138.438 75.163 C 139.765 73.057,139.839 72.598,138.597 74.176 M135.041 81.633 C 134.903 82.180,134.863 82.700,134.951 82.788 C 135.039 82.876,135.223 82.500,135.361 81.953 C 135.498 81.405,135.539 80.886,135.451 80.798 C 135.362 80.710,135.178 81.085,135.041 81.633 M64.613 82.281 C 59.070 84.650,45.679 97.631,40.265 105.882 C 32.218 118.147,30.697 122.862,31.103 134.284 L 31.289 139.530 33.215 143.367 C 35.411 147.743,35.120 147.632,39.601 145.811 C 42.394 144.676,42.362 144.673,43.224 146.125 C 44.188 147.748,48.987 153.501,49.377 153.501 C 49.547 153.501,51.489 152.370,53.692 150.986 C 58.079 148.233,59.097 147.976,65.832 147.922 C 69.212 147.895,68.784 148.329,72.127 141.539 C 74.406 136.912,74.342 136.955,79.552 136.485 C 83.415 136.136,85.074 134.989,88.646 130.198 C 90.379 127.875,90.388 127.167,88.691 126.607 C 87.293 126.145,84.757 124.540,82.265 122.537 C 79.302 120.156,78.242 114.709,80.119 111.506 C 81.545 109.073,80.686 107.891,78.094 108.718 C 76.258 109.305,76.100 109.517,76.576 110.768 C 77.396 112.927,77.882 116.691,77.583 118.581 C 76.808 123.483,76.491 124.716,75.464 126.806 C 73.372 131.066,69.434 135.010,66.747 135.535 C 65.752 135.729,65.372 136.120,64.526 137.819 C 62.573 141.746,56.311 146.429,53.068 146.388 C 50.366 146.354,47.164 143.500,45.429 139.576 C 44.434 137.325,42.650 136.030,41.273 136.558 C 40.915 136.696,40.460 136.507,40.143 136.088 C 39.071 134.671,39.678 134.587,42.390 135.775 C 43.007 136.045,44.054 136.375,44.718 136.508 C 45.750 136.716,45.985 136.977,46.339 138.310 C 48.007 144.583,52.293 146.446,57.534 143.176 C 61.647 140.610,63.116 138.797,64.398 134.704 C 64.568 134.161,64.842 134.071,65.734 134.267 C 67.720 134.703,71.494 131.498,74.573 126.758 L 76.004 124.556 76.127 119.553 C 76.266 113.914,75.911 112.422,73.709 109.380 C 72.078 107.129,72.042 107.190,75.033 107.190 C 78.742 107.190,83.705 103.362,85.629 99.019 C 89.827 89.541,75.089 77.804,64.613 82.281 M134.127 84.475 C 133.545 86.274,132.594 90.477,132.620 91.130 C 132.633 91.438,133.113 89.841,133.686 87.582 C 134.705 83.567,134.928 82.002,134.127 84.475 M132.081 93.639 C 131.953 94.416,131.870 96.060,131.897 97.292 C 131.938 99.164,131.993 98.949,132.235 95.985 C 132.539 92.257,132.474 91.261,132.081 93.639 M277.901 94.251 C 277.870 94.974,278.706 98.899,279.594 102.205 C 280.339 104.975,280.300 105.080,278.266 105.802 C 274.249 107.229,270.462 112.222,269.281 117.647 C 269.035 118.777,268.316 120.443,267.683 121.351 C 265.633 124.286,266.057 128.554,268.750 132.095 C 269.820 133.501,269.889 134.496,269.009 135.838 C 267.799 137.685,268.105 143.118,269.572 145.818 C 270.234 147.036,270.775 148.257,270.775 148.533 C 270.775 149.400,272.521 151.845,274.111 153.206 L 275.639 154.515 273.759 156.200 C 268.733 160.704,260.317 177.250,260.317 182.627 C 260.317 183.165,260.176 183.764,260.003 183.959 C 259.664 184.341,258.468 189.201,257.527 194.024 C 257.206 195.668,256.785 197.768,256.590 198.693 C 256.396 199.617,256.042 201.466,255.804 202.801 C 254.331 211.075,248.166 213.929,225.957 216.616 C 207.214 218.883,165.097 217.040,152.099 213.383 C 151.020 213.080,149.843 212.892,149.485 212.967 C 148.176 213.240,158.195 215.329,163.399 215.869 C 188.860 218.509,214.003 218.794,230.065 216.626 C 231.606 216.418,234.203 216.070,235.838 215.852 C 247.823 214.258,255.182 209.790,256.187 203.498 C 256.396 202.190,256.910 199.524,257.330 197.572 C 257.749 195.621,258.418 192.512,258.815 190.663 C 261.610 177.669,264.789 169.359,269.942 161.577 C 273.682 155.929,276.439 154.168,273.082 159.570 C 270.093 164.381,268.452 167.363,268.671 167.582 C 268.774 167.684,269.301 166.892,269.844 165.822 C 272.215 161.142,276.004 155.950,276.004 157.380 C 276.004 159.275,280.507 159.715,282.166 157.983 C 283.659 156.425,285.920 156.372,286.494 157.882 C 286.945 159.070,287.477 159.478,288.515 159.434 C 289.110 159.409,289.072 159.351,288.329 159.149 C 287.772 158.998,287.179 158.411,286.861 157.693 C 286.099 155.976,283.597 155.934,281.922 157.610 C 279.514 160.017,275.998 158.705,276.577 155.615 C 276.799 154.432,276.716 154.250,275.722 153.736 C 274.308 153.005,272.379 150.805,271.629 149.069 C 271.306 148.323,270.527 146.643,269.898 145.337 C 268.416 142.260,268.334 139.018,269.659 135.987 C 270.528 134.000,270.530 133.957,269.849 132.812 C 266.265 126.799,265.858 123.721,268.337 121.391 C 268.850 120.910,269.375 119.912,269.505 119.175 C 270.661 112.580,274.294 107.523,278.939 106.040 C 280.934 105.403,280.918 105.568,279.565 99.825 C 278.205 94.050,277.946 93.182,277.901 94.251 M66.522 101.656 C 67.321 102.105,67.974 102.609,67.974 102.777 C 67.974 102.944,68.189 103.081,68.451 103.081 C 68.714 103.081,69.216 103.417,69.568 103.828 C 70.589 105.021,69.790 104.701,67.391 102.956 C 66.167 102.065,64.915 101.238,64.609 101.118 C 64.187 100.952,64.176 100.892,64.562 100.870 C 64.842 100.854,65.724 101.207,66.522 101.656 M131.601 104.575 C 131.601 106.527,131.664 107.325,131.740 106.349 C 131.817 105.373,131.817 103.777,131.740 102.801 C 131.664 101.825,131.601 102.624,131.601 104.575 M85.257 107.515 C 80.851 111.333,79.975 113.024,80.540 116.627 C 81.338 121.722,89.658 126.463,93.557 124.046 C 101.093 119.375,100.775 110.968,92.892 106.447 C 89.745 104.642,88.347 104.837,85.257 107.515 M130.761 115.148 C 130.489 118.807,130.342 121.876,130.434 121.969 C 130.672 122.206,131.595 110.155,131.409 109.244 C 131.326 108.833,131.034 111.490,130.761 115.148 M146.032 111.560 C 139.046 114.093,140.683 130.345,147.924 130.345 C 152.105 130.345,155.853 122.386,153.942 117.567 C 153.802 117.215,153.688 118.560,153.688 120.555 C 153.688 126.952,150.885 130.687,146.762 129.782 C 140.905 128.495,140.275 115.126,145.929 112.100 C 148.184 110.893,151.086 112.276,152.786 115.369 C 153.314 116.328,153.456 116.446,153.283 115.780 C 152.473 112.653,148.843 110.541,146.032 111.560 M211.096 111.552 C 208.607 112.061,206.162 116.628,206.162 120.768 C 206.162 130.711,214.881 134.231,218.113 125.593 C 220.789 118.443,216.765 110.394,211.096 111.552 M214.142 112.186 C 216.706 113.258,218.486 116.776,218.489 120.776 C 218.497 132.311,207.349 133.337,206.613 121.869 C 206.194 115.339,209.993 110.453,214.142 112.186 M273.281 114.199 C 272.557 115.000,271.168 117.989,271.157 118.773 C 271.152 119.084,270.804 120.009,270.383 120.827 C 269.676 122.203,269.672 122.247,270.340 121.411 C 270.737 120.914,271.323 119.565,271.643 118.414 C 271.963 117.263,272.650 115.696,273.169 114.930 C 274.190 113.427,274.232 113.148,273.281 114.199 M52.949 115.558 C 54.943 116.844,56.993 118.657,56.742 118.914 C 56.523 119.138,51.365 115.655,50.970 115.015 C 50.576 114.379,51.523 114.639,52.949 115.558 M272.851 118.212 C 271.578 119.881,271.596 122.246,272.882 122.430 C 274.350 122.639,276.069 119.165,275.253 117.639 C 274.676 116.563,273.983 116.728,272.851 118.212 M274.663 120.160 C 274.136 121.433,273.715 121.942,273.190 121.942 C 272.234 121.942,271.963 119.873,272.809 119.028 C 273.128 118.709,273.389 118.281,273.389 118.078 C 273.389 117.459,274.291 117.332,274.862 117.871 C 275.331 118.312,275.305 118.611,274.663 120.160 M269.157 122.751 C 267.008 124.900,272.111 133.892,276.923 136.437 C 280.452 138.305,288.935 139.678,290.731 138.673 C 291.198 138.412,290.817 138.353,289.389 138.465 C 279.209 139.265,269.505 132.623,269.476 124.837 C 269.472 123.553,269.454 122.502,269.437 122.502 C 269.420 122.502,269.293 122.614,269.157 122.751 M275.380 123.047 C 273.158 124.013,272.853 125.761,274.375 128.815 C 277.223 134.531,285.277 132.652,284.070 126.553 C 283.395 123.147,279.118 121.421,275.380 123.047 M129.478 127.918 C 129.104 130.794,128.704 133.735,128.588 134.454 C 128.473 135.173,128.481 135.668,128.605 135.554 C 128.918 135.266,130.411 124.455,130.272 123.481 C 130.210 123.046,129.853 125.042,129.478 127.918 M280.784 123.401 C 285.414 125.809,284.329 131.839,279.265 131.839 C 276.613 131.839,273.763 128.648,273.763 125.677 C 273.763 124.797,274.726 123.715,275.141 124.130 C 275.273 124.262,275.185 124.370,274.946 124.370 C 274.088 124.370,274.485 126.837,275.587 128.359 C 277.010 130.323,278.415 130.903,280.434 130.359 C 284.555 129.250,282.801 122.960,278.467 123.305 C 277.562 123.377,276.900 123.310,276.995 123.156 C 277.285 122.687,279.713 122.843,280.784 123.401 M289.775 126.331 C 289.529 126.793,289.113 127.339,288.851 127.544 C 288.025 128.193,287.810 130.520,288.511 131.222 C 290.556 133.267,293.555 129.023,292.050 126.213 C 291.528 125.237,290.324 125.299,289.775 126.331 M291.923 126.849 C 292.573 129.440,290.166 132.672,288.876 130.939 C 288.201 130.032,288.524 128.671,289.791 127.078 C 290.961 125.607,291.594 125.539,291.923 126.849 M92.624 127.245 C 91.949 127.484,91.125 128.469,91.141 129.016 C 91.147 129.234,91.323 129.120,91.531 128.763 C 92.262 127.508,93.340 127.225,93.746 128.182 L 94.110 129.038 94.021 128.134 C 93.925 127.172,93.533 126.923,92.624 127.245 M89.992 130.999 C 89.531 131.769,88.571 133.492,87.860 134.827 C 85.939 138.436,86.513 138.193,80.511 137.934 C 75.519 137.718,75.175 137.748,74.911 138.413 C 74.756 138.803,74.143 140.485,73.550 142.151 C 72.957 143.816,71.971 146.295,71.359 147.659 L 70.246 150.140 64.120 150.140 L 57.995 150.140 56.320 151.614 C 54.195 153.485,49.306 156.863,48.724 156.863 C 48.361 156.863,45.296 152.828,43.439 149.907 C 43.195 149.521,42.990 149.374,42.985 149.580 C 42.972 150.123,47.518 156.531,48.240 156.986 C 49.015 157.475,51.843 155.820,55.449 152.766 L 57.975 150.626 63.956 150.576 C 71.404 150.514,70.741 151.047,73.787 142.670 L 75.349 138.375 80.800 138.375 C 87.091 138.375,86.165 138.941,89.211 133.240 C 91.142 129.624,91.599 128.315,89.992 130.999 M94.181 129.972 C 94.200 130.942,94.788 132.536,94.801 131.653 C 94.807 131.242,94.668 130.570,94.491 130.159 C 94.294 129.701,94.174 129.629,94.181 129.972 M95.045 133.333 C 97.943 143.241,105.951 149.714,118.394 152.206 C 121.115 152.751,119.155 152.038,114.846 150.916 C 105.302 148.429,99.103 143.132,95.921 134.745 C 95.122 132.640,94.593 131.787,95.045 133.333 M300.876 135.566 C 299.738 137.409,299.568 137.930,299.902 138.554 C 300.469 139.612,300.672 139.494,300.423 138.250 C 300.295 137.607,300.408 136.983,300.713 136.662 C 300.988 136.372,301.452 135.672,301.744 135.107 C 302.035 134.542,302.394 134.080,302.541 134.080 C 303.610 134.080,312.324 145.657,317.159 153.501 C 319.697 157.618,325.303 168.385,325.303 169.141 C 325.303 169.372,325.472 169.561,325.677 169.561 C 327.715 169.561,314.647 147.598,307.042 138.243 C 305.480 136.321,303.971 134.430,303.689 134.041 C 302.868 132.907,302.340 133.193,300.876 135.566 M272.166 135.855 C 271.136 136.994,270.773 138.526,270.835 141.481 L 270.896 144.351 271.117 140.971 C 271.480 135.424,271.993 134.982,275.652 137.055 C 279.560 139.270,288.989 141.800,288.126 140.403 C 288.008 140.212,287.375 140.054,286.719 140.052 C 284.421 140.043,279.646 138.595,276.346 136.906 C 272.471 134.922,272.910 135.033,272.166 135.855 M28.176 137.646 C 28.036 138.579,28.025 139.448,28.153 139.575 C 28.280 139.703,28.385 139.275,28.385 138.624 C 28.385 137.974,28.553 137.442,28.758 137.442 C 28.964 137.442,29.132 137.106,29.132 136.695 C 29.132 135.261,28.428 135.961,28.176 137.646 M127.201 140.646 C 126.641 143.236,126.254 145.426,126.340 145.512 C 126.426 145.598,126.954 143.549,127.514 140.960 C 128.074 138.370,128.462 136.180,128.375 136.094 C 128.289 136.008,127.761 138.056,127.201 140.646 M29.519 139.897 C 29.485 141.745,32.373 148.614,33.811 150.106 C 34.246 150.557,34.562 150.538,36.043 149.973 C 36.991 149.610,37.699 149.246,37.615 149.162 C 37.531 149.078,36.854 149.264,36.110 149.575 C 35.367 149.886,34.587 150.140,34.378 150.140 C 33.815 150.140,31.771 145.921,30.578 142.297 C 30.004 140.551,29.527 139.471,29.519 139.897 M300.794 140.258 C 300.942 140.642,301.161 141.676,301.282 142.556 C 301.402 143.436,301.730 144.347,302.011 144.579 C 304.113 146.324,299.683 153.019,294.786 155.501 C 293.763 156.019,292.636 156.887,292.280 157.430 C 291.925 157.972,291.100 158.649,290.448 158.932 C 289.711 159.253,289.517 159.453,289.936 159.463 C 290.714 159.479,293.184 157.620,293.184 157.017 C 293.184 156.793,294.120 156.215,295.264 155.731 C 299.845 153.795,304.855 146.066,302.569 144.464 C 302.117 144.147,301.774 143.281,301.600 142.015 C 301.452 140.938,301.150 139.945,300.929 139.808 C 300.666 139.646,300.619 139.801,300.794 140.258 M28.438 142.609 C 28.155 157.167,33.928 173.409,43.729 185.625 C 52.253 196.250,63.944 205.844,73.763 210.271 C 74.995 210.827,76.760 211.623,77.684 212.041 C 85.491 215.567,100.701 219.332,106.629 219.206 C 108.216 219.172,106.744 218.550,104.991 218.514 C 96.705 218.342,81.946 213.998,71.335 208.609 C 58.538 202.109,43.802 187.516,37.004 174.608 C 31.846 164.816,29.715 156.903,28.798 144.145 C 28.525 140.331,28.486 140.165,28.438 142.609 M288.415 142.297 C 288.415 143.016,288.492 143.310,288.586 142.951 C 288.680 142.591,288.680 142.003,288.586 141.643 C 288.492 141.284,288.415 141.578,288.415 142.297 M287.955 144.200 C 287.955 145.525,284.213 148.794,283.681 147.934 C 283.496 147.633,279.831 148.783,279.365 149.288 C 278.955 149.733,285.556 148.964,286.293 148.482 C 286.728 148.197,287.339 147.436,287.652 146.791 L 288.220 145.618 288.441 147.485 C 288.679 149.493,289.469 151.338,290.641 152.622 C 292.630 154.799,282.782 154.862,278.517 152.699 C 275.414 151.125,274.151 149.031,276.284 148.998 C 277.532 148.978,277.605 148.927,276.952 148.531 C 276.549 148.286,275.731 147.617,275.133 147.043 L 274.047 146.000 274.286 146.950 C 274.694 148.578,272.779 147.266,271.583 145.098 C 271.357 144.687,271.166 144.555,271.160 144.803 C 271.154 145.052,271.905 146.184,272.829 147.319 C 273.754 148.454,274.510 149.532,274.510 149.714 C 274.510 149.896,275.225 150.704,276.100 151.510 C 279.930 155.041,294.239 156.146,291.056 152.666 C 289.688 151.170,288.967 149.273,288.782 146.679 C 288.634 144.613,287.955 142.577,287.955 144.200 M125.698 147.360 C 125.557 148.109,125.517 148.797,125.608 148.888 C 125.699 148.980,125.889 148.441,126.030 147.692 C 126.170 146.942,126.211 146.254,126.119 146.163 C 126.028 146.072,125.838 146.610,125.698 147.360 M39.589 148.087 C 37.520 149.194,37.909 149.320,40.040 148.233 L 41.581 147.447 42.312 148.327 L 43.042 149.206 42.498 148.293 C 41.763 147.062,41.535 147.046,39.589 148.087 M124.573 152.585 C 124.431 153.537,124.390 154.393,124.483 154.487 C 124.577 154.580,124.770 153.877,124.913 152.924 C 125.056 151.972,125.096 151.116,125.003 151.022 C 124.910 150.929,124.716 151.632,124.573 152.585 M120.520 156.248 C 120.172 157.830,119.902 159.414,119.919 159.768 C 119.937 160.121,120.273 158.983,120.667 157.237 C 121.060 155.491,121.331 153.908,121.267 153.718 C 121.204 153.528,120.868 154.666,120.520 156.248 M123.830 156.570 C 122.782 162.885,122.144 167.244,122.175 167.880 C 122.218 168.736,122.494 167.284,123.621 160.282 C 124.062 157.540,124.349 155.224,124.259 155.134 C 124.169 155.044,123.976 155.690,123.830 156.570 M278.120 155.618 C 277.616 156.122,277.857 157.322,278.419 157.106 C 278.721 156.990,279.067 157.056,279.188 157.253 C 279.588 157.900,280.033 157.626,280.430 156.489 C 280.813 155.390,279.023 154.715,278.120 155.618 M288.796 156.006 C 287.996 156.160,287.893 156.294,287.806 157.288 C 287.737 158.069,289.789 157.997,290.214 157.203 C 290.594 156.493,290.412 155.691,289.894 155.793 C 289.752 155.821,289.258 155.917,288.796 156.006 M119.313 162.637 C 119.169 163.794,119.131 164.821,119.230 164.919 C 119.329 165.018,119.521 164.146,119.658 162.982 C 119.795 161.818,119.832 160.791,119.741 160.700 C 119.651 160.609,119.458 161.481,119.313 162.637 M118.879 167.694 C 118.879 168.824,118.949 169.286,119.035 168.721 C 119.121 168.156,119.121 167.232,119.035 166.667 C 118.949 166.102,118.879 166.564,118.879 167.694 M267.387 169.788 C 265.872 173.280,264.476 177.074,264.268 178.263 C 264.152 178.920,264.538 178.114,265.124 176.471 C 265.710 174.827,266.719 172.322,267.365 170.903 C 268.012 169.484,268.459 168.242,268.360 168.142 C 268.261 168.043,267.823 168.784,267.387 169.788 M121.644 174.323 C 121.520 176.737,121.539 179.377,121.685 180.191 C 121.852 181.123,121.980 179.497,122.030 175.803 C 122.125 168.852,121.956 168.204,121.644 174.323 M326.050 170.273 C 326.050 170.621,328.031 175.269,328.617 176.296 C 328.796 176.611,329.062 177.407,329.206 178.066 C 329.351 178.724,329.624 179.359,329.814 179.476 C 330.020 179.604,330.159 192.481,330.159 211.544 L 330.159 243.399 329.194 245.229 C 328.663 246.235,328.099 247.195,327.939 247.361 C 327.780 247.527,327.633 244.754,327.612 241.198 C 327.571 234.334,326.647 218.501,326.040 214.279 C 325.840 212.888,325.677 210.851,325.677 209.752 C 325.677 205.076,323.979 192.003,322.688 186.741 C 321.246 180.861,320.059 177.347,319.572 177.513 C 318.899 177.742,319.312 182.572,320.457 187.862 C 320.806 189.478,321.195 193.891,321.938 204.669 C 322.882 218.361,323.167 225.771,323.412 242.951 L 323.678 261.625 323.737 245.752 C 323.824 222.632,322.558 196.825,320.813 186.139 C 319.963 180.933,319.972 181.031,320.396 181.294 C 321.028 181.684,321.911 185.511,323.638 195.331 C 324.281 198.993,325.467 212.180,326.057 222.222 C 326.279 226.022,326.619 231.064,326.810 233.427 C 327.002 235.789,327.162 240.295,327.165 243.439 C 327.172 249.869,327.274 250.000,329.241 246.094 L 330.545 243.504 330.545 211.730 L 330.545 179.956 329.233 176.677 C 326.866 170.760,326.050 169.120,326.050 170.273 M118.532 174.416 C 118.532 176.573,118.594 177.456,118.669 176.377 C 118.745 175.299,118.745 173.534,118.669 172.456 C 118.594 171.377,118.532 172.260,118.532 174.416 M118.869 180.392 C 118.869 181.317,118.942 181.695,119.031 181.232 C 119.120 180.770,119.120 180.014,119.031 179.552 C 118.942 179.090,118.869 179.468,118.869 180.392 M263.519 180.606 C 263.381 181.153,263.341 181.673,263.429 181.761 C 263.517 181.849,263.701 181.473,263.839 180.926 C 263.976 180.378,264.017 179.859,263.929 179.770 C 263.841 179.682,263.656 180.058,263.519 180.606 M119.177 184.076 C 118.951 194.275,129.909 209.966,140.217 214.205 C 141.053 214.548,142.029 214.980,142.385 215.164 C 142.742 215.349,143.288 215.500,143.599 215.500 C 144.569 215.500,144.217 216.152,143.137 216.354 C 136.103 217.671,132.792 218.166,128.882 218.484 C 124.169 218.868,122.527 219.235,125.521 219.234 C 129.664 219.233,140.476 217.620,144.669 216.377 C 145.622 216.095,145.158 215.761,141.981 214.441 C 130.497 209.670,121.690 198.273,119.710 185.621 C 119.326 183.165,119.205 182.815,119.177 184.076 M122.157 183.023 C 122.062 184.986,125.305 194.585,126.063 194.585 C 126.166 194.585,125.829 193.755,125.315 192.740 C 124.801 191.726,123.887 188.995,123.283 186.671 C 122.679 184.348,122.172 182.706,122.157 183.023 M262.372 185.621 C 262.228 186.470,262.189 187.244,262.285 187.339 C 262.381 187.435,262.571 186.813,262.708 185.957 C 262.845 185.101,262.884 184.328,262.795 184.239 C 262.705 184.150,262.515 184.772,262.372 185.621 M261.349 191.223 C 260.991 193.175,260.613 195.612,260.507 196.639 C 260.401 197.666,260.735 196.405,261.248 193.838 C 261.761 191.270,262.140 188.833,262.090 188.422 C 262.039 188.011,261.706 189.272,261.349 191.223 M127.016 196.359 C 130.469 202.119,134.676 206.739,138.512 208.984 C 141.150 210.528,148.129 213.154,148.530 212.753 C 148.632 212.650,148.154 212.405,147.467 212.209 C 139.608 209.960,133.122 205.465,130.191 200.236 C 130.003 199.901,129.751 199.542,129.630 199.440 C 129.510 199.337,128.761 198.287,127.966 197.106 C 126.342 194.695,125.729 194.213,127.016 196.359 M259.396 203.374 C 259.250 204.734,259.215 205.932,259.318 206.034 C 259.421 206.137,259.624 205.108,259.770 203.747 C 259.915 202.387,259.951 201.189,259.848 201.087 C 259.745 200.984,259.542 202.013,259.396 203.374 M258.510 210.060 C 258.050 213.805,257.980 214.974,258.232 214.721 C 258.470 214.482,259.303 206.891,259.112 206.700 C 259.020 206.607,258.749 208.119,258.510 210.060 M252.722 213.651 C 245.709 219.167,212.077 222.486,179.103 220.915 L 173.146 220.631 173.844 221.707 C 174.228 222.298,176.344 225.228,178.546 228.217 C 183.000 234.262,185.227 237.741,186.784 241.083 C 187.358 242.316,187.835 243.100,187.845 242.827 C 187.900 241.235,184.137 235.094,178.260 227.183 C 175.904 224.012,174.072 221.321,174.189 221.205 C 174.306 221.088,177.472 221.205,181.225 221.465 C 189.951 222.071,223.430 221.401,224.755 220.594 C 224.903 220.505,226.956 220.245,229.318 220.017 C 231.681 219.790,234.454 219.444,235.481 219.249 C 236.508 219.054,239.339 218.539,241.772 218.103 C 246.472 217.263,251.541 215.398,253.139 213.922 L 254.060 213.072 253.858 218.114 C 253.660 223.079,253.764 222.613,254.503 215.219 C 254.765 212.593,254.436 212.303,252.722 213.651 M257.797 216.433 C 257.801 217.255,257.878 217.547,257.967 217.082 C 258.057 216.618,258.053 215.946,257.960 215.589 C 257.866 215.231,257.793 215.612,257.797 216.433 M257.145 223.039 C 257.001 225.568,256.944 228.142,257.020 228.758 C 257.095 229.374,257.286 227.378,257.444 224.322 C 257.603 221.266,257.659 218.693,257.570 218.603 C 257.481 218.514,257.289 220.510,257.145 223.039 M111.598 219.513 C 113.714 219.580,117.076 219.580,119.067 219.513 C 121.059 219.446,119.328 219.391,115.219 219.391 C 111.111 219.392,109.481 219.446,111.598 219.513 M253.040 229.016 C 252.897 231.750,252.840 234.659,252.913 235.481 C 252.986 236.303,253.188 234.150,253.361 230.697 C 253.534 227.245,253.592 224.335,253.488 224.232 C 253.385 224.129,253.183 226.281,253.040 229.016 M256.450 233.100 C 256.318 234.367,256.236 237.270,256.268 239.551 C 256.322 243.353,256.350 243.171,256.603 237.348 C 256.894 230.635,256.847 229.305,256.450 233.100 M252.411 248.264 C 252.328 252.316,252.371 256.308,252.507 257.134 C 252.643 257.961,252.775 254.645,252.801 249.767 C 252.827 244.888,252.784 240.896,252.705 240.896 C 252.627 240.896,252.495 244.212,252.411 248.264 M187.862 243.542 C 187.862 243.642,188.198 244.680,188.609 245.849 C 189.609 248.694,189.610 252.889,188.612 255.730 C 188.203 256.894,188.018 257.688,188.202 257.495 C 189.676 255.942,190.210 249.202,189.119 245.912 C 188.599 244.342,187.862 242.952,187.862 243.542 M255.972 249.300 C 255.973 251.354,256.036 252.147,256.111 251.061 C 256.187 249.976,256.186 248.295,256.110 247.326 C 256.033 246.358,255.971 247.246,255.972 249.300 M354.622 253.948 C 352.228 254.928,351.721 257.922,353.657 259.651 C 354.974 260.828,355.858 260.940,357.430 260.127 C 361.194 258.181,358.541 252.344,354.622 253.948 M255.348 260.452 C 255.182 264.121,255.123 267.199,255.216 267.292 C 255.471 267.547,255.914 258.580,255.773 256.022 C 255.705 254.790,255.513 256.783,255.348 260.452 M357.559 255.116 C 359.513 256.653,358.269 259.944,355.733 259.944 C 354.287 259.944,353.165 258.721,353.165 257.143 C 353.165 254.650,355.562 253.544,357.559 255.116 M185.371 261.158 C 182.953 264.438,180.766 268.104,180.766 268.875 C 180.766 269.133,181.370 268.195,182.110 266.791 C 182.849 265.387,184.330 263.063,185.400 261.625 C 187.478 258.833,187.984 258.077,187.774 258.077 C 187.701 258.077,186.620 259.463,185.371 261.158 M252.180 263.866 C 252.133 266.536,252.020 269.897,251.927 271.335 L 251.759 273.950 252.126 271.335 C 252.328 269.897,252.442 266.536,252.379 263.866 L 252.264 259.010 252.180 263.866 M323.246 272.456 C 323.287 277.386,323.456 281.823,323.623 282.317 C 323.919 283.193,323.887 283.209,322.281 283.000 L 320.635 282.786 322.129 283.267 C 323.952 283.855,324.331 283.679,323.994 282.403 C 323.852 281.862,323.609 277.386,323.454 272.456 L 323.172 263.492 323.246 272.456 M248.859 266.496 C 247.118 267.956,244.084 272.017,243.522 273.641 C 243.110 274.828,242.918 275.086,245.800 270.596 C 247.283 268.285,249.234 266.293,250.015 266.293 C 250.139 266.293,249.505 267.764,248.606 269.561 C 247.707 271.359,246.848 273.249,246.697 273.763 C 246.547 274.276,247.446 272.680,248.696 270.215 C 251.616 264.456,251.629 264.174,248.859 266.496 M254.831 270.215 C 254.833 271.447,254.903 271.906,254.986 271.235 C 255.069 270.564,255.067 269.555,254.982 268.994 C 254.897 268.433,254.829 268.982,254.831 270.215 M180.271 269.935 C 180.013 270.374,179.535 272.851,179.749 272.642 C 179.994 272.403,180.750 269.655,180.571 269.655 C 180.497 269.655,180.362 269.781,180.271 269.935 M204.494 272.352 C 204.697 272.881,207.656 274.759,207.656 274.359 C 207.656 274.250,207.194 273.909,206.629 273.603 C 205.258 272.859,206.281 272.848,209.324 273.574 C 210.550 273.867,213.407 274.187,215.673 274.285 L 219.795 274.463 215.686 274.100 C 212.184 273.791,208.888 273.152,205.130 272.053 C 204.482 271.863,204.333 271.933,204.494 272.352 M254.207 275.163 C 254.073 276.550,253.876 278.105,253.769 278.618 L 253.574 279.552 253.958 278.677 C 254.373 277.735,254.944 272.642,254.636 272.642 C 254.533 272.642,254.340 273.777,254.207 275.163 M179.116 274.619 C 178.785 276.828,178.822 283.810,179.172 285.051 C 179.333 285.623,179.458 283.210,179.458 279.542 C 179.458 272.341,179.458 272.338,179.116 274.619 M251.022 276.979 C 250.761 278.532,250.620 279.876,250.710 279.966 C 250.799 280.055,251.089 278.860,251.354 277.311 C 251.619 275.761,251.759 274.417,251.666 274.324 C 251.573 274.231,251.283 275.425,251.022 276.979 M208.030 274.629 C 208.030 275.866,217.855 278.245,222.965 278.245 C 225.227 278.245,227.077 278.335,227.077 278.446 C 227.077 278.557,226.723 279.355,226.289 280.220 C 225.389 282.017,225.817 281.706,227.022 279.687 C 228.046 277.972,227.840 277.871,223.296 277.871 C 218.846 277.871,213.783 276.771,208.683 274.696 C 208.324 274.550,208.030 274.520,208.030 274.629 M224.374 274.774 C 224.839 274.863,225.511 274.860,225.868 274.766 C 226.225 274.673,225.845 274.600,225.023 274.604 C 224.202 274.608,223.910 274.685,224.374 274.774 M245.053 278.769 C 244.821 279.690,244.645 280.747,244.662 281.118 C 244.679 281.489,244.934 280.800,245.227 279.587 C 245.520 278.374,245.696 277.318,245.617 277.239 C 245.539 277.160,245.284 277.849,245.053 278.769 M325.614 277.685 C 325.511 277.788,325.549 278.838,325.698 280.019 C 326.431 285.822,326.429 285.999,325.655 286.202 C 324.861 286.409,324.575 289.185,325.301 289.635 C 326.185 290.181,326.529 291.400,325.728 291.146 C 325.118 290.952,324.819 291.185,324.218 292.324 L 323.469 293.744 323.453 290.335 C 323.433 286.303,323.401 286.263,319.831 285.709 C 317.337 285.322,317.110 285.350,315.441 286.237 C 313.755 287.134,311.858 287.046,311.858 286.071 C 311.858 285.635,314.700 283.195,315.979 282.533 C 316.626 282.198,317.060 281.828,316.942 281.711 C 316.637 281.405,313.883 283.296,311.816 285.230 L 310.054 286.878 306.261 283.236 L 302.467 279.595 299.413 281.213 C 297.733 282.102,295.022 283.759,293.388 284.894 L 290.417 286.958 288.159 285.748 C 286.917 285.082,284.743 283.668,283.328 282.605 C 281.912 281.542,280.533 280.510,280.263 280.311 C 279.924 280.062,279.270 280.212,278.167 280.792 C 276.620 281.605,276.945 281.584,279.079 280.734 C 279.987 280.371,280.233 280.454,281.319 281.488 C 282.726 282.827,287.678 286.101,289.337 286.788 C 290.411 287.233,290.636 287.143,294.165 284.853 C 296.201 283.532,298.937 281.911,300.244 281.251 L 302.622 280.050 305.898 283.323 C 309.424 286.845,309.337 286.609,307.870 288.664 C 307.680 288.930,304.963 286.885,303.460 285.346 C 301.651 283.494,302.087 283.446,297.975 285.940 C 294.577 288.001,290.867 289.823,290.070 289.823 C 289.291 289.823,283.647 286.711,281.535 285.117 L 279.410 283.514 274.999 285.764 C 272.573 287.002,270.028 288.360,269.344 288.781 L 268.099 289.548 266.169 288.670 C 265.108 288.187,263.153 287.145,261.827 286.355 C 257.776 283.943,256.471 286.658,258.266 293.759 C 260.830 303.901,265.590 305.193,297.852 304.503 C 299.701 304.464,304.407 304.459,308.310 304.492 C 320.759 304.598,325.220 303.626,328.951 299.991 L 330.906 298.088 330.906 289.607 L 330.906 281.126 329.092 279.312 C 327.491 277.711,326.195 277.105,325.614 277.685 M250.073 281.446 C 249.936 281.993,249.896 282.513,249.984 282.601 C 250.072 282.689,250.256 282.313,250.393 281.766 C 250.531 281.219,250.571 280.699,250.483 280.611 C 250.395 280.523,250.211 280.899,250.073 281.446 M253.103 281.002 C 252.963 281.368,252.858 281.947,252.871 282.290 C 252.887 282.703,253.017 282.609,253.256 282.011 C 253.454 281.516,253.558 280.936,253.487 280.723 C 253.416 280.511,253.243 280.636,253.103 281.002 M259.570 281.495 C 259.879 281.607,260.551 282.083,261.064 282.553 C 264.462 285.661,269.655 287.708,269.655 285.940 C 269.655 285.752,269.360 285.863,269.001 286.185 C 268.273 286.839,264.865 285.144,261.562 282.485 C 260.706 281.796,259.781 281.246,259.508 281.262 C 259.156 281.283,259.174 281.351,259.570 281.495 M274.136 282.741 C 273.007 283.354,271.578 284.272,270.962 284.780 C 270.345 285.288,271.258 284.864,272.989 283.838 C 275.993 282.056,276.692 281.594,276.346 281.616 C 276.261 281.621,275.266 282.128,274.136 282.741 M318.394 282.180 C 319.010 282.462,319.767 282.688,320.075 282.681 C 320.383 282.675,320.047 282.443,319.328 282.166 C 317.623 281.510,316.952 281.519,318.394 282.180 M224.459 283.482 C 223.705 284.959,223.387 289.207,223.802 292.243 C 223.928 293.169,222.888 293.300,209.061 294.100 C 197.825 294.750,186.511 294.856,185.112 294.324 C 184.119 293.946,181.549 290.431,180.374 287.843 C 179.982 286.980,179.658 286.491,179.653 286.756 C 179.627 288.309,183.856 294.596,185.145 294.919 C 187.320 295.465,216.801 294.450,222.382 293.637 L 224.222 293.369 224.249 288.872 C 224.272 285.174,224.398 284.190,224.960 283.332 C 225.336 282.758,225.558 282.202,225.453 282.098 C 225.348 281.993,224.901 282.616,224.459 283.482 M255.089 283.287 C 254.575 283.580,253.819 283.840,253.408 283.863 C 252.997 283.887,252.870 283.990,253.125 284.093 C 253.680 284.317,256.110 283.563,256.413 283.073 C 256.718 282.579,256.173 282.667,255.089 283.287 M244.657 284.998 C 244.672 286.111,244.820 287.358,244.986 287.768 C 245.159 288.196,245.206 287.397,245.097 285.901 C 244.865 282.726,244.621 282.227,244.657 284.998 M248.646 285.818 C 247.729 288.043,247.796 288.338,249.206 288.273 C 250.336 288.221,250.349 288.206,249.393 288.061 C 248.209 287.882,248.146 287.596,248.949 286.044 C 249.270 285.424,249.480 284.763,249.416 284.575 C 249.352 284.387,249.006 284.947,248.646 285.818 M252.288 287.411 C 250.848 287.920,251.934 287.873,253.691 287.351 C 254.133 287.220,254.466 287.439,254.714 288.023 L 255.081 288.889 254.992 287.959 C 254.884 286.838,254.265 286.713,252.288 287.411 M312.418 287.582 C 312.545 287.787,313.041 287.955,313.521 287.955 C 316.174 287.955,314.215 292.223,311.349 292.688 C 309.326 293.016,306.628 290.203,308.497 289.714 C 308.912 289.606,309.244 289.205,309.244 288.812 C 309.244 287.457,311.743 286.488,312.418 287.582 M245.395 288.972 C 245.370 289.635,247.231 293.454,247.814 293.938 C 248.329 294.365,254.316 295.108,254.809 294.806 C 254.963 294.711,255.055 293.341,255.014 291.761 L 254.940 288.889 254.810 291.643 L 254.681 294.398 251.617 294.131 C 248.015 293.818,247.813 293.686,246.453 290.756 C 245.881 289.524,245.405 288.721,245.395 288.972 M309.217 294.915 C 310.243 296.220,310.194 297.496,309.074 298.616 C 307.241 300.449,304.388 299.293,304.388 296.717 C 304.388 294.055,307.598 292.857,309.217 294.915 M223.358 294.714 C 220.184 295.996,194.018 296.867,186.690 295.934 C 183.607 295.541,181.945 298.941,184.601 300.208 C 188.604 302.117,220.278 301.325,223.884 299.225 C 226.804 297.525,226.336 293.511,223.358 294.714 M246.498 296.172 C 244.558 298.897,246.204 300.152,252.288 300.588 C 257.618 300.970,257.598 300.980,256.422 298.321 L 255.497 296.230 253.332 295.996 C 252.141 295.868,250.462 295.603,249.601 295.407 C 247.420 294.912,247.391 294.919,246.498 296.172 M391.588 295.938 C 389.617 296.811,389.059 298.922,390.273 300.913 C 391.703 303.259,395.375 302.792,396.245 300.154 C 397.203 297.252,394.383 294.699,391.588 295.938 M395.238 297.350 C 396.106 298.375,396.064 299.587,395.118 300.790 C 393.076 303.385,389.118 300.553,390.687 297.620 C 391.530 296.045,394.010 295.898,395.238 297.350 " stroke="none" fill="#e76c85" fill-rule="evenodd"></path><path id="path3" d="M193.226 38.441 C 191.228 39.779,186.171 44.643,182.907 48.366 C 181.850 49.572,178.187 54.611,175.026 59.209 C 174.555 59.894,173.838 60.011,167.644 60.419 C 161.223 60.842,151.954 62.134,148.228 63.125 C 139.706 65.392,132.110 76.060,130.149 88.515 C 130.003 89.440,129.818 90.532,129.738 90.943 C 129.658 91.354,129.420 93.287,129.208 95.238 C 128.996 97.190,128.737 99.031,128.633 99.330 C 128.528 99.628,128.283 104.480,128.087 110.111 C 127.755 119.669,127.582 121.715,126.610 127.544 C 126.405 128.777,125.973 131.550,125.651 133.707 C 125.029 137.873,122.978 147.806,122.620 148.384 C 122.218 149.035,115.268 147.680,110.643 146.048 C 105.066 144.080,100.417 139.061,97.655 132.025 C 95.833 127.385,95.908 126.241,98.215 123.467 C 103.126 117.562,103.000 111.253,97.869 106.122 C 93.908 102.160,90.529 101.478,86.507 103.828 C 83.313 105.695,83.273 105.690,85.077 103.640 C 94.369 93.084,81.722 75.971,66.904 79.050 C 61.273 80.220,56.100 83.762,53.005 88.567 C 52.392 89.520,51.251 90.722,50.472 91.238 C 41.288 97.316,30.368 113.857,29.330 123.265 C 28.931 126.886,28.449 128.791,27.652 129.903 C 25.828 132.448,25.189 145.429,26.500 153.315 C 29.359 170.510,32.782 177.664,45.217 192.440 C 53.356 202.110,65.574 211.017,76.751 215.428 C 93.734 222.130,98.811 223.090,117.460 223.127 C 132.952 223.158,139.544 222.249,150.204 218.610 L 153.068 217.632 157.267 218.632 C 159.576 219.182,162.489 219.730,163.739 219.850 L 166.013 220.068 170.258 224.413 C 186.396 240.934,189.265 250.392,181.451 261.318 C 175.392 269.790,173.753 281.059,177.425 288.993 C 178.030 290.299,178.525 291.444,178.525 291.535 C 178.525 291.627,179.113 292.588,179.832 293.671 L 181.140 295.640 180.369 297.120 C 179.006 299.736,179.743 302.131,182.231 303.171 C 186.680 305.031,217.182 305.076,224.188 303.233 C 228.685 302.050,230.010 297.700,227.610 291.997 C 226.478 289.309,226.663 287.245,228.327 283.960 C 229.447 281.750,233.209 278.081,234.032 278.397 C 234.349 278.519,236.195 278.618,238.135 278.618 L 241.661 278.618 241.431 281.513 C 241.118 285.448,241.716 288.638,243.384 291.923 L 244.776 294.665 243.906 296.213 C 241.075 301.249,243.815 303.237,254.715 304.057 C 259.112 304.388,260.455 304.629,261.852 305.337 C 264.945 306.903,267.958 307.464,273.763 307.555 C 276.741 307.602,280.206 307.851,281.462 308.107 C 283.110 308.444,285.965 308.507,291.732 308.333 C 296.125 308.201,300.560 308.102,301.587 308.114 C 313.200 308.246,314.793 308.139,323.996 306.608 C 329.034 305.770,330.906 304.198,330.906 300.807 C 330.906 299.490,330.854 298.413,330.791 298.413 C 330.728 298.413,329.846 299.193,328.830 300.147 C 325.118 303.635,320.574 304.597,308.310 304.492 C 304.407 304.459,299.701 304.464,297.852 304.503 C 265.590 305.193,260.830 303.901,258.266 293.759 C 256.471 286.658,257.776 283.943,261.827 286.355 C 263.153 287.145,265.108 288.187,266.169 288.670 L 268.099 289.548 269.344 288.781 C 270.028 288.360,272.573 287.002,274.999 285.764 L 279.410 283.514 281.535 285.117 C 283.647 286.711,289.291 289.823,290.070 289.823 C 290.867 289.823,294.577 288.001,297.975 285.940 C 302.126 283.423,301.409 283.428,304.075 285.897 C 307.228 288.816,307.570 288.953,308.260 287.570 L 308.823 286.441 305.828 283.556 C 304.181 281.970,302.685 280.618,302.503 280.552 C 302.019 280.376,297.256 282.951,293.851 285.230 C 292.226 286.318,290.612 287.208,290.266 287.208 C 289.408 287.207,283.815 283.806,281.600 281.938 L 279.799 280.420 276.688 281.989 C 273.338 283.677,270.002 285.779,269.270 286.661 C 268.503 287.585,264.342 285.531,261.090 282.625 L 259.933 281.590 256.755 283.128 C 252.388 285.242,252.012 285.033,253.045 281.067 C 254.004 277.384,254.655 269.892,255.263 255.546 C 255.583 248.002,256.023 239.057,256.242 235.668 C 256.460 232.278,256.771 226.900,256.932 223.716 C 257.234 217.774,257.478 215.582,259.098 204.295 C 261.024 190.881,261.840 186.236,263.133 181.328 C 265.032 174.122,268.052 167.087,271.831 161.069 C 274.143 157.385,274.329 156.473,272.257 158.970 C 268.968 162.934,264.969 170.594,262.796 177.090 C 261.283 181.615,260.233 185.596,259.071 191.223 C 258.752 192.764,258.137 195.621,257.703 197.572 C 257.269 199.524,256.748 202.112,256.544 203.325 C 255.432 209.957,248.589 214.322,236.601 216.047 C 234.342 216.372,231.401 216.803,230.065 217.005 C 217.364 218.923,200.578 218.973,175.537 217.165 C 147.007 215.105,136.420 211.099,128.696 199.440 C 120.503 187.074,119.528 176.520,124.398 152.941 C 124.822 150.887,125.307 148.534,125.476 147.712 C 125.644 146.891,126.401 143.361,127.158 139.869 C 127.915 136.377,128.689 132.344,128.877 130.906 C 129.838 123.549,130.745 113.398,131.275 104.051 C 131.964 91.898,133.107 85.399,135.549 79.739 C 135.727 79.328,136.164 78.319,136.521 77.498 C 138.929 71.960,143.331 67.769,148.273 66.307 C 149.402 65.973,150.868 65.530,151.530 65.322 C 153.822 64.604,165.289 63.099,170.279 62.862 L 175.292 62.624 176.415 61.345 C 177.033 60.642,178.558 58.587,179.805 56.780 C 185.182 48.984,195.046 38.469,196.980 38.469 C 199.532 38.469,211.457 53.002,216.174 61.860 C 216.545 62.556,217.050 62.687,220.250 62.915 C 223.615 63.154,227.897 63.588,236.601 64.570 C 238.450 64.778,242.652 65.225,245.938 65.563 C 269.849 68.021,272.530 70.483,278.792 95.728 C 281.306 105.863,281.317 105.478,278.462 106.635 C 274.362 108.296,271.099 112.789,270.072 118.190 C 269.810 119.569,269.313 120.774,268.764 121.364 C 266.562 123.730,266.571 127.749,268.784 130.375 C 269.057 130.699,269.281 131.084,269.281 131.230 C 269.281 131.377,269.648 131.993,270.097 132.600 L 270.914 133.704 270.097 135.674 C 268.859 138.661,268.960 142.386,270.361 145.394 C 270.955 146.669,271.686 148.301,271.984 149.020 C 272.548 150.380,274.896 153.010,276.190 153.731 C 276.806 154.075,276.915 154.456,276.808 155.905 C 276.590 158.871,279.598 159.900,281.793 157.610 C 283.096 156.249,286.316 155.942,286.687 157.143 C 287.129 158.575,287.528 158.922,288.862 159.035 C 290.521 159.175,291.778 158.446,292.395 156.985 C 292.707 156.248,293.509 155.612,295.051 154.881 C 299.447 152.796,304.028 145.713,301.587 144.776 C 301.223 144.636,301.027 144.056,301.027 143.119 C 301.027 142.321,300.611 140.856,300.095 139.839 C 299.001 137.683,298.962 137.324,299.749 136.670 C 300.073 136.401,300.748 135.372,301.249 134.384 C 301.750 133.395,302.293 132.586,302.456 132.586 C 303.299 132.586,312.587 144.766,316.127 150.514 C 317.329 152.465,318.689 154.657,319.148 155.385 C 321.654 159.355,328.699 174.056,329.925 177.871 C 330.450 179.504,330.906 178.336,330.906 175.360 C 330.906 167.705,319.381 147.014,307.602 133.523 C 306.348 132.086,304.909 130.439,304.403 129.863 C 303.568 128.909,303.479 128.470,303.421 125.005 C 303.323 119.156,301.493 114.417,298.064 111.135 C 296.168 109.319,296.735 108.699,300.304 108.689 C 301.726 108.684,302.189 108.874,303.105 109.838 C 307.652 114.624,313.352 114.506,313.352 109.627 C 313.352 101.089,299.580 97.924,293.184 104.992 L 291.877 106.436 290.009 105.908 C 288.982 105.617,287.335 105.271,286.349 105.138 C 284.244 104.855,284.432 105.216,282.742 98.226 C 278.356 80.077,273.465 70.308,267.054 66.891 C 261.660 64.016,244.360 61.132,226.199 60.079 L 218.377 59.626 217.779 58.521 C 216.882 56.866,211.802 49.275,210.732 47.993 C 202.188 37.743,197.825 35.362,193.226 38.441 M76.725 82.723 C 81.604 85.048,86.459 91.318,86.416 95.238 C 86.356 100.773,80.245 107.190,75.033 107.190 C 72.042 107.190,72.078 107.129,73.709 109.380 C 75.911 112.422,76.266 113.914,76.127 119.553 L 76.004 124.556 74.573 126.758 C 71.494 131.498,67.720 134.703,65.734 134.267 C 64.842 134.071,64.568 134.161,64.398 134.704 C 63.116 138.797,61.647 140.610,57.534 143.176 C 52.293 146.446,48.007 144.583,46.339 138.310 C 45.985 136.977,45.750 136.716,44.718 136.508 C 44.054 136.375,43.007 136.045,42.390 135.775 C 39.678 134.587,39.071 134.671,40.143 136.088 C 40.460 136.507,40.915 136.696,41.273 136.558 C 42.650 136.030,44.434 137.325,45.429 139.576 C 47.164 143.500,50.366 146.354,53.068 146.388 C 56.311 146.429,62.573 141.746,64.526 137.819 C 65.372 136.120,65.752 135.729,66.747 135.535 C 69.434 135.010,73.372 131.066,75.464 126.806 C 76.491 124.716,76.808 123.483,77.583 118.581 C 77.882 116.691,77.396 112.927,76.576 110.768 C 76.100 109.517,76.258 109.305,78.094 108.718 C 80.686 107.891,81.545 109.073,80.119 111.506 C 78.242 114.709,79.302 120.156,82.265 122.537 C 84.757 124.540,87.293 126.145,88.691 126.607 C 90.388 127.167,90.379 127.875,88.646 130.198 C 85.074 134.989,83.415 136.136,79.552 136.485 C 74.342 136.955,74.406 136.912,72.127 141.539 C 68.784 148.329,69.212 147.895,65.832 147.922 C 59.097 147.976,58.079 148.233,53.692 150.986 C 51.489 152.370,49.547 153.501,49.377 153.501 C 48.987 153.501,44.188 147.748,43.224 146.125 C 42.362 144.673,42.394 144.676,39.601 145.811 C 35.120 147.632,35.411 147.743,33.215 143.367 L 31.289 139.530 31.103 134.284 C 30.697 122.862,32.218 118.147,40.265 105.882 C 45.679 97.631,59.070 84.650,64.613 82.281 C 67.653 80.982,73.521 81.196,76.725 82.723 M64.609 101.118 C 64.915 101.238,66.167 102.065,67.391 102.956 C 69.790 104.701,70.589 105.021,69.568 103.828 C 69.216 103.417,68.714 103.081,68.451 103.081 C 68.189 103.081,67.974 102.944,67.974 102.777 C 67.974 102.374,65.214 100.832,64.562 100.870 C 64.176 100.892,64.187 100.952,64.609 101.118 M306.220 104.029 C 308.490 105.047,311.111 107.478,311.111 108.564 C 311.111 109.380,310.595 109.098,309.804 107.850 C 308.370 105.588,302.715 105.435,296.737 107.498 C 292.698 108.891,292.062 108.599,294.345 106.400 C 298.532 102.367,301.289 101.816,306.220 104.029 M92.892 106.447 C 100.775 110.968,101.093 119.375,93.557 124.046 C 89.658 126.463,81.338 121.722,80.540 116.627 C 79.975 113.024,80.851 111.333,85.257 107.515 C 88.347 104.837,89.745 104.642,92.892 106.447 M288.889 108.163 C 296.171 109.337,300.264 115.273,300.322 124.743 C 300.380 134.099,297.444 138.024,289.449 139.278 L 287.768 139.542 288.792 140.044 C 289.631 140.456,290.407 140.465,293.087 140.095 C 294.886 139.847,296.677 139.611,297.066 139.570 C 298.408 139.429,299.221 144.156,298.462 147.691 C 298.202 148.901,297.486 149.061,297.468 147.914 C 297.431 145.556,296.635 147.566,296.595 150.115 C 296.588 150.615,296.321 151.169,296.003 151.347 C 295.685 151.525,295.425 152.083,295.425 152.586 C 295.425 153.687,295.214 153.711,293.694 152.785 C 291.549 151.477,290.581 149.690,289.705 145.419 C 289.428 144.072,289.950 143.632,291.276 144.094 C 292.905 144.662,292.788 143.900,291.142 143.212 C 289.128 142.370,289.075 142.431,289.084 145.565 C 289.093 148.771,289.862 151.014,291.460 152.495 C 294.871 155.656,281.770 155.799,277.091 152.651 C 270.903 148.489,268.394 138.227,272.724 134.794 C 273.463 134.208,273.458 134.185,272.304 132.870 C 268.767 128.842,267.791 124.726,269.655 121.698 C 270.271 120.696,270.775 119.557,270.775 119.166 C 270.775 117.009,274.272 111.968,277.152 109.971 C 280.340 107.762,283.441 107.284,288.889 108.163 M307.245 108.590 C 307.396 109.590,307.116 109.649,306.192 108.812 C 305.277 107.985,305.329 107.484,306.314 107.630 C 306.814 107.705,307.167 108.068,307.245 108.590 M310.247 109.830 C 311.276 110.222,311.225 111.180,310.185 110.990 C 308.178 110.625,307.699 110.229,308.397 109.515 C 308.760 109.143,309.117 108.983,309.189 109.159 C 309.262 109.335,309.738 109.637,310.247 109.830 M145.803 112.383 C 140.419 115.666,140.782 127.164,146.343 129.488 C 151.066 131.461,155.278 124.190,153.326 117.431 C 151.956 112.686,148.790 110.561,145.803 112.383 M209.835 113.013 C 204.800 116.595,206.110 128.784,211.642 129.822 C 214.376 130.335,216.390 128.827,217.720 125.271 C 220.575 117.641,215.161 109.224,209.835 113.013 M50.970 115.015 C 51.365 115.655,56.523 119.138,56.742 118.914 C 56.993 118.657,54.943 116.844,52.949 115.558 C 51.523 114.639,50.576 114.379,50.970 115.015 M272.903 119.176 C 272.224 120.743,272.339 122.129,273.147 122.129 C 273.832 122.129,274.883 120.114,274.883 118.803 C 274.883 117.052,273.729 117.269,272.903 119.176 M276.995 123.156 C 276.900 123.310,277.562 123.377,278.467 123.305 C 282.801 122.960,284.555 129.250,280.434 130.359 C 278.415 130.903,277.010 130.323,275.587 128.359 C 274.485 126.837,274.088 124.370,274.946 124.370 C 275.185 124.370,275.273 124.262,275.141 124.130 C 274.073 123.061,273.460 125.796,274.312 127.834 C 276.772 133.722,285.052 132.751,283.628 126.742 C 283.022 124.187,278.027 121.486,276.995 123.156 M290.663 126.125 C 290.406 126.221,290.196 126.532,290.196 126.815 C 290.196 127.099,289.860 127.511,289.449 127.731 C 288.496 128.241,288.377 130.888,289.292 131.239 C 290.181 131.580,292.063 129.520,292.063 128.205 C 292.063 126.952,291.336 125.872,290.663 126.125 M299.429 126.735 C 299.013 127.793,299.080 128.333,299.568 127.845 C 299.793 127.621,299.914 127.125,299.837 126.744 C 299.703 126.075,299.688 126.075,299.429 126.735 M94.734 130.313 C 97.526 141.846,103.876 148.017,116.078 151.055 C 119.201 151.833,121.755 152.621,121.755 152.808 C 121.755 152.995,121.241 155.706,120.613 158.833 C 115.303 185.251,123.350 206.269,141.737 214.014 C 146.871 216.176,146.786 216.369,140.099 217.732 C 126.529 220.497,108.043 220.502,94.510 217.744 C 64.806 211.691,37.637 187.418,30.616 160.662 C 28.444 152.388,27.167 135.201,28.724 135.201 C 28.902 135.201,29.163 135.810,29.303 136.555 C 30.312 141.935,33.487 149.770,34.655 149.762 C 35.006 149.760,36.637 149.171,38.278 148.455 C 41.907 146.871,42.036 146.866,42.770 148.284 C 44.546 151.720,48.054 156.489,48.804 156.489 C 49.475 156.489,53.347 153.897,55.876 151.756 L 57.784 150.140 63.554 150.140 C 70.570 150.140,70.044 150.482,72.457 144.351 C 73.509 141.681,74.523 139.118,74.711 138.655 C 75.045 137.838,75.204 137.815,80.473 137.815 L 85.892 137.815 86.830 136.329 C 87.346 135.511,87.768 134.708,87.768 134.545 C 87.768 134.381,88.525 133.032,89.449 131.547 C 90.373 130.062,91.130 128.689,91.130 128.497 C 91.130 128.018,92.660 126.983,93.360 126.989 C 93.768 126.992,94.160 127.941,94.734 130.313 M298.673 128.758 C 298.121 129.743,298.020 131.199,298.535 130.773 C 299.136 130.274,299.602 128.478,299.130 128.478 C 298.965 128.478,298.760 128.604,298.673 128.758 M293.184 144.808 C 293.184 145.020,293.427 145.395,293.725 145.642 C 294.022 145.889,294.328 146.876,294.405 147.836 L 294.543 149.580 294.611 147.677 C 294.663 146.192,294.514 145.625,293.931 145.098 C 293.520 144.726,293.184 144.596,293.184 144.808 M300.645 146.685 C 300.641 146.839,300.305 147.386,299.900 147.899 L 299.162 148.833 299.571 147.619 C 299.929 146.555,300.668 145.913,300.645 146.685 M280.430 156.489 C 280.033 157.626,279.588 157.900,279.188 157.253 C 279.067 157.056,278.721 156.990,278.419 157.106 C 277.857 157.322,277.616 156.122,278.120 155.618 C 279.023 154.715,280.813 155.390,280.430 156.489 M290.378 156.108 C 290.845 156.863,289.856 157.936,288.796 157.823 C 287.403 157.674,287.403 156.274,288.796 156.006 C 289.258 155.917,289.752 155.821,289.894 155.793 C 290.036 155.765,290.254 155.907,290.378 156.108 M321.385 186.555 C 323.535 204.705,324.330 224.056,323.950 248.926 C 323.566 273.989,323.589 279.842,324.077 281.606 C 324.780 284.147,324.231 284.327,320.078 282.914 L 317.336 281.982 315.811 282.895 C 312.661 284.782,311.938 285.582,312.792 286.237 C 313.795 287.008,314.343 286.976,315.827 286.059 C 316.986 285.342,317.290 285.315,319.772 285.700 C 323.408 286.264,323.433 286.296,323.453 290.335 L 323.469 293.744 324.218 292.324 C 324.819 291.185,325.118 290.952,325.728 291.146 C 326.529 291.400,326.185 290.181,325.301 289.635 C 324.575 289.185,324.861 286.409,325.655 286.202 C 326.429 285.999,326.431 285.822,325.698 280.019 C 325.549 278.838,325.511 277.788,325.614 277.685 C 326.143 277.156,327.356 277.653,328.808 278.992 C 330.852 280.875,330.906 280.867,330.906 278.651 C 330.906 276.612,329.897 275.408,327.265 274.308 L 325.956 273.761 326.188 271.801 C 326.315 270.723,326.525 267.068,326.654 263.679 L 326.889 257.516 328.804 254.366 C 330.642 251.342,330.724 251.090,330.851 248.110 C 331.014 244.258,330.466 244.021,328.864 247.252 C 327.064 250.883,326.912 250.453,326.649 240.990 C 326.030 218.714,323.827 195.131,321.548 186.368 L 321.208 185.061 321.385 186.555 M254.755 216.093 C 253.616 226.509,252.848 244.257,252.848 260.185 C 252.848 271.621,251.207 282.224,248.718 286.875 C 248.248 287.752,248.729 287.764,253.501 286.993 L 255.089 286.736 255.151 290.147 C 255.185 292.023,255.227 293.852,255.244 294.211 C 255.280 294.953,249.352 295.032,248.000 294.308 C 246.556 293.536,244.682 288.507,244.379 284.594 C 244.173 281.936,245.224 275.910,246.106 274.697 C 246.255 274.491,246.771 273.231,247.253 271.895 C 247.735 270.560,248.527 268.829,249.012 268.047 L 249.894 266.627 248.921 267.264 C 247.910 267.927,245.180 271.560,244.108 273.669 L 243.492 274.883 230.523 274.876 C 218.404 274.869,210.229 274.389,207.835 273.544 C 207.177 273.312,207.158 273.345,207.656 273.847 C 209.037 275.238,217.923 277.430,223.436 277.740 C 228.365 278.016,228.282 277.936,226.576 280.810 C 224.350 284.561,223.640 288.586,224.577 292.142 C 224.781 292.918,224.684 293.239,224.160 293.520 C 223.047 294.115,206.785 295.030,195.385 295.138 L 184.794 295.238 183.344 293.607 C 176.101 285.459,176.904 272.273,185.342 260.828 C 192.275 251.423,190.570 244.754,176.299 225.442 C 172.277 220.000,172.177 220.227,178.431 220.605 C 193.151 221.494,222.308 220.552,233.053 218.840 C 244.609 216.999,248.717 215.874,252.269 213.575 C 255.029 211.790,255.206 211.969,254.755 216.093 M225.673 295.505 C 226.116 296.834,225.387 298.350,223.884 299.225 C 220.278 301.325,188.604 302.117,184.601 300.208 C 181.945 298.941,183.607 295.541,186.690 295.934 C 194.018 296.867,220.184 295.996,223.358 294.714 C 224.708 294.169,225.294 294.369,225.673 295.505 M249.601 295.407 C 250.462 295.603,252.141 295.868,253.332 295.996 L 255.497 296.230 256.422 298.321 C 257.598 300.980,257.618 300.970,252.288 300.588 C 246.204 300.152,244.558 298.897,246.498 296.172 C 247.391 294.919,247.420 294.912,249.601 295.407 " stroke="none" fill="#232225" fill-rule="evenodd"></path><path id="path4" d="M297.629 103.753 C 294.477 105.785,291.611 109.379,293.838 108.508 C 299.490 106.295,304.913 105.600,308.870 106.580 L 310.177 106.903 309.307 105.964 C 306.660 103.105,300.456 101.931,297.629 103.753 M280.808 108.148 C 278.701 108.797,275.846 110.713,274.623 112.300 L 273.719 113.472 275.970 113.268 C 279.252 112.970,281.606 115.193,281.606 118.590 C 281.606 119.864,282.074 119.978,283.902 119.148 C 287.093 117.700,291.469 118.471,294.048 120.936 C 298.286 124.986,297.224 134.539,292.164 137.875 C 291.595 138.250,291.340 138.558,291.597 138.560 C 292.397 138.564,294.790 135.862,296.566 132.949 C 303.352 121.815,299.014 109.153,288.056 108.114 C 286.871 108.002,285.145 107.843,284.220 107.762 C 283.296 107.681,281.760 107.855,280.808 108.148 M290.076 144.036 C 289.687 144.424,289.774 146.336,290.259 148.043 C 291.228 151.461,295.425 155.005,295.425 152.405 C 295.425 152.031,295.677 151.516,295.985 151.261 C 296.709 150.660,296.700 149.406,295.964 148.356 C 295.188 147.249,294.760 147.309,294.572 148.553 C 294.457 149.313,294.402 149.186,294.360 148.066 C 294.284 145.998,291.104 143.007,290.076 144.036 " stroke="none" fill="#24cb4b" fill-rule="evenodd"></path></g></svg>