<?xml version="1.0" encoding="UTF-8" standalone="no"?>
<svg
   xmlns:dc="http://purl.org/dc/elements/1.1/"
   xmlns:cc="http://creativecommons.org/ns#"
   xmlns:rdf="http://www.w3.org/1999/02/22-rdf-syntax-ns#"
   xmlns:svg="http://www.w3.org/2000/svg"
   xmlns="http://www.w3.org/2000/svg"
   xmlns:sodipodi="http://sodipodi.sourceforge.net/DTD/sodipodi-0.dtd"
   xmlns:inkscape="http://www.inkscape.org/namespaces/inkscape"
   width="16"
   height="16"
   viewBox="0 0 16 16"
   fill="none"
   version="1.1"
   id="svg4"
   sodipodi:docname="spartav2.svg"
   inkscape:version="0.92.4 (5da689c313, 2019-01-14)">
  <metadata
     id="metadata10">
    <rdf:RDF>
      <cc:Work
         rdf:about="">
        <dc:format>image/svg+xml</dc:format>
        <dc:type
           rdf:resource="http://purl.org/dc/dcmitype/StillImage" />
        <dc:title />
      </cc:Work>
    </rdf:RDF>
  </metadata>
  <defs
     id="defs8" />
  <sodipodi:namedview
     pagecolor="#ffffff"
     bordercolor="#666666"
     borderopacity="1"
     objecttolerance="10"
     gridtolerance="10"
     guidetolerance="10"
     inkscape:pageopacity="0"
     inkscape:pageshadow="2"
     inkscape:window-width="1616"
     inkscape:window-height="1066"
     id="namedview6"
     showgrid="false"
     inkscape:zoom="29.5"
     inkscape:cx="8.5517301"
     inkscape:cy="8.30642"
     inkscape:window-x="1565"
     inkscape:window-y="491"
     inkscape:window-maximized="0"
     inkscape:current-layer="svg4" />
  <ellipse
     style="fill:#000000;fill-opacity:1;stroke:#ffffff;stroke-opacity:0.03517588"
     id="path816"
     cx="7.9661016"
     cy="8"
     rx="7.6271186"
     ry="7.6949153" />
  <path
     d="M 15.898167,7.9925435 C 15.991289,12.143857 12.524463,15.902984 7.9978693,15.900021 3.4787112,15.895577 0.05212915,12.137932 0.10050614,7.9776322 0.15111593,3.5884887 3.6223533,0.09699693 8.0306149,0.09997919 12.395693,0.10296145 15.898167,3.6160697 15.898167,7.9925435 Z M 6.8442686,14.651225 c 0.041673,-0.009 0.082605,-0.01787 0.1242871,-0.02617 C 6.9119915,12.272825 6.6939213,9.913128 7.293059,7.6212524 7.1895983,7.5310341 7.1419711,7.4669156 7.0787116,7.4378435 6.7527172,7.2872394 6.4274733,7.1343938 6.0925618,7.0039249 5.5045928,6.7750317 5.2775955,6.3813736 5.3832781,5.675319 5.5127792,5.7379464 5.6288897,5.7990827 5.749454,5.8512821 6.1461437,6.0235026 6.5361381,6.2173494 6.9439965,6.3560244 7.4850789,6.5401838 7.5907614,6.6803499 7.5066558,7.2581575 7.449351,7.651075 7.3764141,8.0432419 7.3466409,8.4391416 7.3190994,8.8007355 7.6607161,9.2950497 7.9353505,9.3539444 8.1735164,9.4053933 8.5411834,9.0974702 8.6572841,8.7045626 8.7041806,8.5465029 8.6833344,8.3623435 8.666221,8.1923548 8.6275208,7.7972056 8.565002,7.4050386 8.5263018,7.0098894 8.4928057,6.6721437 8.6706845,6.4946994 8.9840192,6.3836152 9.4261143,6.2277873 9.8540584,6.0309582 10.287177,5.8505316 10.405579,5.8013243 10.5224,5.7461526 10.654923,5.6865074 10.715951,6.4835208 10.513513,6.7839784 9.8376856,7.0344881 9.4722504,7.1701809 9.1239384,7.351358 8.7205534,7.5340164 c 0.6021002,2.3828346 0.3736118,4.7484856 0.408599,7.1178996 0.1748966,-0.19908 0.2969619,-0.40853 0.4048761,-0.624793 0.093773,-0.188613 0.1689519,-0.386212 0.2560299,-0.578479 0.4137736,-0.915612 0.8447196,-1.82372 1.2332026,-2.749701 0.120575,-0.288548 0.172715,-0.624793 0.176467,-0.9401521 0.01708,-1.5530159 0.0156,-3.1060318 0.003,-4.6590478 -0.003,-0.3705406 -0.01195,-0.7597253 -0.124327,-1.1056673 C 10.877407,3.3752474 10.697287,2.7094632 10.325887,2.1957642 9.657575,1.2712642 8.6364478,1.0185168 7.5356884,1.1624117 6.6567122,1.2772287 5.8797056,1.6761107 5.4807742,2.4760965 5.0617571,3.3163527 4.7960596,4.231906 4.8027548,5.2003993 c 0.010418,1.5284073 -0.00223,3.0560741 0.00893,4.5844913 0.00149,0.2438344 0.028282,0.5070034 0.1235464,0.7261304 0.5515006,1.274175 1.1245879,2.538672 1.6954336,3.804651 0.053582,0.11929 0.1414104,0.224459 0.2136067,0.335553 z"
     id="path2"
     inkscape:connector-curvature="0"
     style="fill:#fb2715;stroke-width:0.98750275" />
</svg>
