<svg xmlns="http://www.w3.org/2000/svg" xmlns:xlink="http://www.w3.org/1999/xlink" viewBox="0 0 685.71 230.25"><defs><style>.cls-1{fill:url(#Безымянный_градиент_7);}.cls-2{fill:url(#Безымянный_градиент_7-2);}.cls-3{fill:url(#Безымянный_градиент_7-3);}.cls-4{fill:url(#Безымянный_градиент_7-4);}.cls-5{fill:#454699;}</style><linearGradient id="Безымянный_градиент_7" x1="64.77" y1="238.11" x2="64.77" y2="-6.88" gradientUnits="userSpaceOnUse"><stop offset="0" stop-color="#454699"/><stop offset="1" stop-color="#6264d9"/></linearGradient><linearGradient id="Безымянный_градиент_7-2" x1="113.23" y1="238.11" x2="113.23" y2="-6.88" xlink:href="#Безымянный_градиент_7"/><linearGradient id="Безымянный_градиент_7-3" x1="88.37" y1="238.11" x2="88.37" y2="-6.88" xlink:href="#Безымянный_градиент_7"/><linearGradient id="Безымянный_градиент_7-4" x1="136.58" y1="238.11" x2="136.58" y2="-6.88" xlink:href="#Безымянный_градиент_7"/></defs><title>Horizontal_Color_prePO_SVG</title><g id="Слой_2" data-name="Слой 2"><g id="Слой_1-2" data-name="Слой 1"><path class="cls-1" d="M128.75,93.16l-9.75,10a2.79,2.79,0,0,1-4,0L102.4,90.24a2.79,2.79,0,0,0-4,0L84,105.1l-9.71,10-13.59,14-9.71,10-15.52,16-10,10.33L13,178.4a2.79,2.79,0,0,1-3.4.47l-5.73-3.32-2.46-1.43A2.79,2.79,0,0,1,0,171.71V166a5.58,5.58,0,0,1,1.57-3.89l18-18.53,14-14.4,3.88-4,9.71-10,13.62-14,9.71-10,25.9-26.75a5.58,5.58,0,0,1,8,0l24.42,25A2.79,2.79,0,0,1,128.75,93.16Z"/><path class="cls-2" d="M201.64,89.64V168.5a8.37,8.37,0,0,1-4.2,7.26l-92.9,53.37a8.37,8.37,0,0,1-8.37,0L25.6,188.18a1.54,1.54,0,0,1-.33-2.41L36.39,174.3a2.79,2.79,0,0,1,3.4-.47L99,208.18a2.79,2.79,0,0,0,2.79,0l78.9-45.34a2.79,2.79,0,0,0,1.4-2.42V107.64a2.79,2.79,0,0,1,.8-2l16.56-16.94A1.27,1.27,0,0,1,201.64,89.64Z"/><path class="cls-3" d="M176.3,44.56,165.1,56a2.79,2.79,0,0,1-3.39.47L101.8,22.06a2.79,2.79,0,0,0-2.79,0L20.93,67.37a2.79,2.79,0,0,0-1.39,2.41v52.58a2.79,2.79,0,0,1-.79,1.94L2.19,141.42A1.27,1.27,0,0,1,0,140.53V61.75a8.37,8.37,0,0,1,4.17-7.24l92-53.38a8.37,8.37,0,0,1,8.37,0l71.43,41A1.54,1.54,0,0,1,176.3,44.56Z"/><path class="cls-4" d="M201.64,58.51v5.74A5.58,5.58,0,0,1,200,68.16L182.1,86.49l-14,14.26-4.27,4.38-9.8,10-13.65,14-9.77,10L104.33,166a5.58,5.58,0,0,1-8,0l-24-24.81a2.79,2.79,0,0,1,0-3.88l9.71-10a2.79,2.79,0,0,1,4,0L98.4,140a2.79,2.79,0,0,0,4,0L117,125.09l9.77-10,13.65-14,9.77-10L166,75l10.08-10.3,12.61-12.89a2.79,2.79,0,0,1,3.39-.47l5.75,3.3,2.43,1.4A2.79,2.79,0,0,1,201.64,58.51Z"/><path class="cls-5" d="M319.82,94.75a32.79,32.79,0,0,1,12.9,12.83,38.21,38.21,0,0,1,4.68,19.11,38.57,38.57,0,0,1-4.68,19.18,32.63,32.63,0,0,1-12.9,12.9,37.87,37.87,0,0,1-18.65,4.54q-14.43,0-22.86-9.62V180a8.35,8.35,0,0,1-8.35,8.35h0a8.35,8.35,0,0,1-8.35-8.35V99a8,8,0,0,1,8-8h0a8,8,0,0,1,8,8v1.41a25.83,25.83,0,0,1,10.23-7.62,34.53,34.53,0,0,1,13.43-2.54A37.9,37.9,0,0,1,319.82,94.75Zm-5.35,48.12q5.95-6.15,5.95-16.17t-5.95-16.17a20.2,20.2,0,0,0-15.17-6.15,21.49,21.49,0,0,0-10.83,2.74,19.8,19.8,0,0,0-7.62,7.82,26,26,0,0,0,0,23.52,19.78,19.78,0,0,0,7.62,7.82A21.46,21.46,0,0,0,299.3,149,20.19,20.19,0,0,0,314.48,142.87Z"/><path class="cls-5" d="M394.6,98.2h0a7.46,7.46,0,0,1-7,7.34,19.15,19.15,0,0,0-12.13,5.85Q370,117.07,370,127.76V154a8.35,8.35,0,0,1-8.35,8.35h0A8.35,8.35,0,0,1,353.3,154V99a8,8,0,0,1,8-8h0a8,8,0,0,1,8,8v2.47q5.29-8.23,16.46-10.43A7.41,7.41,0,0,1,394.6,98.2Z"/><path class="cls-5" d="M463,132H420.17a1,1,0,0,0-1,1.22,19.24,19.24,0,0,0,7.42,11.27q6.21,4.61,15.44,4.61a27,27,0,0,0,14.67-3.95,7.09,7.09,0,0,1,9.15,1.3h0a7.14,7.14,0,0,1-1.46,10.6,32,32,0,0,1-6.19,3.27,48.2,48.2,0,0,1-37.29-1.74,33.68,33.68,0,0,1-13.83-13,36.79,36.79,0,0,1-4.88-18.91A37.35,37.35,0,0,1,407,107.91a33.68,33.68,0,0,1,13.17-13,38.42,38.42,0,0,1,19-4.68,37.44,37.44,0,0,1,18.65,4.61,32.66,32.66,0,0,1,12.83,13,27.24,27.24,0,0,1,3.8,11.5A11.44,11.44,0,0,1,463,132Zm-37.48-23.73A19.67,19.67,0,0,0,419,119.75a1,1,0,0,0,1,1.2h38.11a1,1,0,0,0,1-1.18,19.46,19.46,0,0,0-6.36-11.38,19.92,19.92,0,0,0-13.63-4.81A20.16,20.16,0,0,0,425.54,108.31Z"/><path class="cls-5" d="M553.45,73a31,31,0,0,1,19,29.81,32.5,32.5,0,0,1-4.95,18,31.5,31.5,0,0,1-14.1,11.76q-9.16,4.08-21.59,4.08H514.18a1.16,1.16,0,0,0-1.16,1.16v13.81a10.83,10.83,0,0,1-10.83,10.83h0a10.83,10.83,0,0,1-10.83-10.83V82.77a14,14,0,0,1,14-14h26.54Q544.3,68.82,553.45,73Zm-8,41.77q5.08-4.21,5.08-12T545.5,90.67q-5.08-4.21-14.84-4.21H514.18A1.16,1.16,0,0,0,513,87.62v30.16a1.16,1.16,0,0,0,1.16,1.16h16.48Q540.42,118.94,545.5,114.73Z"/><path class="cls-5" d="M608.25,157.7a46.61,46.61,0,0,1-18.31-17.31,47.26,47.26,0,0,1-6.62-24.79,47.26,47.26,0,0,1,6.62-24.79A46.63,46.63,0,0,1,608.25,73.5a57.9,57.9,0,0,1,52.46,0,47.72,47.72,0,0,1,0,84.2,57.92,57.92,0,0,1-52.46,0Zm41.23-16A27.34,27.34,0,0,0,660,131.1a33.46,33.46,0,0,0,0-31,27.33,27.33,0,0,0-10.49-10.63,31.33,31.33,0,0,0-29.94,0,27.32,27.32,0,0,0-10.49,10.63,33.46,33.46,0,0,0,0,31,27.33,27.33,0,0,0,10.49,10.63,31.31,31.31,0,0,0,29.94,0Z"/></g></g></svg>
