<svg xmlns="http://www.w3.org/2000/svg" width="78.934" height="25" viewBox="0 0 78.934 25"><g transform="translate(-14.71 -64.69)"><path d="M64.755,71.842a.51.51,0,0,1-.377-.359,1.17,1.17,0,0,1-.008-.572c.176-.978.334-1.959.563-2.929a6.142,6.142,0,0,1,.923-2.225,2.6,2.6,0,0,1,1.418-1.026c.984-.246,1.394.715,1.052,1.53-.289.688-.986,1.038-1.5,1.532a7.189,7.189,0,0,0-1.5,3.651.484.484,0,0,1-.57.4Z" transform="translate(-39.055 0)" fill="#007dc5"/><path d="M23.884,90.116a2.094,2.094,0,0,1-1-.242c-.3-.171-.692-.475-1.062-.346-.406.141-.563.705-.878.981a9.418,9.418,0,0,1-1.482.9,10.258,10.258,0,0,0-1.239.857,9.547,9.547,0,1,0,6.442-2.136C24.407,90.116,24.144,90.126,23.884,90.116Z" transform="translate(0 -19.522)" fill="#007dc5"/><path d="M26.514,72.465a1.434,1.434,0,0,1,.43-.665.936.936,0,0,1,1.31.126c.779.931.189,2.358.158,3.43a6.139,6.139,0,0,0,.641,2.634,1.774,1.774,0,0,1,.21.489.612.612,0,0,1-.321.653c-.389.192-.637-.216-.8-.506a22.515,22.515,0,0,1-.985-2.1,9.965,9.965,0,0,1-.7-2.258q-.035-.21-.056-.423-.019-.192-.026-.385A2.878,2.878,0,0,1,26.514,72.465Z" transform="translate(-9.183 -5.429)" fill="#007dc5"/><path d="M58.3,107.565c-.307-3.558-3.149-6.438-6.338-6.433s-5.5,2.876-5.2,6.414,3.123,6.421,6.306,6.437S58.606,111.124,58.3,107.565ZM56.635,111.6a4.379,4.379,0,0,1-3.155,1.481,5.208,5.208,0,0,1-3.785-1.56,6.481,6.481,0,0,1-1.913-4,5.533,5.533,0,0,1,1.278-4.265,4.378,4.378,0,0,1,3.162-1.478l.142,0a5.258,5.258,0,0,1,3.711,1.642,6.509,6.509,0,0,1,1.847,3.964,5.542,5.542,0,0,1-1.287,4.215Z" transform="translate(-25.202 -28.678)" fill="#fff"/><path d="M240.81,93.657a4.96,4.96,0,0,0,3.485,2.185l.182-.947a4.429,4.429,0,0,1-2.462-1.238h2.494v-.942h-4.2v-.486h3.877v-.9h-3.7V90.9h3.445v-.875h-3.445v-.473h3.445V88.68h-3.445v-.451h3.7v-.9h-3.562a1.765,1.765,0,0,0,.538-.52c.111-.177.17-.284.176-.294l-.886-.484a5.188,5.188,0,0,1-.331.522,1.618,1.618,0,0,1-1.561.775h-1.118a8.748,8.748,0,0,0,.526-.814l-.886-.484a11.586,11.586,0,0,1-2.508,2.922l.648.774c.169-.141.327-.283.48-.425v1.971a.835.835,0,0,0,.954.954H239.3v.486h-4.2v.942H237.6a4.429,4.429,0,0,1-2.462,1.238l.182.947a4.96,4.96,0,0,0,3.485-2.185h.5v2.285h1.01V93.657Zm-1.328-3.629h-2.79v-.473h2.79Zm0-1.8v.451h-2.79v-.394l.048-.056Zm-2.79,2.911V90.9h2.79v.428h-2.6c-.165,0-.191-.026-.191-.191Z" transform="translate(-173.028 -16.797)" fill="#231f20"/><path d="M156.675,96.648a12.114,12.114,0,0,0,.242-3.1v-.437h-1.349l.273-4.15h-4.405V89.9h3.327l-.208,3.208h-1.723l.191-2.7h-.968l-.264,3.641h4.113a8.9,8.9,0,0,1-.178,2.206c-.151.413-.415.873-1.428.873h-1.577v.965h1.622A2.173,2.173,0,0,0,156.675,96.648Z" transform="translate(-107.598 -19.097)" fill="#231f20"/><path d="M134.647,95.9V94.7h3.489v-1.01h-3.49v.994h-1.008v.986h-.8V93.978h.462a1.082,1.082,0,0,0,1.15-1.15V88.566h-1.612V87.22h-1.01v1.345h-1.567v5.412h1.567v1.694h-1.587v1.054h3.588a.758.758,0,0,0,.823-.823Zm-1.211-6.351v3.3a.141.141,0,0,1-.14.14h-.462V89.553Zm-2.17,3.438V89.553h.558v3.438Z" transform="translate(-90.915 -17.73)" fill="#231f20"/><path d="M299.28,96.018v-7.6h-9.141v9.4h7.336A1.619,1.619,0,0,0,299.28,96.018Zm-1.01,0a.731.731,0,0,1-.8.8h-6.327V89.43h7.122Z" transform="translate(-216.753 -18.675)" fill="#231f20"/><path d="M297.552,100.415l.351.947a8.576,8.576,0,0,0,3.736-2.752v1.911a.742.742,0,0,1-.767.713h-.907v.965h1a1.6,1.6,0,0,0,1.687-1.633v-2.51h.733v-.965h-.733V96.054h-1.01v1.037h-3.911v.965h3.125A8.044,8.044,0,0,1,297.552,100.415Z" transform="translate(-222.587 -24.682)" fill="#231f20"/><path d="M193.725,96.134a21.58,21.58,0,0,1-2.392-2.269,10.049,10.049,0,0,0,.914-1.446,8.645,8.645,0,0,0,.742-4.09h-1.054a7.759,7.759,0,0,1-.624,3.607,8.829,8.829,0,0,1-.656,1.071A8.833,8.833,0,0,1,190,91.936a7.761,7.761,0,0,1-.624-3.607h-1.054a8.774,8.774,0,0,0,.741,4.09,10.054,10.054,0,0,0,.914,1.446,19.943,19.943,0,0,1-2.056,1.983V94.686h-1.01v.986h-.8V93.978h.462a1.082,1.082,0,0,0,1.15-1.15V88.566H186.1V87.22h-1.01v1.345h-1.567v5.412h1.567v1.694h-1.587v1.054H187.1a.775.775,0,0,0,.7-.339l.465.554a23.389,23.389,0,0,0,2.394-2.253,23.377,23.377,0,0,0,2.394,2.253Zm-7.018-6.581v3.3a.141.141,0,0,1-.14.14H186.1V89.553Zm-2.17,3.438V89.553h.558v3.438Z" transform="translate(-132.837 -17.73)" fill="#231f20"/><path d="M213.939,89.932l.829-.106a24.442,24.442,0,0,0-.22-2.946l-1,.145s.006.043.015.11A24.587,24.587,0,0,1,213.939,89.932Z" transform="translate(-156.478 -17.463)" fill="#231f20"/><path d="M363.774,142.384h-2.9v6.486a2.666,2.666,0,0,0,.57.057,2.725,2.725,0,0,0,.57-.057v-2.1h1.794a2.108,2.108,0,0,0,2.255-2.219A2.075,2.075,0,0,0,363.774,142.384Zm-.19,3.375h-1.565V143.4h1.565c.979,0,1.4.322,1.4,1.186s-.525,1.176-1.4,1.176Z" transform="translate(-272.423 -61.142)" fill="#231f20"/><path d="M267.56,146.577c-.341-.27-.642-.321-.633-.388s.168-.031.453-.117a1.8,1.8,0,0,0,1.4-1.785c0-1.527-1.057-1.943-2.584-1.943h-2.8v6.5a2.631,2.631,0,0,0,.566.057,2.689,2.689,0,0,0,.566-.057v-2.467h.729a1.934,1.934,0,0,1,1.19.278,3.8,3.8,0,0,1,.854,1.033c.185.288.643,1.153.644,1.155h0a3.626,3.626,0,0,0,.667.057,2.2,2.2,0,0,0,.647-.088s-.681-1.1-.974-1.47A4.456,4.456,0,0,0,267.56,146.577Zm-1.542-1.168H264.53V143.3h1.69c.979,0,1.435.192,1.435.988,0,.846-.658,1.122-1.636,1.122Z" transform="translate(-195.708 -61.112)" fill="#231f20"/><path d="M333.04,142.174h0v3.855a1.641,1.641,0,1,1-3.278,0v-3.855a2.66,2.66,0,0,0-.57-.057,2.722,2.722,0,0,0-.57.057h0v3.894a2.776,2.776,0,0,0,5.55,0v-3.894a2.662,2.662,0,0,0-.57-.057A2.722,2.722,0,0,0,333.04,142.174Z" transform="translate(-247.041 -60.932)" fill="#231f20"/><path d="M230.773,142.842a2.48,2.48,0,0,1,2.17,1.12l.837-.616a3.365,3.365,0,0,0-3.1-1.543,3.275,3.275,0,0,0-3.3,3.387,3.171,3.171,0,0,0,3.1,3.36,3.321,3.321,0,0,0,1.286-.259,3.593,3.593,0,0,0,.743-.388c.09-.061.2-.134.264-.109s.062.084.062.154c0,.206,0,.452,0,.452h0a1.559,1.559,0,0,0,.433.057,1.3,1.3,0,0,0,.434-.072h0v-3.463h-2.911v.925H232.7a1.86,1.86,0,0,1-2.067,1.664,2.155,2.155,0,0,1-2.145-2.321,2.3,2.3,0,0,1,2.29-2.348Z" transform="translate(-167.362 -60.685)" fill="#231f20"/><path d="M295.822,141.8a3.373,3.373,0,1,0,3.374,3.373,3.373,3.373,0,0,0-3.374-3.373Zm0,5.62a2.246,2.246,0,1,1,2.246-2.246,2.246,2.246,0,0,1-2.246,2.246Z" transform="translate(-218.571 -60.685)" fill="#231f20"/><path d="M190.872,143.379h2.357v5.447a2.98,2.98,0,0,0,.6.057,3.047,3.047,0,0,0,.6-.057v-5.447h2.357v-1.048h-5.922Z" transform="translate(-138.633 -61.101)" fill="#231f20"/><path d="M164.724,142.1v4.712a41.276,41.276,0,0,0-3.32-4.712h0a2.57,2.57,0,0,0-.559-.057,2.618,2.618,0,0,0-.559.057v6.5h0a2.538,2.538,0,0,0,.556.057,2.593,2.593,0,0,0,.556-.057h0v-5.036c1.188,1.635,2.3,3.322,3.307,5.036h0a2.612,2.612,0,0,0,.564.057,2.673,2.673,0,0,0,.565-.057h0v-6.5a2.536,2.536,0,0,0-.556-.057A2.594,2.594,0,0,0,164.724,142.1Z" transform="translate(-114.563 -60.872)" fill="#231f20"/><path d="M132.663,148.7l-.039-.14c-.013-.047-.028-.093-.042-.139l-.169-.557-.085-.278-.09-.277-.181-.554c-.062-.184-.127-.367-.191-.55l-.1-.275c-.032-.092-.067-.182-.1-.273l-.2-.546c-.28-.725-.576-1.444-.9-2.153-.081-.177-.161-.355-.246-.53l-.094-.2H128.7l-.1.2c-.084.176-.163.353-.243.531-.318.71-.613,1.428-.892,2.152l-.2.545c-.033.091-.069.181-.1.273l-.1.274c-.064.183-.13.365-.192.549l-.183.552-.091.276-.086.278-.172.555c-.029.092-.056.185-.083.279l-.014.048h0a2.763,2.763,0,0,0,.576.056,2.845,2.845,0,0,0,.581-.057l0-.012.162-.545.081-.272.086-.271.225-.678a7.3,7.3,0,0,1,1.5-.055,5.426,5.426,0,0,1,1.409.31c.146.067.212.106.258.216l.063.2.085.271.08.273.159.546.005.017h0a2.563,2.563,0,0,0,.578.057,2.834,2.834,0,0,0,.573-.056h0Zm-3.2-2.611a4.8,4.8,0,0,0-1.268.192c.019-.054.059-.2.078-.251l.193-.535c.265-.709.545-1.413.846-2.107l.051-.117c.032-.073.065-.1.1-.1s.063.019.093.081l.056.126c.3.691.585,1.394.85,2.1l.192.535.061.169a6.261,6.261,0,0,0-1.25-.1Z" transform="translate(-87.774 -61.02)" fill="#231f20"/></g></svg>