<?xml version="1.0" encoding="utf-8"?>
<!DOCTYPE svg PUBLIC "-//W3C//DTD SVG 1.1//EN" "http://www.w3.org/Graphics/SVG/1.1/DTD/svg11.dtd">
<svg version="1.1" id="Logo" xmlns="http://www.w3.org/2000/svg" xmlns:xlink="http://www.w3.org/1999/xlink" x="0px" y="0px"
	 width="245px" height="110px" viewBox="0.75 -0.25 245 110" enable-background="new 0.75 -0.25 245 110" xml:space="preserve">
<g>
	<g>
		<path fill="#221F23" d="M240.838,55.406c-0.079,0.441-0.192,0.88-0.232,1.325c-0.45,5.068-2.286,9.499-6.023,13.041
			c-2.584,2.448-5.685,3.951-9.117,4.762c-4.245,1.002-8.499,0.987-12.69-0.269c-6.237-1.869-10.596-5.856-12.887-11.961
			c-2.002-5.341-2.035-10.794-0.287-16.2c1.85-5.72,5.666-9.69,11.242-11.938c4.145-1.67,8.449-1.954,12.839-1.368
			c3.672,0.489,6.99,1.814,9.853,4.195c2.077,1.727,3.607,3.885,4.859,6.258c0.236,0.447-0.049,0.564-0.36,0.693
			c-1.74,0.721-3.481,1.441-5.224,2.16c-1.149,0.475-2.301,0.943-3.448,1.422c-0.701,0.293-0.697,0.296-1.045-0.42
			c-0.888-1.837-2.07-3.415-3.909-4.409c-3.939-2.129-10.432-1.435-13.387,4.242c-1.404,2.696-1.787,5.57-1.584,8.559
			c0.156,2.314,0.717,4.506,2.037,6.443c1.957,2.868,4.782,4.105,8.164,4.184c2.12,0.049,4.175-0.253,6.001-1.466
			c1.646-1.092,2.476-2.694,2.886-4.559c0.11-0.5-0.256-0.497-0.593-0.497c-2.376,0-4.752,0-7.129,0
			c-0.853,0-0.854,0.001-0.854-0.825c-0.001-2.187-0.001-4.375,0-6.563c0-0.758,0.005-0.761,0.75-0.761
			c6.713-0.002,13.426-0.004,20.139-0.006C240.838,52.766,240.838,54.086,240.838,55.406z"/>
		<path fill="#221F23" d="M26.938,5.383c0.077,0.238,0.217,0.476,0.219,0.714c0.016,2.149,0.022,4.3-0.001,6.45
			c-0.006,0.532,0.153,0.735,0.705,0.728c2.093-0.023,4.188-0.021,6.28,0c0.527,0.006,0.687-0.193,0.683-0.699
			c-0.02-2.169,0-4.338-0.021-6.507c-0.005-0.464,0.129-0.639,0.604-0.631c1.339,0.022,2.679,0.025,4.017,0
			c0.503-0.01,0.639,0.177,0.638,0.663c-0.013,6.261-0.008,12.523-0.01,18.785c0,0.728-0.039,0.765-0.769,0.766
			c-1.264,0.001-2.528-0.018-3.791,0.009c-0.526,0.012-0.689-0.189-0.685-0.696c0.018-2.263,0.009-4.526,0.008-6.789
			c0-0.847-0.025-0.873-0.844-0.873c-2-0.001-3.999-0.002-5.998,0c-0.762,0-0.809,0.047-0.809,0.795c0,2.263,0.001,4.526,0,6.79
			c0,0.731-0.038,0.765-0.769,0.765c-1.264,0-2.527-0.013-3.791,0.007c-0.469,0.008-0.682-0.127-0.681-0.638
			c0.011-6.337,0.011-12.674-0.001-19.011c0-0.468,0.191-0.577,0.608-0.57c1.131,0.016,2.263,0.008,3.395,0.002
			c0.224-0.001,0.448-0.038,0.672-0.058C26.712,5.383,26.826,5.383,26.938,5.383z"/>
		<path d="M55.685,5.383c0.042,0.293,0.115,0.586,0.12,0.881c0.014,0.999-0.009,1.999,0.012,2.998
			c0.01,0.444-0.161,0.592-0.598,0.587C53.56,9.831,51.9,9.856,50.242,9.833c-0.512-0.007-0.719,0.156-0.697,0.681
			c0.03,0.715,0.029,1.434-0.001,2.149c-0.021,0.478,0.168,0.626,0.627,0.621c1.545-0.018,3.092,0.006,4.637-0.016
			c0.502-0.007,0.71,0.133,0.69,0.672c-0.038,1.036-0.033,2.074-0.001,3.11c0.015,0.506-0.178,0.651-0.661,0.644
			c-1.489-0.022-2.978-0.01-4.468-0.008c-0.791,0-0.813,0.025-0.815,0.84c-0.001,0.678,0.02,1.358-0.008,2.036
			c-0.022,0.521,0.194,0.693,0.701,0.687c1.64-0.021,3.281,0.008,4.92-0.018c0.5-0.008,0.663,0.169,0.651,0.656
			c-0.025,1.037-0.022,2.074-0.001,3.11c0.01,0.471-0.127,0.669-0.641,0.666c-3.394-0.019-6.787-0.018-10.18,0
			c-0.495,0.002-0.658-0.162-0.657-0.651c0.011-6.315,0.012-12.631-0.002-18.946c-0.001-0.516,0.194-0.627,0.668-0.625
			c3.28,0.017,6.561,0.011,9.841,0.007c0.242,0,0.484-0.04,0.727-0.062C55.61,5.383,55.647,5.383,55.685,5.383z"/>
		<path fill="#221F23" d="M19.356,5.383c0.068,0.187,0.192,0.371,0.195,0.559c0.018,1.112-0.002,2.224,0.013,3.334
			c0.005,0.414-0.155,0.575-0.567,0.569c-1.017-0.014-2.035,0.019-3.051-0.014c-0.546-0.017-0.717,0.18-0.716,0.721
			c0.017,4.748,0.01,9.496,0.01,14.245c0,0.852,0,0.852-0.843,0.852c-1.187,0-2.374,0-3.562,0c-0.813,0-0.836-0.018-0.836-0.812
			c0-4.711,0-9.422,0-14.132c0-0.864,0.003-0.859-0.893-0.866C7.958,9.831,6.811,9.812,5.662,9.798c0-1.471,0-2.943,0-4.414
			c0.188,0,0.377,0,0.566,0c0.167,0.021,0.334,0.058,0.5,0.058c3.892,0.003,7.784,0.003,11.675,0c0.167,0,0.334-0.037,0.5-0.058
			C19.054,5.383,19.206,5.383,19.356,5.383z"/>
		<path fill="#221F23" d="M64.205,75.307c-5.692-0.106-10.847-1.671-15.198-5.427c-3.634-3.138-5.956-7.1-6.788-11.834
			c-1.353-7.703,0.667-14.39,6.377-19.825c2.562-2.438,5.65-3.995,9.066-4.886c4.11-1.073,8.271-1.166,12.378-0.161
			c7.502,1.834,12.873,6.278,15.437,13.65c2.981,8.575,0.409,18.317-7.228,23.991c-2.895,2.151-6.153,3.497-9.721,4.034
			C67.097,75.064,65.647,75.157,64.205,75.307z"/>
		<path fill="#221F23" d="M180.447,58.075c0.016-0.213,0.047-0.426,0.047-0.639c0.002-7.657,0.002-15.313,0.002-22.97
			c0-0.833,0.001-0.833,0.847-0.833c2.979,0,5.958,0.01,8.939-0.013c0.499-0.003,0.649,0.15,0.649,0.645
			c-0.011,13.05-0.011,26.101,0.001,39.151c0.001,0.53-0.175,0.677-0.685,0.674c-3.036-0.019-6.074-0.019-9.109,0
			c-0.486,0.003-0.802-0.16-1.097-0.536c-5.105-6.515-10.221-13.021-15.333-19.53c-1.037-1.319-2.075-2.637-3.101-3.965
			c-0.125-0.161-0.174-0.379-0.258-0.572c-0.101,0.07-0.2,0.14-0.3,0.21c-0.019,0.173-0.053,0.345-0.053,0.518
			c-0.001,7.694,0.001,15.389,0.002,23.083c0,0.761-0.015,0.781-0.743,0.781c-3.018,0.002-6.034-0.008-9.052,0.01
			c-0.529,0.003-0.721-0.145-0.721-0.703c0.015-13.012,0.011-26.025,0.013-39.038c0-0.7,0.017-0.716,0.741-0.716
			c3.055,0,6.109,0.007,9.164-0.009c0.443-0.002,0.721,0.152,0.995,0.499c6.175,7.879,12.362,15.749,18.542,23.625
			c0.114,0.145,0.154,0.348,0.229,0.523C180.259,58.207,180.354,58.141,180.447,58.075z"/>
		<path fill="#221F23" d="M29.524,52.498c0.952,0.312,1.787,0.536,2.583,0.855c3.061,1.227,4.849,3.5,5.331,6.751
			c0.367,2.48,0.246,4.937-0.801,7.265c-1.362,3.029-3.741,4.891-6.863,5.879c-2.019,0.64-4.094,0.832-6.196,0.832
			c-5.374,0-10.749-0.005-16.123,0.011c-0.53,0.001-0.718-0.142-0.717-0.7C6.751,60.36,6.75,47.33,6.741,34.299
			c0-0.467,0.102-0.676,0.622-0.675c5.318,0.022,10.636-0.007,15.953,0.048c2.088,0.022,4.122,0.431,5.978,1.479
			c2.296,1.296,3.642,3.287,4.19,5.825c0.452,2.09,0.461,4.189-0.065,6.279c-0.506,2.014-1.694,3.545-3.334,4.763
			C29.914,52.145,29.758,52.295,29.524,52.498z M17.231,61.642c0,1.244,0.003,2.487-0.001,3.731
			c-0.001,0.338,0.06,0.618,0.481,0.597c1.822-0.09,3.653-0.11,5.463-0.312c0.792-0.089,1.612-0.442,2.297-0.872
			c1.373-0.857,1.682-2.248,1.502-3.762c-0.202-1.702-1.259-2.676-2.837-3.151c-2.093-0.63-4.248-0.541-6.395-0.536
			c-0.392,0-0.518,0.206-0.515,0.573C17.238,59.154,17.232,60.397,17.231,61.642z M17.231,45.589c0,1.131,0.007,2.263-0.003,3.395
			c-0.003,0.372,0.136,0.59,0.521,0.565c1.182-0.075,2.382-0.059,3.54-0.271c1.599-0.293,2.571-1.306,2.842-2.963
			c0.318-1.947-0.519-3.575-2.271-4.252c-1.376-0.533-2.822-0.415-4.251-0.369c-0.131,0.004-0.354,0.36-0.361,0.558
			C17.213,43.363,17.231,44.476,17.231,45.589z"/>
		<path fill="#221F23" d="M126.9,74.03c-0.308,0.024-0.487,0.049-0.666,0.049c-3.886,0.002-7.772-0.005-11.657,0.011
			c-0.469,0.001-0.756-0.149-1.011-0.547c-3.024-4.713-6.064-9.416-9.102-14.119c-0.117-0.181-0.26-0.346-0.534-0.488
			c-0.024,0.225-0.071,0.45-0.071,0.674c-0.003,4.583-0.002,9.167-0.002,13.75c0,0.717-0.003,0.721-0.728,0.722
			c-2.999,0-5.998,0-8.997,0c-0.746,0-0.77-0.024-0.77-0.756c0-12.976,0.001-25.952-0.006-38.928c0-0.48,0.052-0.775,0.656-0.773
			c5.47,0.021,10.94-0.016,16.409,0.038c2.945,0.029,5.719,0.759,8.111,2.571c2.627,1.99,4.005,4.719,4.424,7.93
			c0.295,2.264,0.166,4.522-0.608,6.701c-1.125,3.167-3.41,5.12-6.527,6.188c-0.285,0.098-0.573,0.189-0.864,0.267
			c-0.583,0.156-0.632,0.277-0.271,0.746c1.276,1.659,2.553,3.317,3.827,4.978c2.688,3.5,5.374,6.999,8.06,10.5
			C126.663,73.657,126.737,73.784,126.9,74.03z M103.857,46.706c0,1.469,0.005,2.938-0.003,4.407
			c-0.001,0.363,0.053,0.66,0.507,0.624c1.458-0.115,2.939-0.118,4.369-0.39c2.112-0.4,3.523-2.178,3.587-4.228
			c0.079-2.545-1.041-4.227-3.258-4.95c-1.497-0.488-3.037-0.483-4.582-0.495c-0.465-0.003-0.632,0.159-0.626,0.625
			C103.871,43.769,103.858,45.237,103.857,46.706z"/>
		<path fill="#221F23" d="M141.979,53.879c0,6.525-0.003,13.049,0.008,19.574c0.001,0.462-0.139,0.637-0.611,0.634
			c-3.093-0.013-6.184-0.016-9.277,0.002c-0.544,0.003-0.657-0.222-0.655-0.713c0.013-5.544,0.009-11.088,0.009-16.633
			c0-7.448,0-14.897,0-22.346c0-0.752,0.01-0.763,0.752-0.764c3.018-0.001,6.034-0.001,9.051,0c0.721,0.001,0.72,0.005,0.72,0.728
			c-0.001,6.506-0.001,13.012-0.001,19.518C141.975,53.879,141.978,53.879,141.979,53.879z"/>
		<path fill="#221F23" d="M148.238,92.295c-0.082,0.153-0.178,0.3-0.243,0.458c-1.383,3.362-2.769,6.724-4.134,10.094
			c-0.189,0.462-0.429,0.678-0.958,0.664c-1.683-0.046-1.297,0.173-1.87-1.282c-1.249-3.173-2.475-6.354-3.715-9.529
			c-0.063-0.163-0.178-0.305-0.268-0.457c-0.052,0.006-0.105,0.012-0.157,0.019c-0.104,0.617-0.217,1.233-0.312,1.852
			c-0.446,2.964-0.891,5.929-1.322,8.895c-0.05,0.347-0.19,0.495-0.542,0.493c-1.396-0.009-2.792-0.011-4.188,0.001
			c-0.483,0.004-0.511-0.264-0.446-0.628c0.219-1.244,0.44-2.488,0.651-3.732c0.478-2.806,0.952-5.613,1.427-8.419
			c0.386-2.267,0.776-4.534,1.15-6.802c0.077-0.467,0.263-0.672,0.779-0.657c1.281,0.039,2.566,0.039,3.846,0.001
			c0.506-0.015,0.748,0.173,0.915,0.625c1.06,2.862,2.134,5.718,3.207,8.575c0.166,0.443,0.352,0.878,0.53,1.317
			c0.065-0.007,0.131-0.013,0.197-0.02c0.175-0.444,0.359-0.885,0.526-1.333c1.071-2.858,2.147-5.714,3.197-8.58
			c0.155-0.426,0.374-0.59,0.824-0.583c1.338,0.023,2.678,0.02,4.017,0.001c0.422-0.006,0.582,0.144,0.654,0.568
			c0.75,4.461,1.526,8.919,2.289,13.378c0.325,1.895,0.623,3.793,0.961,5.686c0.084,0.475-0.072,0.606-0.517,0.602
			c-1.32-0.014-2.642-0.022-3.961,0.004c-0.487,0.011-0.665-0.194-0.729-0.643c-0.292-2.034-0.604-4.065-0.905-6.097
			c-0.198-1.324-0.389-2.649-0.591-3.972c-0.027-0.169-0.108-0.329-0.165-0.493C148.337,92.301,148.288,92.298,148.238,92.295z"/>
		<path fill="#221F23" d="M202.692,91.281c-0.042,0.403-0.086,0.63-0.086,0.858c-0.006,3.526-0.003,7.051-0.003,10.578
			c0,0.766-0.018,0.783-0.799,0.784c-1.263,0.002-2.527-0.012-3.789,0.007c-0.457,0.007-0.638-0.147-0.638-0.62
			c0.011-6.335,0.009-12.67,0.002-19.006c0-0.421,0.129-0.617,0.585-0.611c1.395,0.019,2.792-0.015,4.186,0.027
			c0.269,0.008,0.612,0.202,0.784,0.418c2.95,3.722,5.879,7.461,8.815,11.195c0.13,0.164,0.289,0.305,0.555,0.586
			c0.028-0.394,0.058-0.607,0.058-0.82c0.004-3.545,0.001-7.09,0.003-10.634c0-0.762,0.002-0.762,0.744-0.763
			c1.263,0,2.527,0.018,3.789-0.01c0.479-0.01,0.67,0.117,0.67,0.629c-0.013,6.335-0.012,12.67,0,19.005
			c0.002,0.485-0.187,0.612-0.637,0.605c-1.318-0.021-2.639-0.022-3.958,0c-0.443,0.008-0.735-0.156-1.003-0.498
			c-2.926-3.742-5.863-7.475-8.799-11.209C203.063,91.664,202.935,91.542,202.692,91.281z"/>
		<path fill="#221F23" d="M116.508,104.117c-4.454-0.188-7.929-1.745-10.06-5.573c-3.146-5.65-0.633-13.493,6.527-15.378
			c3.687-0.971,7.208-0.529,10.337,1.759c2.899,2.121,4.264,5.08,4.195,8.647c-0.1,5.24-3.65,9.338-8.808,10.257
			C117.908,103.971,117.104,104.04,116.508,104.117z M110.606,93.358c-0.01,3.153,2.488,5.613,5.707,5.619
			c3.185,0.005,5.713-2.438,5.732-5.541c0.02-3.17-2.498-5.646-5.74-5.646C113.122,87.791,110.617,90.238,110.606,93.358z"/>
		<path fill="#221F23" d="M192.114,103.5c-0.66,0-1.324-0.038-1.98,0.012c-0.539,0.042-0.782-0.185-0.931-0.668
			c-0.245-0.791-0.555-1.563-0.798-2.354c-0.12-0.392-0.328-0.542-0.732-0.541c-2.149,0.011-4.3,0.01-6.45-0.001
			c-0.409-0.002-0.619,0.183-0.741,0.552c-0.275,0.841-0.574,1.675-0.847,2.518c-0.108,0.334-0.303,0.489-0.662,0.487
			c-1.508-0.008-3.017-0.007-4.525,0c-0.429,0.002-0.519-0.146-0.362-0.556c2.415-6.316,4.822-12.635,7.218-18.958
			c0.189-0.501,0.425-0.747,1.017-0.728c1.469,0.048,2.941,0.025,4.413,0.008c0.421-0.005,0.635,0.149,0.788,0.552
			c2.137,5.636,4.292,11.264,6.442,16.895c0.276,0.721,0.546,1.445,0.832,2.163c0.17,0.428,0.083,0.636-0.418,0.624
			C193.623,103.486,192.868,103.5,192.114,103.5z M184.522,89.427c-0.186,0.283-0.304,0.403-0.354,0.546
			c-0.639,1.808-1.258,3.621-1.907,5.425c-0.161,0.449-0.073,0.622,0.417,0.616c1.186-0.015,2.371-0.014,3.556-0.001
			c0.505,0.006,0.569-0.183,0.399-0.625c-0.336-0.877-0.62-1.774-0.932-2.66C185.333,91.688,184.958,90.649,184.522,89.427z"/>
		<path fill="#221F23" d="M158.728,93.373c0-3.129,0-6.257,0.001-9.386c0-0.707,0.021-0.726,0.732-0.725c2.677,0.006,5.355-0.049,8.028,0.052
			c1.068,0.04,2.172,0.297,3.173,0.682c1.874,0.722,2.867,2.248,3.258,4.176c0.34,1.68,0.288,3.352-0.374,4.945
			c-1.016,2.451-3.049,3.427-5.547,3.603c-1.125,0.079-2.261,0.043-3.392,0.025c-0.483-0.007-0.667,0.152-0.661,0.652
			c0.022,1.828-0.003,3.657,0.018,5.485c0.006,0.467-0.148,0.633-0.615,0.626c-1.319-0.02-2.638-0.024-3.957,0.001
			c-0.521,0.01-0.679-0.179-0.677-0.693C158.737,99.668,158.728,96.521,158.728,93.373z M163.959,90.058
			c0,0.679,0.004,1.356-0.002,2.035c-0.002,0.326,0.132,0.491,0.472,0.483c0.584-0.013,1.171,0.02,1.751-0.025
			c1.849-0.147,2.745-1.36,2.387-3.191c-0.183-0.931-0.826-1.62-1.765-1.744c-0.781-0.104-1.576-0.096-2.365-0.132
			c-0.377-0.019-0.483,0.208-0.48,0.541C163.961,88.701,163.958,89.379,163.959,90.058z"/>
		<path fill="#221F23" d="M102.352,97.16c0,0.333,0,0.666,0,0.999c0,1.415-0.018,2.829,0.01,4.243c0.01,0.509-0.189,0.722-0.663,0.873
			c-1.516,0.479-3.031,0.912-4.646,0.785c-4.135-0.327-7.221-2.304-9.049-6.02c-2.866-5.83-0.084-12.546,6.046-14.734
			c2.635-0.94,5.269-0.738,7.847,0.277c0.195,0.077,0.43,0.366,0.434,0.56c0.032,1.791,0.017,3.582,0.013,5.373
			c0,0.051-0.038,0.103-0.069,0.18c-3.073-2.526-6.141-2.917-8.849,0.388c-1.663,2.029-1.372,5.165,0.33,7.062
			c1.122,1.251,2.533,1.851,4.215,1.831c1.677-0.02,3.021-0.79,4.222-1.901C102.246,97.103,102.298,97.132,102.352,97.16z"/>
		<path fill="#221F23" d="M219.481,83.31c0.293-0.021,0.472-0.046,0.65-0.046c1.641-0.003,3.281,0.01,4.92-0.011
			c0.413-0.006,0.661,0.151,0.879,0.479c1.009,1.503,2.032,2.995,3.053,4.488c0.367,0.539,0.449,0.537,0.819-0.009
			c0.993-1.467,1.994-2.928,2.968-4.409c0.255-0.388,0.534-0.559,1.011-0.551c1.62,0.026,3.242,0.009,4.863,0.013
			c0.179,0,0.357,0.026,0.641,0.05c-0.13,0.229-0.197,0.374-0.288,0.502c-2.233,3.175-4.477,6.343-6.695,9.53
			c-0.198,0.286-0.325,0.686-0.329,1.035c-0.026,2.808-0.027,5.617-0.004,8.426c0.005,0.55-0.173,0.718-0.713,0.705
			c-1.301-0.032-2.602-0.025-3.902-0.002c-0.471,0.008-0.621-0.162-0.619-0.626c0.017-2.808,0.022-5.617-0.008-8.426
			c-0.005-0.402-0.138-0.863-0.363-1.19c-2.154-3.117-4.342-6.21-6.515-9.312C219.727,83.779,219.637,83.584,219.481,83.31z"/>
	</g>
</g>
</svg>
