<svg xmlns="http://www.w3.org/2000/svg" width="59.516" height="25" viewBox="0 0 59.516 25"><g transform="translate(-10.369 -6.1)"><path d="M27.654,25.285a14.961,14.961,0,0,1-4.077,3.9A10.726,10.726,0,0,1,17.7,31.1a7.256,7.256,0,0,1-4.8-1.978,8.838,8.838,0,0,1-2.458-5.216C9.788,18.15,13.325,10.6,18.781,7.239A7.52,7.52,0,0,1,22.737,6.1a4.735,4.735,0,0,1,4.856,4.137,4.548,4.548,0,0,1-2.818,4.916c-1.139.6-1.739.54-1.918.3a.51.51,0,0,1,.18-.659c2.1-1.739,2.158-3.177,1.918-5.216a2.205,2.205,0,0,0-1.978-2.158c-4.137,0-10.132,9.293-9.293,16.007.3,2.638,1.918,5.7,5.276,5.7a7.276,7.276,0,0,0,3.3-.839,11.085,11.085,0,0,0,4.736-3.957c.18-.24.36-.54.54-.779a.574.574,0,0,1,.54-.3.465.465,0,0,1,.42.48,1.426,1.426,0,0,1-.3.839c-.12.12-.36.48-.54.719Z" transform="translate(0)" fill="#24beca"/><path d="M44.472,36.832a1.78,1.78,0,0,1-1.859-1.379,3.22,3.22,0,0,1-2.578,1.379,3.579,3.579,0,0,1-3.357-3.177c-.36-3.177,2.338-7.254,6.415-7.254,1.739,0,3.177.719,3.357,2.1a1.755,1.755,0,0,1-1.8,2.1c-.48,0-1.259-.12-1.319-.6s1.019-.18.9-1.319c-.06-.719-.779-.959-1.5-.959-2.518,0-3.9,3.477-3.6,5.635.12.959.6,1.918,1.5,1.918.719,0,1.8-1.019,2.158-2.578a2.326,2.326,0,0,1,1.978-1.739.664.664,0,0,1,.719.54,2.065,2.065,0,0,1-.06.54c-.06.48-.42,1.918-.42,2.278a.626.626,0,0,0,.659.659c.54,0,3-1.439,4.376-3.357a.715.715,0,0,1,.54-.3.4.4,0,0,1,.42.36c.06.24-.06.54-.36.959-1.559,2.278-4.976,4.2-6.175,4.2Z" transform="translate(-10.524 -8.13)" fill="#24beca"/><path d="M101.453,35.713a3.116,3.116,0,0,0,1.019,2.038.519.519,0,0,1,.24.42c.06.3-.18.54-.54.54a.76.76,0,0,1-.36-.06,4.137,4.137,0,0,1-2.758-3.058,3.379,3.379,0,0,1-2.518,1.379,3.579,3.579,0,0,1-3.357-3.177c-.36-3.118,2.458-7.194,6.475-7.194,1.679,0,3.177.659,3.357,2.038a1.78,1.78,0,0,1-1.8,2.1c-.54,0-1.319-.12-1.379-.6-.06-.42,1.079-.18.959-1.259-.06-.719-.839-.959-1.5-.959-2.338,0-3.9,3.058-3.6,5.576.12,1.019.6,1.978,1.5,1.978.719,0,1.8-1.019,2.218-2.578a2.326,2.326,0,0,1,1.978-1.739.664.664,0,0,1,.719.6,14.829,14.829,0,0,1-.42,2.278,2.875,2.875,0,0,0-.24,1.679Z" transform="translate(-33.152 -8.21)" fill="#24beca"/><path d="M64.953,35.113a6.047,6.047,0,0,0,3.777-2.638.829.829,0,0,1,.54-.3.456.456,0,0,1,.48.36,1.963,1.963,0,0,1-.42.959,8.355,8.355,0,0,1-5.576,3.417,1.924,1.924,0,0,1-2.038-1.918,3.351,3.351,0,0,1,.06-1.319c.42-2.578,1.379-4.137,1.319-4.616a.191.191,0,0,0-.18-.18c-.779,0-3.6,2.878-4.017,4.8l-.36,1.5a2.246,2.246,0,0,1-1.978,1.739.6.6,0,0,1-.659-.54,2.065,2.065,0,0,1,.06-.54S57.339,28.758,57.4,28.4c.18-.839.48-1.679,2.158-1.679a.612.612,0,0,1,.659.6,2.065,2.065,0,0,1-.06.54l-.48,2.158c1.5-1.978,3.777-3.417,5.216-3.417a1.061,1.061,0,0,1,1.139.959,3.714,3.714,0,0,1-.3,1.619c-.48,1.379-1.019,3.357-1.439,5.1a.63.63,0,0,0,.659.839Z" transform="translate(-18.234 -8.21)" fill="#24beca"/><path d="M82.955,25.358A4.176,4.176,0,0,0,84.035,28a5.755,5.755,0,0,0,.36-1.978c0-1.259-.48-1.8-.839-1.8-.42,0-.6.6-.6,1.139Zm2.158,5.156a2.249,2.249,0,0,1-.6-.06,14.207,14.207,0,0,1-4.436,4.5,2.946,2.946,0,0,1-1.379.42.748.748,0,0,1-.719-.3,11.215,11.215,0,0,1-.779-4.8,13.422,13.422,0,0,1,.36-3.477,2.828,2.828,0,0,1,2.158-1.739.583.583,0,0,1,.659.6,1.853,1.853,0,0,1-.12.48,12.74,12.74,0,0,0-.779,4.376,13.328,13.328,0,0,0,.36,2.758c.06.12.06.3.18.3a12.369,12.369,0,0,0,3.058-3.537,3.838,3.838,0,0,1-1.619-3.357c0-2.518,1.5-3.777,2.938-3.777a2.222,2.222,0,0,1,2.158,2.518,7.688,7.688,0,0,1-1.019,3.357,2.12,2.12,0,0,0,.36.06A2.659,2.659,0,0,0,87.871,28c.3-.3.54-.54.779-.54.18,0,.24.12.24.3a1.853,1.853,0,0,1-.12.48,4.689,4.689,0,0,1-3.657,2.278Z" transform="translate(-26.765 -6.728)" fill="#24beca"/></g></svg>