<svg xmlns="http://www.w3.org/2000/svg" width="409" height="175.281" viewBox="0 0 409 175.281"><g transform="translate(-19 -714.719)"><rect width="7" height="7" rx="2" transform="translate(384.719 714.719) rotate(30)" fill="#3673ff"/><rect width="7" height="7" rx="2" transform="translate(50.719 719.5) rotate(30)" fill="#3673ff"/><rect width="7" height="7" rx="2" transform="translate(421.938 850.219) rotate(30)" fill="#3673ff"/><rect width="7" height="7" rx="2" transform="translate(350.719 870.219) rotate(30)" fill="#d5141b"/><rect width="7" height="7" rx="2" transform="translate(129.5 876.219) rotate(30)" fill="#3673ff"/><path d="M3.252,3.147a2,2,0,0,1,3.5,0l1.6,2.882A2,2,0,0,1,6.6,9H3.4A2,2,0,0,1,1.651,6.029Z" transform="translate(255 720)" fill="#ffe251"/><path d="M3.252,3.147a2,2,0,0,1,3.5,0l1.6,2.882A2,2,0,0,1,6.6,9H3.4A2,2,0,0,1,1.651,6.029Z" transform="translate(59 881)" fill="#ffe251"/><ellipse cx="5" cy="2" rx="5" ry="2" transform="matrix(0.875, -0.485, 0.485, 0.875, 394.657, 753.501)" fill="#38cee6"/><ellipse cx="5" cy="2" rx="5" ry="2" transform="matrix(0.819, 0.574, -0.574, 0.819, 38.928, 854.667)" fill="#bee638"/><rect width="4.328" height="4.328" rx="2" transform="translate(19 726.234) rotate(-7)" fill="#c336ff"/><rect width="4.328" height="4.328" rx="2" transform="translate(23.823 761.527) rotate(-7)" fill="#74ff36"/><ellipse cx="5" cy="2" rx="5" ry="2" transform="matrix(0.848, 0.53, -0.53, 0.848, 138.664, 726.226)" fill="#ff35f8"/><ellipse cx="2.5" cy="1" rx="2.5" ry="1" transform="matrix(0.848, 0.53, -0.53, 0.848, 407.463, 782)" fill="#ebe524"/><rect width="5" height="13" rx="2.5" transform="translate(356.806 725.975) rotate(-14)" fill="#d862a1"/><path d="M3.252,3.147a2,2,0,0,1,3.5,0l1.6,2.882A2,2,0,0,1,6.6,9H3.4A2,2,0,0,1,1.651,6.029Z" transform="translate(250 870)" fill="#8bef19"/></g></svg>