<svg xmlns="http://www.w3.org/2000/svg" xmlns:xlink="http://www.w3.org/1999/xlink" width="100.649" height="19.465" viewBox="0 0 100.649 19.465"><defs><clipPath id="a"><rect width="100.649" height="19.465" transform="translate(0 11.765)" fill="#fff"/></clipPath><clipPath id="b"><rect width="100.649" height="19.465" fill="#fff"/></clipPath></defs><g transform="translate(0 -11.765)" clip-path="url(#a)"><g transform="translate(0 11.765)" clip-path="url(#b)"><path d="M21.3,13.395a20.48,20.48,0,0,0-5.188-1.63,15.211,15.211,0,0,0-.665,1.38,19.048,19.048,0,0,0-5.749,0,14.747,14.747,0,0,0-.672-1.38A20.412,20.412,0,0,0,3.835,13.4,21.757,21.757,0,0,0,.107,27.967a20.74,20.74,0,0,0,6.362,3.26,15.823,15.823,0,0,0,1.363-2.244,13.4,13.4,0,0,1-2.146-1.044c.18-.133.356-.273.526-.416a14.662,14.662,0,0,0,12.721,0c.172.143.348.283.526.416a13.365,13.365,0,0,1-2.15,1.046,15.753,15.753,0,0,0,1.363,2.244,20.7,20.7,0,0,0,6.366-3.262A21.735,21.735,0,0,0,21.3,13.395ZM8.4,25.034a2.441,2.441,0,0,1-2.261-2.571A2.428,2.428,0,0,1,8.4,19.889a2.412,2.412,0,0,1,2.261,2.573A2.425,2.425,0,0,1,8.4,25.034Zm8.354,0a2.441,2.441,0,0,1-2.261-2.571,2.428,2.428,0,0,1,2.261-2.573,2.412,2.412,0,0,1,2.261,2.573A2.426,2.426,0,0,1,16.75,25.034Z" transform="translate(0 -11.765)" fill="#5865f2"/><path d="M98.029,26.171h5.4a7.883,7.883,0,0,1,3.3.622,4.456,4.456,0,0,1,2.021,1.731,4.814,4.814,0,0,1,.672,2.539,4.589,4.589,0,0,1-2.832,4.339,8.433,8.433,0,0,1-3.552.665H98.029Zm4.956,7.381a2.826,2.826,0,0,0,2.021-.671,2.409,2.409,0,0,0,.706-1.832,2.348,2.348,0,0,0-.629-1.717,2.554,2.554,0,0,0-1.9-.644h-1.689v4.864Z" transform="translate(-64.24 -21.205)" fill="#5865f2"/><path d="M150.7,38.447a7.236,7.236,0,0,1-2.021-.863V35.237a5.533,5.533,0,0,0,1.821.885,7.615,7.615,0,0,0,2.209.345,1.674,1.674,0,0,0,.753-.133c.17-.089.255-.2.255-.319a.483.483,0,0,0-.139-.354,1.183,1.183,0,0,0-.54-.24l-1.661-.382a4.247,4.247,0,0,1-2.027-.941,2.284,2.284,0,0,1-.075-3,3.342,3.342,0,0,1,1.495-.939,6.988,6.988,0,0,1,2.27-.333,8.391,8.391,0,0,1,2.132.255,5.851,5.851,0,0,1,1.606.65v2.22a5.9,5.9,0,0,0-1.5-.63,6.6,6.6,0,0,0-1.752-.232q-1.3,0-1.3.452a.339.339,0,0,0,.2.317,3.284,3.284,0,0,0,.74.22l1.384.255a4.028,4.028,0,0,1,2.021.84,2.27,2.27,0,0,1,.665,1.776,2.359,2.359,0,0,1-1.1,2.044,5.469,5.469,0,0,1-3.123.757A9.086,9.086,0,0,1,150.7,38.447Z" transform="translate(-97.43 -23.598)" fill="#5865f2"/><path d="M178.429,38.154a4.176,4.176,0,0,1-1.792-1.612,4.432,4.432,0,0,1-.6-2.291,4.089,4.089,0,0,1,2.45-3.852,6.651,6.651,0,0,1,2.88-.572,6.206,6.206,0,0,1,3.447.891v2.588a4.281,4.281,0,0,0-1.127-.551,4.375,4.375,0,0,0-1.378-.212,3.615,3.615,0,0,0-2.013.481,1.454,1.454,0,0,0-.728,1.258,1.471,1.471,0,0,0,.706,1.252,3.592,3.592,0,0,0,2.049.489,4.7,4.7,0,0,0,1.365-.2,5.025,5.025,0,0,0,1.155-.5v2.5a6.616,6.616,0,0,1-3.53.933A6.453,6.453,0,0,1,178.429,38.154Z" transform="translate(-115.358 -23.601)" fill="#5865f2"/><path d="M206.844,38.146a4.253,4.253,0,0,1-2.458-3.931,4.151,4.151,0,0,1,.631-2.27,4.248,4.248,0,0,1,1.822-1.564,7.4,7.4,0,0,1,5.676,0,4.052,4.052,0,0,1,2.437,3.832,4.375,4.375,0,0,1-.623,2.3,4.279,4.279,0,0,1-1.822,1.626,7.056,7.056,0,0,1-5.662,0Zm4.207-2.509a1.865,1.865,0,0,0,.506-1.363,1.809,1.809,0,0,0-.506-1.349,1.863,1.863,0,0,0-1.376-.5,1.889,1.889,0,0,0-1.393.5,1.819,1.819,0,0,0-.5,1.349,1.761,1.761,0,0,0,1.9,1.881A1.847,1.847,0,0,0,211.051,35.638Z" transform="translate(-133.936 -23.594)" fill="#5865f2"/><path d="M245.747,30.694v3.054a2.409,2.409,0,0,0-1.37-.354,2.134,2.134,0,0,0-1.7.685,3.189,3.189,0,0,0-.6,2.129v2.6h-3.392V30.539h3.323v2.63a4.407,4.407,0,0,1,.894-2.129,2.033,2.033,0,0,1,1.584-.685A2.279,2.279,0,0,1,245.747,30.694Z" transform="translate(-156.413 -23.947)" fill="#5865f2"/><path d="M271.593,25.35V35.531H268.2V33.679a3.279,3.279,0,0,1-1.307,1.592,4.056,4.056,0,0,1-2.168.543,3.528,3.528,0,0,1-2.007-.572,3.749,3.749,0,0,1-1.323-1.57,5.3,5.3,0,0,1-.465-2.256,5.093,5.093,0,0,1,.493-2.333,3.8,3.8,0,0,1,3.524-2.192,3.179,3.179,0,0,1,3.253,2.149V25.35Zm-3.9,7.3a1.8,1.8,0,0,0,.518-1.335,1.724,1.724,0,0,0-.5-1.287,2.14,2.14,0,0,0-2.747.008,1.746,1.746,0,0,0-.512,1.307,1.77,1.77,0,0,0,.512,1.315,1.841,1.841,0,0,0,1.357.509A1.879,1.879,0,0,0,267.694,32.655Z" transform="translate(-170.99 -20.667)" fill="#5865f2"/><path d="M136.167,27.544a1.557,1.557,0,1,0-1.691-1.551A1.626,1.626,0,0,0,136.167,27.544Z" transform="translate(-88.123 -20.072)" fill="#5865f2"/><path d="M134.472,36.543a4.26,4.26,0,0,0,3.382,0v6.367h-3.382Z" transform="translate(-88.121 -28.002)" fill="#5865f2"/></g></g></svg>