<svg xmlns="http://www.w3.org/2000/svg" width="17" height="17.001" viewBox="0 0 17 17.001">
  <g id="Group_432" data-name="Group 432" transform="translate(-553.198 -1208.93)">
    <g id="Ellipse_91" data-name="Ellipse 91">
      <g id="Group_433" data-name="Group 433">
        <circle id="Ellipse_162" data-name="Ellipse 162" cx="8.5" cy="8.5" r="8.5" transform="translate(553.198 1208.93)" fill="none"/>
      </g>
      <g id="Group_434" data-name="Group 434">
        <path id="Path_267" data-name="Path 267" d="M561.7,1225.931a8.5,8.5,0,1,1,8.5-8.5A8.51,8.51,0,0,1,561.7,1225.931Zm0-16a7.5,7.5,0,1,0,7.5,7.5A7.508,7.508,0,0,0,561.7,1209.93Z" fill="#707070"/>
      </g>
    </g>
    <g id="i" style="isolation: isolate">
      <g id="Group_435" data-name="Group 435" style="isolation: isolate">
        <path id="Path_268" data-name="Path 268" d="M561.849,1214.272a1.016,1.016,0,0,1-.708-.228.917.917,0,0,1,0-1.267,1.044,1.044,0,0,1,.708-.221q.963,0,.962.859T561.849,1214.272Zm0,7.748a.765.765,0,0,1-.6-.233.944.944,0,0,1-.208-.65v-4.772q0-.883.806-.884t.819.884v4.772a.944.944,0,0,1-.208.65A.781.781,0,0,1,561.849,1222.02Z" fill="#707070"/>
      </g>
    </g>
  </g>
</svg>
