<svg xmlns="http://www.w3.org/2000/svg" width="94.824" height="11.673" viewBox="0 0 94.824 11.673"><path d="M56.525,15.094H48.507l-.3.222v7.133h2.22V19.774l.212-.19h5.884c1.486,0,2.182-.4,2.182-1.425V16.521c0-1.027-.7-1.427-2.182-1.427m0,2.637c0,.483-.32.584-1.016.584H50.666l-.236-.23V16.557l.212-.194h4.868c.7,0,1.016.1,1.016.585Z" transform="translate(-34.426 -10.778)" fill="#005288"/><path d="M90.345,16.215l1.91,2.8-.106.271H87.925l-1.078,1.326h6.287l.436.265.976,1.346h2.54l-5.568-7.448" transform="translate(-62.015 -10.551)" fill="#005288"/><path d="M181.781,27.172v-1.98l.228-.2h4.249V23.734h-6.735V28.62h9.935V27.365H182.02" transform="translate(-128.194 -16.948)" fill="#005288"/><rect width="10.04" height="1.386" transform="translate(51.33 4.316)" fill="#005288"/><path d="M134.128,16.4h8.088c-.125-1.028-.763-1.314-2.382-1.314h-5.792c-1.827,0-2.409.357-2.409,1.739v3.879c0,1.384.583,1.74,2.409,1.74h5.792c1.643,0,2.272-.309,2.315-1.375h-8.021l-.238-.224v-4.3" transform="translate(-93.996 -10.775)" fill="#005288"/><path d="M8.387,17.958H2.5l-.173-.191V16.509l.172-.133h7.932l.108-.265c-.27-.7-.97-1.019-2.269-1.019H2.764c-1.826,0-2.409.357-2.409,1.739v.813c0,1.384.584,1.74,2.409,1.74H8.634l.184.162v1.316l-.15.205H1.953V21.06H.194s-.2.1-.194.148c.15.967.809,1.241,2.386,1.241h6c1.825,0,2.426-.357,2.426-1.74V19.7c0-1.382-.6-1.738-2.426-1.738" transform="translate(0 -10.776)" fill="#005288"/><path d="M228.029,14.988h-3.3l-.179.341L228.215,18c.695-.4,1.451-.81,2.273-1.212" transform="translate(-160.344 -10.703)" fill="#005288"/><path d="M247.075,28.9l3.224,2.351h3.343l.138-.311-4.814-3.523q-.959.7-1.891,1.484" transform="translate(-176.431 -19.575)" fill="#005288"/><path d="M226.913,11.667h-2.988l-.252-.4C225.7,9.31,234.791.9,254.543,0c0,0-16.579.559-27.631,11.667" transform="translate(-159.719)" fill="#a7a9ac"/></svg>