<svg xmlns="http://www.w3.org/2000/svg" width="60.08" height="25" viewBox="0 0 60.08 25"><g transform="translate(-54 -36)"><path d="M352.1,75.244c0-4.272-2.069-7.644-6.025-7.644-3.972,0-6.375,3.371-6.375,7.61,0,5.023,2.837,7.56,6.909,7.56a9.305,9.305,0,0,0,4.623-1.085V78.348a8.862,8.862,0,0,1-4.089.918c-1.619,0-3.054-.567-3.238-2.537h8.161C352.066,76.512,352.1,75.644,352.1,75.244Zm-8.244-1.585c0-1.886,1.152-2.67,2.2-2.67,1.018,0,2.1.784,2.1,2.67Z" transform="translate(-238.02 -26.326)" fill="#635bff" fill-rule="evenodd"/><path d="M265.36,67.6a4.715,4.715,0,0,0-3.271,1.3l-.217-1.035H258.2V87.326l4.172-.885.017-4.723a4.7,4.7,0,0,0,2.954,1.051c2.987,0,5.708-2.4,5.708-7.694C271.034,70.237,268.28,67.6,265.36,67.6Zm-1,11.5a2.5,2.5,0,0,1-1.969-.784l-.017-6.192a2.484,2.484,0,0,1,1.986-.818c1.519,0,2.57,1.7,2.57,3.889C266.928,77.43,265.894,79.1,264.358,79.1Z" transform="translate(-170.121 -26.326)" fill="#635bff" fill-rule="evenodd"/><path d="M223.8,40.289l4.189-.9V36l-4.189.885Z" transform="translate(-141.462)" fill="#635bff" fill-rule="evenodd"/><rect width="4.189" height="14.603" transform="translate(82.338 41.557)" fill="#635bff"/><path d="M177.572,69.674l-.267-1.235h-3.6v14.6h4.172v-9.9a2.943,2.943,0,0,1,3.171-.868V68.439A2.833,2.833,0,0,0,177.572,69.674Z" transform="translate(-99.723 -26.881)" fill="#635bff" fill-rule="evenodd"/><path d="M126.489,47.6l-4.072.868L122.4,61.836a4.193,4.193,0,0,0,4.322,4.289,6.446,6.446,0,0,0,2.921-.551V62.186c-.534.217-3.171.985-3.171-1.485V54.776h3.171V51.221h-3.171Z" transform="translate(-56.985 -9.664)" fill="#635bff" fill-rule="evenodd"/><path d="M58.222,72.123c0-.651.534-.9,1.419-.9A9.309,9.309,0,0,1,63.78,72.29V68.368a11.006,11.006,0,0,0-4.139-.768C56.253,67.6,54,69.369,54,72.323c0,4.606,6.342,3.872,6.342,5.858,0,.768-.668,1.018-1.6,1.018a10.388,10.388,0,0,1-4.556-1.335v3.972a11.569,11.569,0,0,0,4.556.951c3.471,0,5.858-1.719,5.858-4.706C64.581,73.107,58.222,73.992,58.222,72.123Z" transform="translate(0 -26.326)" fill="#635bff" fill-rule="evenodd"/></g></svg>