<svg width="48" height="48" viewBox="0 0 48 48" fill="none" xmlns="http://www.w3.org/2000/svg">
<path d="M24 0.5625C11.0719 0.5625 0.5625 11.0812 0.5625 24C0.5625 36.9188 11.0812 47.4375 24 47.4375C36.9188 47.4375 47.4375 36.9188 47.4375 24C47.4375 11.0812 36.9281 0.5625 24 0.5625ZM26.2875 40.0125C28.1344 39.75 29.9156 39.1781 31.5563 38.3063L34.5844 43.5469C32.2031 44.8406 29.6063 45.6844 26.925 46.0406L26.2875 40.0125ZM26.925 1.95937C29.6063 2.31562 32.2125 3.15937 34.5844 4.45312L31.5563 9.69375C29.9156 8.82188 28.125 8.24062 26.2875 7.9875L26.925 1.95937ZM13.6312 11.5875L9.58125 7.09687C11.6437 5.33437 14.0063 3.96562 16.5563 3.05625L18.4313 8.8125C16.6781 9.45 15.0562 10.3875 13.6312 11.5875ZM7.8375 23.4H1.77187C1.84687 20.6906 2.40937 18.0187 3.45 15.5156L8.98125 17.9813C8.2875 19.7063 7.90312 21.5344 7.8375 23.4ZM7.8375 24.6C7.90312 26.4562 8.29688 28.2938 8.98125 30.0188L3.45 32.4844C2.40937 29.9813 1.84687 27.3094 1.77187 24.6094L7.8375 24.6ZM18.4313 39.1969L16.5563 44.9531C14.0063 44.0438 11.6437 42.675 9.58125 40.9125L13.6312 36.4219C15.0562 37.6125 16.6781 38.55 18.4313 39.1969ZM37.0312 32.7281L29.9531 27.5813C29.8969 27.675 29.8313 27.7688 29.775 27.8625C29.7 27.975 29.625 28.0875 29.5406 28.1906C29.5312 28.2 29.5312 28.2094 29.5219 28.2094C29.3531 28.425 29.1844 28.6313 28.9875 28.8281L28.9781 28.8375C28.8938 28.9219 28.8094 29.0063 28.725 29.0813L28.6781 29.1281C28.6031 29.1938 28.5281 29.2594 28.4531 29.3156C28.4156 29.3438 28.3875 29.3719 28.35 29.4C28.2937 29.4469 28.2375 29.4937 28.1813 29.5312C28.125 29.5688 28.0688 29.6156 28.0031 29.6625C27.9094 29.7281 27.8062 29.7938 27.7031 29.8594L27.6188 29.9156C27.5438 29.9625 27.4594 30.0094 27.3844 30.0563L27.2719 30.1219C27.1969 30.1594 27.1125 30.2063 27.0281 30.2438L26.9344 30.2906C26.4187 30.5344 25.875 30.7031 25.3219 30.8156L25.2375 30.8344C25.1438 30.8531 25.05 30.8625 24.9563 30.8812L24.825 30.9C24.7125 30.9094 24.6094 30.9187 24.4969 30.9281L24.4313 30.9375C24.2906 30.9469 24.15 30.9469 24.0094 30.9469H24C23.8687 30.9469 23.7469 30.9469 23.6156 30.9375C23.5781 30.9375 23.55 30.9281 23.5125 30.9281C23.4188 30.9187 23.3344 30.9188 23.2406 30.9094L23.1 30.8906C23.025 30.8813 22.95 30.8719 22.875 30.8625C22.8281 30.8531 22.7719 30.8438 22.725 30.8344C22.65 30.8156 22.575 30.8062 22.5094 30.7875L22.3594 30.75L22.2 30.7125L22.0594 30.675C22.0031 30.6563 21.9469 30.6469 21.8906 30.6188L21.75 30.5719L21.5906 30.5156C21.525 30.4875 21.4594 30.4594 21.3844 30.4406L21.2906 30.4031L21.2719 30.3938C21.1594 30.3469 21.0469 30.2906 20.9344 30.2344L20.8406 30.1875C20.7563 30.1406 20.6719 30.0938 20.5875 30.0469L20.4844 29.9906C20.3906 29.9344 20.2969 29.8781 20.2031 29.8219L20.1562 29.7937C20.0438 29.7187 19.9312 29.6344 19.8187 29.5594C19.6969 29.4656 19.575 29.3625 19.4531 29.2688C19.4156 29.2406 19.3781 29.2031 19.3406 29.175C19.3031 29.1469 19.275 29.1188 19.2469 29.0813C19.2188 29.0438 19.1531 28.9969 19.1063 28.95C19.0781 28.9219 19.05 28.8937 19.0125 28.8562C18.9656 28.8094 18.9281 28.7719 18.8906 28.725C18.8062 28.6312 18.7219 28.5469 18.6469 28.4437L18.6375 28.4344C18.5531 28.3312 18.4781 28.2281 18.4031 28.125C18.3844 28.0969 18.3563 28.0594 18.3375 28.0312C18.2812 27.9562 18.2344 27.8813 18.1781 27.8063L18.1031 27.6937C18.0563 27.6187 18.0094 27.5438 17.9719 27.4688C17.9438 27.4312 17.925 27.3844 17.8969 27.3469C17.8781 27.3188 17.8687 27.2906 17.85 27.2625C17.8125 27.1969 17.7844 27.1406 17.7562 27.075C17.7375 27.0375 17.7188 26.9906 17.7 26.9531C17.6812 26.9156 17.6531 26.85 17.625 26.7937C17.5969 26.7375 17.5875 26.7 17.5687 26.6531C17.55 26.6062 17.5312 26.5594 17.5125 26.5031C17.4937 26.4469 17.4656 26.3906 17.4469 26.3344C17.4375 26.3062 17.4281 26.2781 17.4188 26.2406C17.3906 26.1469 17.3531 26.0437 17.325 25.95C17.3156 25.9125 17.3062 25.875 17.2969 25.8375C17.2687 25.7438 17.25 25.6406 17.2219 25.5375C17.2125 25.5094 17.2031 25.4813 17.2031 25.4531C17.175 25.3219 17.1562 25.1906 17.1281 25.0594L17.1188 25.0125C17.1 24.9 17.0906 24.7781 17.0812 24.6656C17.0719 24.6094 17.0719 24.5531 17.0719 24.4969C17.0719 24.4406 17.0625 24.3938 17.0625 24.3469C17.0625 24.3 17.0625 24.2156 17.0625 24.1594C17.0625 24.1125 17.0625 24.075 17.0625 24.0281C17.0625 23.9812 17.0625 23.9438 17.0625 23.9062C17.0625 23.8406 17.0625 23.775 17.0719 23.7094C17.0719 23.6625 17.0812 23.6063 17.0812 23.5594C17.0812 23.5125 17.0906 23.4469 17.0906 23.3812C17.1 23.2594 17.1187 23.1375 17.1375 23.0156C17.1375 23.0063 17.1375 22.9969 17.1375 22.9875C17.1562 22.8562 17.1844 22.7156 17.2125 22.5844C17.2125 22.5656 17.2219 22.5562 17.2219 22.5375C17.25 22.425 17.2781 22.3125 17.3063 22.2L17.3344 22.1156C17.3625 22.0125 17.3906 21.9187 17.4281 21.8156C17.4375 21.7875 17.4469 21.75 17.4562 21.7219C17.475 21.6656 17.5031 21.6 17.5219 21.5438L17.5687 21.4219C17.5875 21.3656 17.6156 21.3094 17.6437 21.2531C17.6719 21.1969 17.6906 21.1594 17.7094 21.1125C17.7281 21.0656 17.7563 21.0187 17.775 20.9719C17.8125 20.9062 17.8406 20.8312 17.8781 20.7656C17.8875 20.7469 17.8969 20.7281 17.9062 20.7C17.9344 20.6531 17.9625 20.6063 17.9906 20.5594C18.0281 20.4844 18.075 20.4188 18.1125 20.3531C18.1406 20.3156 18.1594 20.2781 18.1875 20.2313C18.2344 20.1562 18.2906 20.0812 18.3375 20.0062L18.4031 19.9125C18.4781 19.8094 18.5625 19.7063 18.6375 19.6031L18.6469 19.5938C18.7219 19.5 18.8062 19.4062 18.8906 19.3219C18.9375 19.2656 18.9937 19.2094 19.05 19.1625L19.1063 19.1063C19.1719 19.0406 19.2281 18.9844 19.2938 18.9188L19.3406 18.8812C19.5 18.7406 19.6688 18.6 19.8375 18.4688C19.9406 18.3937 20.0437 18.3188 20.1469 18.2531C20.1844 18.2344 20.2219 18.2062 20.25 18.1875C20.325 18.1406 20.3906 18.0938 20.4656 18.0563C20.5125 18.0281 20.5594 18 20.6063 17.9813C20.6719 17.9438 20.7469 17.9062 20.8125 17.8688L20.9531 17.7938C21.0375 17.7469 21.1313 17.7094 21.2156 17.6719C21.3375 17.6156 21.4688 17.5688 21.6 17.5125L21.6937 17.475C21.7594 17.4562 21.8344 17.4281 21.9 17.4094L22.0219 17.3719C22.0875 17.3531 22.1531 17.3344 22.2094 17.3156L22.3219 17.2875C22.3875 17.2687 22.4531 17.2594 22.5187 17.2406C22.5844 17.2219 22.6406 17.2125 22.6969 17.2031C22.7531 17.1938 22.8188 17.175 22.8844 17.1656L23.0625 17.1375C23.1281 17.1281 23.1844 17.1187 23.25 17.1094L23.4469 17.0906C23.5031 17.0906 23.5594 17.0812 23.625 17.0812C23.7188 17.0812 23.8125 17.0719 23.9062 17.0719H24C24.15 17.0719 24.3 17.0813 24.4406 17.0906C24.5719 17.1 24.7031 17.1094 24.825 17.1281L24.9187 17.1375C25.0312 17.1562 25.1437 17.1656 25.2469 17.1937L25.3031 17.2031C25.4437 17.2313 25.5844 17.2594 25.7156 17.2969C25.8094 17.325 25.9125 17.3531 26.0062 17.3812C26.0437 17.3906 26.0813 17.4 26.1188 17.4094C26.2219 17.4375 26.3156 17.4844 26.4187 17.5125C26.4562 17.5219 26.4844 17.5312 26.5219 17.55C26.5594 17.5688 26.5969 17.5781 26.6344 17.5969C26.7281 17.6344 26.8219 17.6719 26.9156 17.7188L26.9531 17.7375C27.0562 17.7844 27.15 17.8313 27.2438 17.8875C27.2719 17.9062 27.3094 17.925 27.3375 17.9344C27.4219 17.9813 27.5062 18.0281 27.5906 18.0844L27.6656 18.1312C27.7688 18.1969 27.8719 18.2625 27.9656 18.3375C28.0312 18.3844 28.0969 18.4313 28.1531 18.4781C28.2 18.5156 28.2562 18.5531 28.3031 18.5906C28.35 18.6281 28.3875 18.6656 28.4344 18.7031C28.5 18.7594 28.5656 18.8156 28.6312 18.8719L28.6594 18.9C28.95 19.1719 29.2219 19.4625 29.4656 19.7719L29.5031 19.8187C29.5781 19.9125 29.6437 20.0156 29.7094 20.1094C29.775 20.2031 29.85 20.325 29.925 20.4375L37.4062 15L42.3 11.4469C47.5031 19.0219 47.5031 29.0156 42.3 36.5813L37.4062 33.0094L37.3781 32.9906L37.0312 32.7281ZM41.6156 10.4531L36.7219 14.0062C35.5688 12.5437 34.1812 11.2875 32.6062 10.2938L35.6344 5.0625C37.9406 6.4875 39.9656 8.31563 41.6156 10.4531ZM25.725 1.8375L25.0875 7.86563C24.7313 7.8375 24.3656 7.82812 24 7.82812C22.5 7.82812 21.0188 8.03438 19.575 8.4375L17.7 2.68125C19.7437 2.08125 21.8625 1.77187 23.9906 1.77187C24.5812 1.77187 25.1531 1.79063 25.725 1.8375ZM8.69062 7.89375L12.7406 12.3937C11.4 13.6875 10.3031 15.2063 9.47812 16.875L3.94687 14.4188C5.11875 11.9719 6.72187 9.75937 8.69062 7.89375ZM3.94687 33.5813L9.47812 31.1156C10.3031 32.7844 11.4 34.3031 12.7406 35.5969L8.69062 40.0875C6.73125 38.2313 5.11875 36.0281 3.94687 33.5813ZM17.7094 45.3187L19.5844 39.5625C21.0187 39.975 22.5094 40.1813 24.0094 40.1719C24.375 40.1719 24.7406 40.1625 25.0969 40.1344L25.7344 46.1625C25.1625 46.2094 24.5906 46.2281 24.0094 46.2281C21.8719 46.2281 19.7531 45.9281 17.7094 45.3187ZM35.6344 42.9281L32.6156 37.6875C34.1906 36.6937 35.5875 35.4375 36.7312 33.975L41.625 37.5281C39.9656 39.6844 37.9313 41.5125 35.6344 42.9281Z" fill="#77D41C"/>
</svg>
