<?xml version="1.0" encoding="UTF-8"?>
<svg width="1728px" height="322px" viewBox="0 0 1728 322" version="1.1" xmlns="http://www.w3.org/2000/svg" xmlns:xlink="http://www.w3.org/1999/xlink">
    <!-- Generator: Sketch 62 (91390) - https://sketch.com -->
    <title>Group</title>
    <desc>Created with Sketch.</desc>
    <g id="Page-1" stroke="none" stroke-width="1" fill="none" fill-rule="evenodd">
        <g id="gravity_logo3" transform="translate(-16.000000, -249.000000)">
            <g id="Group" transform="translate(19.000000, 249.470000)">
                <g id="Logo" transform="translate(0.000000, 43.530000)" stroke="#000000">
                    <g id="Grid" stroke-linecap="round" stroke-width="5">
                        <path d="M0,113.421 C20.364,123.501 40.148,134.709 59.81,146.115 C75.539,155.238 91.19,164.487 107.126,173.23 C123.062,181.973 139.285,190.215 155.792,197.824 C176.424,207.334 197.5,215.858 218.447,224.69 C243.579,235.289 268.525,246.328 292.962,258.422" id="Stroke-1"></path>
                        <path d="M0,113.421 C24.037,103.961 48.476,95.55 73.05,87.553 C93.528,80.889 114.102,74.513 134.345,67.199 C150.541,61.346 166.527,54.894 182.274,47.92 C198.02,40.945 213.526,33.449 229.101,26.084 C248.569,16.879 268.147,7.884 288.177,2.84217094e-14" id="Stroke-2"></path>
                        <path d="M288.177,-2.84217094e-14 C308.182,7.093 327.785,15.284 347.284,23.695 C362.883,30.424 378.415,37.293 394.16,43.654 C409.906,50.016 425.865,55.87 442.019,61.105 C462.209,67.648 482.705,73.225 503.118,79.081 C527.614,86.108 551.992,93.539 576,102.051" id="Stroke-3"></path>
                        <path d="M576,102.051 C556.326,112.919 537.287,124.899 518.369,137.051 C503.234,146.772 488.179,156.607 472.811,165.946 C457.445,175.283 441.765,184.124 425.786,192.366 C405.812,202.669 385.367,212.036 365.069,221.712 C340.712,233.322 316.569,245.378 292.962,258.422" id="Stroke-4"></path>
                        <path d="M0,113.421 C20.364,123.501 40.148,134.709 59.81,146.115 C75.539,155.238 91.19,164.487 107.126,173.23 C123.062,181.973 139.285,190.215 155.792,197.824 C176.424,207.334 197.5,215.858 218.447,224.69 C243.579,235.289 268.525,246.328 292.962,258.422" id="Stroke-5"></path>
                        <path d="M0,113.421 C24.037,103.961 48.476,95.55 73.05,87.553 C93.528,80.889 114.102,74.513 134.345,67.199 C150.541,61.346 166.527,54.894 182.274,47.92 C198.02,40.945 213.526,33.449 229.101,26.084 C248.569,16.879 268.147,7.884 288.177,2.84217094e-14" id="Stroke-6"></path>
                        <path d="M288.177,-2.84217094e-14 C308.182,7.093 327.785,15.284 347.284,23.695 C362.883,30.424 378.415,37.293 394.16,43.654 C409.906,50.016 425.865,55.87 442.019,61.105 C462.209,67.648 482.705,73.225 503.118,79.081 C527.614,86.108 551.992,93.539 576,102.051" id="Stroke-7"></path>
                        <path d="M576,102.051 C556.326,112.919 537.287,124.899 518.369,137.051 C503.234,146.772 488.179,156.607 472.811,165.946 C457.445,175.283 441.765,184.124 425.786,192.366 C405.812,202.669 385.367,212.036 365.069,221.712 C340.712,233.322 316.569,245.378 292.962,258.422" id="Stroke-8"></path>
                        <path d="M339.297,20.257 C333.341,23.522 327.482,26.958 321.718,30.564 C310.185,37.778 299.012,45.501 288.199,53.737 C282.792,57.856 277.431,62.03 272.114,66.258" id="Stroke-9"></path>
                        <path d="M221.05,103.805 C214.733,107.438 208.113,110.598 201.26,113.094 C192.122,116.421 182.574,118.566 172.958,120.049 C160.934,121.903 148.805,122.724 136.709,123.928 C122.192,125.373 107.721,127.373 93.411,130.206 C79.099,133.039 64.948,136.706 51.019,141.029" id="Stroke-10"></path>
                        <path d="M126.952,69.795 C136.359,76.365 145.34,83.581 153.769,91.383 C165.001,101.782 175.254,113.224 184.475,125.446 C196,140.721 205.913,157.215 215.06,173.999" id="Stroke-11"></path>
                        <line x1="225.343" y1="193.122" x2="228.25" y2="198.492" id="Stroke-12"></line>
                        <path d="M393.29,43.303 C389.007,46.402 384.823,49.64 380.74,53.02 C372.575,59.779 364.905,67.057 357.733,74.86 C354.147,78.762 350.686,82.764 347.35,86.866" id="Stroke-13"></path>
                        <path d="M215.224,194.9 C207.771,188.684 199.853,182.88 191.19,178.465 C182.528,174.051 173.123,171.027 163.526,169.393 C153.926,167.759 144.136,167.517 134.427,168.149 C124.71,168.782 115.073,170.293 105.582,172.381" id="Stroke-14"></path>
                        <line x1="354.657" y1="195.795" x2="357.285" y2="190.487" id="Stroke-15"></line>
                        <path d="M367.272,170.17 C375.723,153.247 384.938,136.582 395.764,121.046 C404.428,108.613 414.121,96.903 424.817,86.174 C432.842,78.125 441.432,70.63 450.472,63.756" id="Stroke-16"></path>
                        <path d="M225.843,227.817 C238.558,222.771 251.503,218.265 264.664,214.506 C277.827,210.747 291.206,207.734 304.666,205.312 C315.881,203.294 327.151,201.685 338.366,199.54 C347.335,197.823 356.271,195.765 364.846,192.668 C373.412,189.573 381.619,185.446 389.353,180.603 C399.025,174.546 407.952,167.369 416.589,159.908 C426.957,150.952 436.908,141.589 447.026,132.392 C457.149,123.191 467.443,114.159 478.116,105.588 C488.788,97.018 499.841,88.909 511.301,81.438" id="Stroke-17"></path>
                        <path d="M184.132,47.09 C188.565,50.043 192.901,53.142 197.141,56.387 C205.621,62.877 213.619,69.911 221.133,77.495 C224.891,81.288 228.523,85.187 232.031,89.195" id="Stroke-18"></path>
                        <path d="M367.426,191.686 C374.569,185.216 382.173,179.123 390.566,174.352 C398.959,169.581 408.143,166.135 417.584,164.066 C427.03,161.997 436.733,161.309 446.391,161.511 C456.06,161.714 465.684,162.81 475.184,164.496" id="Stroke-19"></path>
                        <path d="M237.693,22.032 C243.719,25.057 249.659,28.254 255.512,31.623 C267.218,38.36 278.589,45.615 289.622,53.391 C295.14,57.279 300.612,61.225 306.04,65.231" id="Stroke-20"></path>
                        <path d="M358.977,101.272 C365.324,104.59 371.946,107.44 378.771,109.627 C387.874,112.544 397.334,114.28 406.836,115.365 C418.715,116.721 430.658,117.058 442.585,117.769 C456.899,118.622 471.187,120.014 485.351,122.241 C499.516,124.469 513.554,127.537 527.391,131.27" id="Stroke-21"></path>
                        <path d="M353.458,196.115 C353.456,196.117 353.455,196.119 353.453,196.121" id="Stroke-22"></path>
                        <path d="M163.659,201.363 C173.123,199.037 182.77,197.232 192.492,196.404 C200.27,195.741 208.097,195.701 215.871,196.465 C218.764,196.749 221.65,197.145 224.51,197.672" id="Stroke-24"></path>
                        <path d="M224.51,197.672 C222.13,197.067 219.769,196.399 217.431,195.654 C208.704,192.874 200.302,189.025 192.344,184.453 C182.393,178.736 173.137,171.883 164.153,164.742 C153.369,156.169 142.975,147.18 132.413,138.375 C121.846,129.564 111.107,120.943 100.008,112.798 C88.911,104.655 77.451,96.992 65.614,89.979" id="Stroke-25"></path>
                        <path d="M358.645,224.784 C345.649,220.271 332.439,216.326 319.044,213.157 C305.646,209.987 292.065,207.589 278.432,205.781 C267.071,204.274 255.675,203.171 244.315,201.493 C240.121,200.873 235.932,200.174 231.778,199.328" id="Stroke-26"></path>
                        <path d="M231.778,199.328 C229.341,198.832 226.916,198.284 224.51,197.672" id="Stroke-27"></path>
                        <path d="M224.51,197.672 C226.956,198.124 229.383,198.671 231.778,199.328" id="Stroke-28"></path>
                        <path d="M231.778,199.328 C232.224,199.45 232.669,199.576 233.113,199.706" id="Stroke-29"></path>
                    </g>
                    <path d="M204.635676,130.81152 C206.241451,117.841677 210.990401,105.05817 218.326967,94.0064326 C225.663534,82.9536421 235.590922,73.6326204 247.119812,66.96031 C258.648702,60.2890525 271.780163,56.2644008 285.125299,55.3927263 C298.469367,54.5210518 312.027111,56.7981435 324.344466,61.9450234 C336.659684,67.0897979 347.739854,75.1043607 356.401212,85.1444086 C365.063638,95.186562 371.312594,107.253148 374.503845,120.046129 C377.695097,132.83911 377.828644,146.358487 374.891667,159.24411 C371.95469,172.12868 365.950394,184.379497 357.644806,194.566929 C354.636248,195.354384 351.614869,196.075516 348.579601,196.739799 C344.858433,197.554625 341.118034,198.282073 337.361609,198.923196 C333.604116,199.563266 329.833803,200.1128 326.053874,200.596011 C321.012188,201.23924 315.956613,201.759297 310.891423,202.164604 C304.558065,202.672028 298.208682,202.995222 291.858231,203.135237 C285.466112,203.275252 279.067584,203.218404 272.677602,202.987852 C267.566471,202.803622 262.458546,202.509905 257.361304,202.077226 C253.53864,201.75298 249.724523,201.350831 245.917884,200.870778 C242.111246,200.390726 238.315291,199.831717 234.538568,199.177961 C231.428513,198.640007 228.330211,198.036783 225.246865,197.369342 C221.298132,192.899378 217.831239,188.012527 214.848322,182.711946 C208.881418,172.111836 205.373926,160.774804 204.327982,148.699796 C203.804476,142.660187 203.908109,136.697428 204.635676,130.81152 Z" id="Planet" fill="#000000"></path>
                </g>
                <path d="M723.303,174.96 C735.615,174.96 747.603,173.097 759.267,169.371 C770.931,165.645 781.137,160.299 789.885,153.333 L789.885,153.333 L789.885,85.536 L759.996,85.536 L759.996,138.51 C749.952,144.342 738.288,147.258 725.004,147.258 C713.178,147.258 702.6075,144.666 693.2925,139.482 C683.9775,134.298 676.6875,127.17 671.4225,118.098 C666.1575,109.026 663.525,98.82 663.525,87.48 C663.525,75.816 666.1575,65.448 671.4225,56.376 C676.6875,47.304 683.9775,40.257 693.2925,35.235 C702.6075,30.213 713.259,27.702 725.247,27.702 C743.553,27.702 759.186,34.182 772.146,47.142 L772.146,47.142 L792.072,27.702 C784.134,18.63 774.333,11.745 762.669,7.047 C751.005,2.349 738.045,-1.42108547e-14 723.789,-1.42108547e-14 C706.293,-1.42108547e-14 690.5385,3.7665 676.5255,11.2995 C662.5125,18.8325 651.537,29.241 643.599,42.525 C635.661,55.809 631.692,70.794 631.692,87.48 C631.692,104.166 635.661,119.151 643.599,132.435 C651.537,145.719 662.472,156.1275 676.404,163.6605 C690.336,171.1935 705.969,174.96 723.303,174.96 Z M857.028,172.53 L857.028,122.958 L895.90125,122.95725 C898.57875,122.94875 900.606,122.868 901.983,122.715 L901.983,122.715 L936.732,172.53 L970.752,172.53 L931.629,116.64 C943.293,112.104 952.2435,105.219 958.4805,95.985 C964.7175,86.751 967.836,75.735 967.836,62.937 C967.836,50.463 964.92,39.69 959.088,30.618 C953.256,21.546 944.8725,14.58 933.9375,9.72 C923.0025,4.86 910.164,2.43 895.422,2.43 L895.422,2.43 L825.438,2.43 L825.438,172.53 L857.028,172.53 Z M893.964,96.957 L857.028,96.957 L857.028,29.16 L893.964,29.16 C907.734,29.16 918.183,32.076 925.311,37.908 C932.439,43.74 936.003,52.083 936.003,62.937 C936.003,73.791 932.439,82.1745 925.311,88.0875 C918.183,94.0005 907.734,96.957 893.964,96.957 L893.964,96.957 Z M1015.576,172.53 L1032.343,133.164 L1117.393,133.164 L1134.403,172.53 L1167.451,172.53 L1090.663,2.43 L1059.559,2.43 L983.014,172.53 L1015.576,172.53 Z M1106.944,108.378 L1043.035,108.378 L1074.868,34.02 L1106.944,108.378 Z M1240.492,172.53 L1314.607,2.43 L1283.017,2.43 L1225.912,133.65 L1169.293,2.43 L1135.03,2.43 L1209.388,172.53 L1240.492,172.53 Z M1372.179,172.53 L1372.179,2.43 L1340.589,2.43 L1340.589,172.53 L1372.179,172.53 Z M1483.202,172.53 L1483.202,29.16 L1539.578,29.16 L1539.578,2.43 L1395.236,2.43 L1395.236,29.16 L1451.612,29.16 L1451.612,172.53 L1483.202,172.53 Z M1658.348,172.53 L1658.348,112.509 L1724.93,2.43 L1693.826,2.43 L1643.525,85.293 L1593.71,2.43 L1559.933,2.43 L1626.758,112.995 L1626.758,172.53 L1658.348,172.53 Z" id="GRAVITY" fill="#000000" fill-rule="nonzero"></path>
                <path d="M693.552,320.53 C704.474667,320.53 712.709333,318.482 718.256,314.386 C723.802667,310.29 726.576,304.444667 726.576,296.85 C726.576,290.706 724.890667,285.714 721.52,281.874 C718.149333,278.034 713.264,275.516667 706.864,274.322 C711.472,272.786 715.12,270.268667 717.808,266.77 C720.496,263.271333 721.84,258.962 721.84,253.842 C721.84,246.503333 719.130667,240.85 713.712,236.882 C708.293333,232.914 700.72,230.93 690.992,230.93 L690.992,230.93 L653.616,230.93 L653.616,320.53 L693.552,320.53 Z M690.736,272.274 L660.144,272.274 L660.144,236.562 L690.736,236.562 C698.586667,236.562 704.624,238.076667 708.848,241.106 C713.072,244.135333 715.184,248.551333 715.184,254.354 C715.184,260.242 713.072,264.700667 708.848,267.73 C704.624,270.759333 698.586667,272.274 690.736,272.274 L690.736,272.274 Z M693.552,314.898 L660.144,314.898 L660.144,277.906 L693.552,277.906 C702.256,277.906 708.848,279.399333 713.328,282.386 C717.808,285.372667 720.048,290.023333 720.048,296.338 C720.048,302.652667 717.808,307.324667 713.328,310.354 C708.848,313.383333 702.256,314.898 693.552,314.898 L693.552,314.898 Z M866.4,320.53 L866.4,291.218 L892,291.218 C894.645333,291.218 897.546667,291.004667 900.704,290.578 L900.704,290.578 L922.08,320.53 L929.504,320.53 L907.104,289.17 C913.845333,287.207333 919.029333,283.815333 922.656,278.994 C926.282667,274.172667 928.096,268.220667 928.096,261.138 C928.096,251.666 924.896,244.263333 918.496,238.93 C912.096,233.596667 903.264,230.93 892,230.93 L892,230.93 L859.872,230.93 L859.872,320.53 L866.4,320.53 Z M892,285.458 L866.4,285.458 L866.4,236.818 L892,236.818 C901.557333,236.818 908.853333,238.93 913.888,243.154 C918.922667,247.378 921.44,253.372667 921.44,261.138 C921.44,268.903333 918.922667,274.898 913.888,279.122 C908.853333,283.346 901.557333,285.458 892,285.458 L892,285.458 Z M1068.56,320.53 L1068.56,230.93 L1062.032,230.93 L1062.032,320.53 L1068.56,320.53 Z M1245.248,320.53 C1254.54933,320.53 1262.80533,318.61 1270.016,314.77 C1277.22667,310.93 1282.83733,305.618 1286.848,298.834 C1290.85867,292.05 1292.864,284.348667 1292.864,275.73 C1292.864,267.111333 1290.85867,259.41 1286.848,252.626 C1282.83733,245.842 1277.22667,240.53 1270.016,236.69 C1262.80533,232.85 1254.54933,230.93 1245.248,230.93 L1245.248,230.93 L1209.792,230.93 L1209.792,320.53 L1245.248,320.53 Z M1244.736,314.642 L1216.32,314.642 L1216.32,236.818 L1244.736,236.818 C1253.01333,236.818 1260.30933,238.460667 1266.624,241.746 C1272.93867,245.031333 1277.80267,249.618 1281.216,255.506 C1284.62933,261.394 1286.336,268.135333 1286.336,275.73 C1286.336,283.324667 1284.62933,290.066 1281.216,295.954 C1277.80267,301.842 1272.93867,306.428667 1266.624,309.714 C1260.30933,312.999333 1253.01333,314.642 1244.736,314.642 L1244.736,314.642 Z M1463.792,321.17 C1470.02133,321.17 1475.93067,320.188667 1481.52,318.226 C1487.10933,316.263333 1491.86667,313.404667 1495.792,309.65 L1495.792,309.65 L1495.792,276.114 L1489.52,276.114 L1489.52,306.962 C1482.77867,312.423333 1474.288,315.154 1464.048,315.154 C1456.368,315.154 1449.456,313.426 1443.312,309.97 C1437.168,306.514 1432.32533,301.778 1428.784,295.762 C1425.24267,289.746 1423.472,283.068667 1423.472,275.73 C1423.472,268.306 1425.22133,261.586 1428.72,255.57 C1432.21867,249.554 1437.06133,244.839333 1443.248,241.426 C1449.43467,238.012667 1456.368,236.306 1464.048,236.306 C1469.68,236.306 1474.82133,237.138 1479.472,238.802 C1484.12267,240.466 1488.32533,243.175333 1492.08,246.93 L1492.08,246.93 L1496.176,242.578 C1492.25067,238.567333 1487.536,235.516667 1482.032,233.426 C1476.528,231.335333 1470.49067,230.29 1463.92,230.29 C1454.96,230.29 1446.91733,232.252667 1439.792,236.178 C1432.66667,240.103333 1427.07733,245.522 1423.024,252.434 C1418.97067,259.346 1416.944,267.111333 1416.944,275.73 C1416.944,284.348667 1418.97067,292.114 1423.024,299.026 C1427.07733,305.938 1432.66667,311.356667 1439.792,315.282 C1446.91733,319.207333 1454.91733,321.17 1463.792,321.17 Z M1696.288,320.53 L1696.288,314.642 L1640.992,314.642 L1640.992,277.906 L1688.736,277.906 L1688.736,272.146 L1640.992,272.146 L1640.992,236.818 L1694.368,236.818 L1694.368,230.93 L1634.464,230.93 L1634.464,320.53 L1696.288,320.53 Z" id="BRIDGE" fill="#000000" fill-rule="nonzero"></path>
            </g>
        </g>
    </g>
</svg>