<?xml version="1.0" encoding="utf-8"?>
<!-- Generator: Adobe Illustrator 24.1.0, SVG Export Plug-In . SVG Version: 6.00 Build 0)  -->
<svg version="1.1" id="Layer_1" xmlns="http://www.w3.org/2000/svg" xmlns:xlink="http://www.w3.org/1999/xlink" x="0px" y="0px"
	 viewBox="0 0 876.7 84" style="enable-background:new 0 0 876.7 84;" xml:space="preserve">
<style type="text/css">
	.st0{fill:#0E4284;}
	.st1{fill:#FBFBFC;}
	.st2{fill:#0F4284;}
</style>
<g>
	<g>
		<path class="st0" d="M766,84c-11.3,0-22.6,0-33.9,0c0-2.8,0-5.5,0-8.4c-3.2-0.2-5.8-0.4-8.8-0.5c0-13.8,0-27.5,0-41.2
			c-2.9,0-5.5,0-8.2,0c0,16.9,0,33.5,0,50.2c-11.3,0-22.6,0-33.9,0c0-2.7,0-5.5,0-8.5c-3-0.1-5.6-0.3-8.6-0.4c0-16.9,0-33.2,0-49.8
			c-3,0-5.6,0-8.4,0c0,19.8,0,39.2,0,58.7c-11.3,0-22.6,0-33.9,0c0-2.7,0-5.5,0-8.4c-2.8-0.2-5.4-0.3-7.9-0.5
			c-0.1-2.9-0.3-5.3-0.4-7.6c-11.4,0-22.4,0-33.6,0c0,5.7,0,11.1,0,16.5c-22.6,0-45.3,0-68,0c0-2.7,0-5.5,0-8.4c-2.8,0-5.3,0-8,0
			c0,2.9,0,5.7,0,8.4c-11.3,0-22.6,0-33.9,0c0-2.7,0-5.4,0-8c-3.3,0-5.7,0-8.4,0c-0.2,2.8-0.4,5.4-0.6,8c-19.6,0-39.3,0-59,0
			c0-2.7,0-5.5,0-8.5c-3-0.1-5.5-0.3-8-0.4c-0.2-3-0.3-5.4-0.4-7.8c-3-0.1-5.6-0.3-8-0.4c0-19.7,0-38.9,0-58.3
			c2.9-0.1,5.5-0.3,8.5-0.4c0-3,0-5.5,0-8.2c19.8,0,39.1,0,59.2,0c0,2.9,0,5.6,0,8.2c5.8,0,11.1,0,16.6,0c0.1-2.8,0.2-5.4,0.4-8
			c19.7,0,39.2,0,59.2,0c0,2.9,0,5.5,0,8.1c2.7,0,5,0,7.4,0c0.2-2.9,0.3-5.6,0.4-8.1c22.9,0,45.3,0,67.8,0c0.2,2.9,0.3,5.4,0.5,8
			c2.9,0,5.5,0,8.5,0c0-2.9,0-5.4,0-8.2c33.8,0,67.3,0,100.9,0c0.2,2.6,0.4,5.2,0.6,7.8c2.9,0,5.5,0,8.4,0c0-2.7,0-5.1,0-7.6
			c19.9,0,39.4,0,59.3,0c0,2.9,0,5.5,0,8.1c2.7,0,5,0,7.4,0c0.2-2.9,0.3-5.6,0.5-8.2c11.5,0,22.6,0,34,0c0,2.9,0,5.4,0,8.2
			c2.9,0.1,5.5,0.2,8.5,0.4c0,13.9,0,27.5,0,41.6c8.7,0,16.9,0,25.5,0c0,2.9,0,5.4,0,8.3c3.1-0.2,5.9-0.3,8.6-0.5
			c0,8.6,0,17.1,0,25.7c-33.9,0-68,0-101.9,0c0-2.7,0-5.4,0-8.4c-2.9,0-5.4,0-8.4,0C765.7,78.6,765.9,81.3,766,84z M495.2,67
			c0-5.6,0-10.9,0-16.3c8.6,0,16.6,0,25.2,0c0,5.6,0,10.9,0,16.3c5.9,0,11.3,0,16.5,0c0-16.9,0-33.4,0-50.3c-2.8,0-5.2,0-7.8,0
			c-0.2-2.8-0.4-5.4-0.5-7.9c-14.3,0-28,0-41.8,0c-0.2,2.8-0.3,5.2-0.4,7.8c-2.7,0.2-5.3,0.3-7.7,0.5c0,16.9,0,33.5,0,50.1
			C484.2,67,489.5,67,495.2,67z M749.1,67c0-5.8,0-11,0-16.4c8.4,0,16.5,0,25,0c0,5.5,0,10.9,0,16.3c5.9,0,11.2,0,16.6,0
			c0-16.8,0-33.4,0-50.3c-2.8,0-5.2,0-7.8,0c-0.2-2.8-0.4-5.4-0.7-8c-14.1,0-27.9,0-41.7,0c-0.2,2.8-0.4,5.3-0.6,7.9
			c-2.8,0.1-5.2,0.3-7.7,0.4c0,16.9,0,33.4,0,50.1C737.9,67,743.1,67,749.1,67z M554.6,8.5c0,19.7,0,39,0,58.4c5.7,0,11.1,0,16.9,0
			c0-5.7,0-11,0-16.7c11.4,0,22.3,0,33.6,0c0-2.9,0-5.5,0-8.1c2.9-0.2,5.4-0.3,7.9-0.4c0-8.4,0-16.5,0-25c-2.8,0-5.2,0-8.2,0
			c0-2.9,0-5.4,0-8.1C587.9,8.5,571.5,8.5,554.6,8.5z M452.5,8.6c-14,0-27.7,0-41.7,0c-0.2,2.7-0.3,5.3-0.5,8.1c-2.7,0-5.2,0-7.7,0
			c0,14.1,0,27.8,0,41.6c2.8,0.2,5.2,0.3,7.8,0.5c0.1,2.8,0.3,5.4,0.4,8c14.1,0,27.9,0,41.8,0c0.2-2.8,0.3-5.3,0.5-8
			c3-0.2,5.4-0.3,8-0.5c0-2.7,0-5.2,0-7.8c-5.7,0-11.1,0-16.8,0c0,2.7,0,5.1,0,7.8c-8.4,0-16.5,0-24.8,0c0-13.9,0-27.6,0-41.5
			c8.4,0,16.5,0,24.7,0c0.1,2.7,0.3,5.3,0.4,7.7c5.8,0,11.2,0,16.5,0c0-2.8,0-5.2,0-7.8c-2.8-0.1-5.4-0.3-8.1-0.4
			C452.8,13.7,452.6,11.2,452.5,8.6z M858.5,58.6c-11.2,0-22.2,0-33.6,0c0-17,0-33.4,0-50c-5.8,0-11.1,0-16.6,0
			c0,19.6,0,38.9,0,58.2c16.9,0,33.6,0,50.3,0C858.5,64.1,858.5,61.7,858.5,58.6z M681,66.8c6,0,11.4,0,17.2,0c0-16.9,0-33.4,0-50.3
			c5.8,0,11.1,0,16.5,0c0-2.7,0-5.1,0-7.9c-16.8,0-33.5,0-50.3,0c0,2.8,0,5.3,0,8.2c5.6,0,10.9,0,16.4,0C681,33.6,681,50.1,681,66.8
			z M630.8,8.6c0,19.6,0,38.9,0,58.4c5.6,0,10.9,0,16.3,0c0-19.6,0-38.9,0-58.4C641.4,8.6,636.2,8.6,630.8,8.6z"/>
		<path class="st1" d="M495.2,67c-5.7,0-11,0-16.6,0c0-16.5,0-33,0-50.1c2.5-0.1,5-0.3,7.7-0.5c0.1-2.6,0.3-5,0.4-7.8
			c13.9,0,27.6,0,41.8,0c0.2,2.5,0.3,5,0.5,7.9c2.6,0,5,0,7.8,0c0,16.8,0,33.4,0,50.3c-5.3,0-10.7,0-16.5,0c0-5.4,0-10.7,0-16.3
			c-8.6,0-16.6,0-25.2,0C495.2,56.1,495.2,61.4,495.2,67z M520.2,16.9c-8.6,0-16.6,0-24.6,0c0,8.4,0,16.5,0,24.5
			c8.4,0,16.4,0,24.6,0C520.2,33.2,520.2,25.2,520.2,16.9z"/>
		<path class="st1" d="M749.1,67c-5.9,0-11.2,0-16.8,0c0-16.6,0-33.1,0-50.1c2.4-0.1,4.8-0.2,7.7-0.4c0.2-2.5,0.4-5.1,0.6-7.9
			c13.8,0,27.6,0,41.7,0c0.2,2.6,0.4,5.2,0.7,8c2.6,0,5.1,0,7.8,0c0,16.8,0,33.4,0,50.3c-5.4,0-10.7,0-16.6,0c0-5.4,0-10.8,0-16.3
			c-8.5,0-16.6,0-25,0C749.1,56,749.1,61.2,749.1,67z M773.9,16.9c-8.4,0-16.5,0-24.6,0c0,8.3,0,16.5,0,24.6c8.3,0,16.4,0,24.6,0
			C773.9,33.3,773.9,25.3,773.9,16.9z"/>
		<path class="st1" d="M554.6,8.5c16.9,0,33.3,0,50.4,0c0,2.7,0,5.2,0,8.1c3,0,5.4,0,8.2,0c0,8.5,0,16.6,0,25
			c-2.5,0.1-5,0.3-7.9,0.4c0,2.6,0,5.2,0,8.1c-11.4,0-22.3,0-33.6,0c0,5.7,0,11,0,16.7c-5.8,0-11.2,0-16.9,0
			C554.6,47.6,554.6,28.2,554.6,8.5z M571.5,41.5c8.4,0,16.5,0,24.7,0c0-8.4,0-16.5,0-24.6c-8.4,0-16.4,0-24.7,0
			C571.5,25.1,571.5,33.1,571.5,41.5z"/>
		<path class="st1" d="M452.5,8.6c0.2,2.6,0.3,5.1,0.5,7.8c2.7,0.1,5.3,0.3,8.1,0.4c0,2.5,0,4.9,0,7.8c-5.3,0-10.7,0-16.5,0
			c-0.1-2.4-0.3-4.9-0.4-7.7c-8.3,0-16.3,0-24.7,0c0,13.8,0,27.5,0,41.5c8.3,0,16.4,0,24.8,0c0-2.6,0-5.1,0-7.8c5.7,0,11.1,0,16.8,0
			c0,2.6,0,5.1,0,7.8c-2.6,0.2-5.1,0.3-8,0.5c-0.2,2.7-0.3,5.2-0.5,8c-13.9,0-27.6,0-41.8,0c-0.1-2.6-0.2-5.1-0.4-8
			c-2.6-0.2-5-0.3-7.8-0.5c0-13.8,0-27.6,0-41.6c2.5,0,4.9,0,7.7,0c0.2-2.9,0.4-5.4,0.5-8.1C424.7,8.6,438.4,8.6,452.5,8.6z"/>
		<path class="st1" d="M858.5,58.6c0,3,0,5.4,0,8.2c-16.6,0-33.3,0-50.3,0c0-19.3,0-38.6,0-58.2c5.5,0,10.8,0,16.6,0
			c0,16.6,0,32.9,0,50C836.3,58.6,847.3,58.6,858.5,58.6z"/>
		<path class="st1" d="M681,66.8c0-16.8,0-33.2,0-50c-5.5,0-10.8,0-16.4,0c0-2.8,0-5.3,0-8.2c16.7,0,33.3,0,50.3,0
			c0,2.8,0,5.2,0,7.9c-5.4,0-10.7,0-16.5,0c0,16.8,0,33.3,0,50.3C692.5,66.8,687,66.8,681,66.8z"/>
		<path class="st1" d="M630.8,8.6c5.4,0,10.7,0,16.3,0c0,19.4,0,38.7,0,58.4c-5.4,0-10.6,0-16.3,0C630.8,47.6,630.8,28.2,630.8,8.6z
			"/>
		<path class="st0" d="M520.2,16.9c0,8.2,0,16.2,0,24.5c-8.2,0-16.2,0-24.6,0c0-8,0-16.1,0-24.5C503.5,16.9,511.6,16.9,520.2,16.9z"
			/>
		<path class="st0" d="M773.9,16.9c0,8.4,0,16.4,0,24.6c-8.2,0-16.3,0-24.6,0c0-8.2,0-16.3,0-24.6C757.4,16.9,765.4,16.9,773.9,16.9
			z"/>
		<path class="st0" d="M571.5,41.5c0-8.4,0-16.4,0-24.6c8.3,0,16.3,0,24.7,0c0,8.2,0,16.2,0,24.6C587.9,41.5,579.9,41.5,571.5,41.5z
			"/>
	</g>
</g>
<g>
	<g>
		<path class="st2" d="M41.3,83.6c-11.6,0-23.3,0-34.9,0c0.2-2.7,0.4-5.4,0.5-8.4c-3.2-0.2-5.7-0.4-8.3-0.6c0-25.1,0-50,0-75
			c36.6,0,73,0,109.6,0c0,2.9,0,5.6,0,8.3c2.9,0.1,5.5,0.2,8.5,0.4c0,14,0,27.6,0,41.2c8.7,0,16.9,0,25.5,0c0-13.9,0-27.5,0-41.3
			c2.9-0.1,5.5-0.3,8.5-0.4c0-3.1,0-5.6,0-8.1c19.9,0,39.3,0,59.2,0c0,2.9,0,5.4,0,7.9c5.8,0,11.2,0,16.6,0c0.2-3,0.3-5.5,0.5-7.9
			c19.8,0,39.2,0,59,0c0,2.9,0,5.5,0,8.1c2.8,0,5.2,0,7.9,0c0.2-2.8,0.3-5.3,0.5-8.1c22.6,0,45,0,67.6,0c0,2.9,0,5.4,0,8.5
			c2.8,0,5.4,0,8.2,0c0,8.4,0,16.4,0,24.9c-5.6,0-11,0-16.3,0c0,17.1,0,33.7,0,50.4c-11.3,0-22.6,0-33.9,0c0-2.8,0-5.5,0-8.4
			c-3.2-0.2-5.8-0.4-8.8-0.6c0-16.7,0-33.1,0-49.7c-3,0-5.5,0-8.1,0c0,19.7,0,39.1,0,58.6c-11.3,0-22.6,0-33.9,0c0-2.7,0-5.5,0-8.4
			c-3,0-5.6,0-8.8,0c0.3,3,0.6,5.7,0.8,8.4c-11.3,0-22.6,0-33.9,0c-0.2-2.6-0.3-5.2-0.5-8c-2.8,0-5.4,0-8.5,0c0,2.8,0,5.4,0,8
			c-19.6,0-39.2,0-58.9,0c0-2.7,0-5.4,0-8.4c-3.2,0-5.9,0-9,0c0,2.9,0,5.7,0,8.4c-22.6,0-45.3,0-67.9,0c0.3-2.8,0.6-5.5,0.9-8.4
			c-3.5-0.2-6.1-0.4-9-0.6c0-5.7,0-10.9,0-15.8c-11.4,0-22.4,0-34.1,0C40.5,67.4,40.9,75.5,41.3,83.6z M285.6,66.6
			c0-16.9,0-33.4,0-50.2c-2.9-0.1-5.4-0.3-8.1-0.4c-0.1-2.8-0.3-5.2-0.4-7.8c-14,0-27.7,0-41.7,0c-0.2,2.7-0.3,5.3-0.5,8.2
			c-2.7,0-5.1,0-7.6,0c0,16.9,0,33.4,0,50.2c5.5,0,10.8,0,16.5,0c0-5.6,0-10.9,0-16.2c8.7,0,16.9,0,25.4,0c0,5.6,0,10.8,0,16.2
			C274.7,66.6,279.9,66.6,285.6,66.6z M150.8,16.2c0,14.2,0,27.8,0,41.7c2.8,0.2,5.4,0.4,8.1,0.6c0.2,2.8,0.3,5.4,0.4,7.9
			c14.1,0,27.8,0,42.1,0c0-2.8,0-5.3,0-8c3.1-0.2,5.7-0.3,8.2-0.5c0-14.1,0-27.7,0-41.5c-2.8-0.1-5.4-0.3-8.5-0.4c0-2.8,0-5.4,0-7.7
			c-14.3,0-27.9,0-42.1,0c0,2.8,0,5.2,0,7.9C156.1,16.2,153.6,16.2,150.8,16.2z M7.1,8.2c0,19.6,0,38.9,0,58.3c5.6,0,10.9,0,16.7,0
			c0-8.4,0-16.5,0-25.1c11.4,0,22.3,0,33.3,0c0-2.9,0-5.3,0-8.2c-11.1,0-22,0-33.2,0c0-5.8,0-11.1,0-17c14.1,0,27.9,0,41.7,0
			c0-2.9,0-5.3,0-7.9C46.1,8.2,26.8,8.2,7.1,8.2z M303,16.4c5.8,0,11,0,16.8,0c0,16.9,0,33.4,0,50.1c5.7,0,11,0,16.8,0
			c0-16.8,0-33.3,0-50.4c5.9,0,11.3,0,16.5,0c0-2.9,0-5.3,0-7.9c-16.9,0-33.4,0-50.2,0C303,10.9,303,13.3,303,16.4z M83.3,8.2
			c0,19.6,0,38.9,0,58.3c16.8,0,33.3,0,49.9,0c0-2.8,0-5.4,0-8.4c-11.2,0-22.1,0-33.4,0c0-16.9,0-33.2,0-49.9
			C94,8.2,88.9,8.2,83.3,8.2z"/>
		<path class="st1" d="M285.6,66.6c-5.6,0-10.9,0-16.5,0c0-5.4,0-10.6,0-16.2c-8.5,0-16.6,0-25.4,0c0,5.3,0,10.6,0,16.2
			c-5.8,0-11,0-16.5,0c0-16.6,0-33.1,0-50.2c2.5,0,4.9,0,7.6,0c0.2-2.9,0.3-5.4,0.5-8.2c14,0,27.6,0,41.7,0c0.1,2.6,0.3,5,0.4,7.8
			c2.7,0.1,5.3,0.3,8.1,0.4C285.6,33,285.6,49.6,285.6,66.6z M244,16.4c0,8.6,0,16.7,0,24.6c8.4,0,16.5,0,24.4,0
			c0-8.5,0-16.5,0-24.6C260.1,16.4,252.2,16.4,244,16.4z"/>
		<path class="st1" d="M150.8,16.2c2.9,0,5.3,0,8.2,0c0-2.7,0-5.1,0-7.9c14.1,0,27.8,0,42.1,0c0,2.4,0,4.9,0,7.7
			c3.1,0.1,5.7,0.3,8.5,0.4c0,13.8,0,27.4,0,41.5c-2.5,0.1-5.1,0.3-8.2,0.5c0,2.7,0,5.2,0,8c-14.2,0-27.9,0-42.1,0
			c-0.1-2.6-0.3-5.1-0.4-7.9c-2.7-0.2-5.3-0.4-8.1-0.6C150.8,44,150.8,30.4,150.8,16.2z M192.5,58.1c0-14.2,0-27.9,0-41.5
			c-8.4,0-16.5,0-24.6,0c0,13.9,0,27.6,0,41.5C176.2,58.1,184.2,58.1,192.5,58.1z"/>
		<path class="st1" d="M7.1,8.2c19.5,0,38.9,0,58.6,0c0,2.6,0,5,0,7.9c-13.8,0-27.6,0-41.7,0c0,5.9,0,11.2,0,17
			c11.2,0,22.1,0,33.2,0c0,2.8,0,5.2,0,8.2c-11,0-21.9,0-33.3,0c0,8.7,0,16.8,0,25.1c-5.8,0-11.1,0-16.7,0
			C7.1,47.1,7.1,27.8,7.1,8.2z"/>
		<path class="st1" d="M303,16.4c0-3.1,0-5.5,0-8.2c16.7,0,33.2,0,50.2,0c0,2.6,0,5,0,7.9c-5.3,0-10.6,0-16.5,0c0,17,0,33.6,0,50.4
			c-5.8,0-11,0-16.8,0c0-16.6,0-33.2,0-50.1C314,16.4,308.8,16.4,303,16.4z"/>
		<path class="st1" d="M83.3,8.2c5.6,0,10.8,0,16.4,0c0,16.5,0,32.9,0,49.9c11.3,0,22.2,0,33.4,0c0,3.1,0,5.6,0,8.4
			c-16.5,0-33,0-49.9,0C83.3,47.1,83.3,27.8,83.3,8.2z"/>
		<path class="st2" d="M244,16.4c8.2,0,16.1,0,24.4,0c0,8.1,0,16.2,0,24.6c-8,0-16,0-24.4,0C244,33.1,244,25,244,16.4z"/>
		<path class="st2" d="M192.5,58.1c-8.3,0-16.2,0-24.6,0c0-13.8,0-27.5,0-41.5c8.1,0,16.1,0,24.6,0
			C192.5,30.1,192.5,43.8,192.5,58.1z"/>
	</g>
</g>
</svg>
