<?xml version="1.0" encoding="utf-8"?>
<!-- Generator: Adobe Illustrator 24.1.0, SVG Export Plug-In . SVG Version: 6.00 Build 0)  -->
<svg version="1.1" id="Layer_1" xmlns="http://www.w3.org/2000/svg" xmlns:xlink="http://www.w3.org/1999/xlink" x="0px" y="0px"
	 viewBox="0 0 600 600" style="enable-background:new 0 0 600 600;" xml:space="preserve">
<style type="text/css">
	.st0{fill:#0E4284;}
	.st1{fill:#FBFBFC;}
	.st2{fill:#0F4284;}
</style>
<g>
	<g>
		<path class="st0" d="M430.9,390.4c-11.3,0-22.6,0-33.9,0c0-2.8,0-5.5,0-8.4c-3.2-0.2-5.8-0.4-8.8-0.5c0-13.8,0-27.5,0-41.2
			c-2.9,0-5.5,0-8.2,0c0,16.9,0,33.5,0,50.1c-11.3,0-22.6,0-33.9,0c0-2.7,0-5.5,0-8.5c-3-0.1-5.6-0.3-8.6-0.4c0-16.9,0-33.2,0-49.7
			c-3,0-5.6,0-8.4,0c0,19.8,0,39.2,0,58.6c-11.3,0-22.6,0-33.9,0c0-2.7,0-5.5,0-8.4c-2.8-0.2-5.4-0.3-7.9-0.5
			c-0.1-2.9-0.3-5.3-0.4-7.6c-11.4,0-22.4,0-33.6,0c0,5.7,0,11.1,0,16.5c-22.6,0-45.2,0-67.9,0c0-2.7,0-5.5,0-8.4c-2.8,0-5.3,0-8,0
			c0,2.9,0,5.7,0,8.4c-11.3,0-22.6,0-33.9,0c0-2.7,0-5.4,0-8c-3.3,0-5.7,0-8.4,0c-0.2,2.8-0.4,5.4-0.6,8c-19.6,0-39.3,0-58.9,0
			c0-2.7,0-5.5,0-8.5c-3-0.1-5.5-0.3-8-0.4c-0.2-3-0.3-5.4-0.4-7.8c-3-0.1-5.6-0.3-8-0.4c0-19.7,0-38.9,0-58.2
			c2.9-0.1,5.5-0.3,8.5-0.4c0-3,0-5.5,0-8.2c19.8,0,39.1,0,59.1,0c0,2.9,0,5.6,0,8.2c5.8,0,11.1,0,16.6,0c0.1-2.8,0.2-5.4,0.4-8
			c19.7,0,39.2,0,59.1,0c0,2.9,0,5.5,0,8.1c2.7,0,5,0,7.4,0c0.2-2.9,0.3-5.6,0.4-8.1c22.9,0,45.2,0,67.7,0c0.2,2.9,0.3,5.4,0.5,8
			c2.9,0,5.5,0,8.5,0c0-2.9,0-5.4,0-8.2c33.8,0,67.2,0,100.8,0c0.2,2.6,0.4,5.2,0.6,7.8c2.9,0,5.5,0,8.4,0c0-2.7,0-5.1,0-7.6
			c19.9,0,39.4,0,59.2,0c0,2.9,0,5.5,0,8.1c2.7,0,5,0,7.4,0c0.2-2.9,0.3-5.6,0.5-8.2c11.5,0,22.6,0,34,0c0,2.9,0,5.4,0,8.2
			c2.9,0.1,5.5,0.2,8.5,0.4c0,13.9,0,27.5,0,41.6c8.7,0,16.9,0,25.5,0c0,2.9,0,5.4,0,8.3c3.1-0.2,5.9-0.3,8.6-0.5
			c0,8.6,0,17.1,0,25.7c-33.9,0-67.9,0-101.8,0c0-2.7,0-5.4,0-8.4c-2.9,0-5.4,0-8.4,0C430.6,385,430.8,387.7,430.9,390.4z
			 M160.4,373.4c0-5.6,0-10.9,0-16.3c8.6,0,16.6,0,25.2,0c0,5.6,0,10.9,0,16.3c5.9,0,11.3,0,16.5,0c0-16.9,0-33.4,0-50.2
			c-2.8,0-5.2,0-7.8,0c-0.2-2.8-0.4-5.4-0.5-7.9c-14.3,0-28,0-41.8,0c-0.2,2.8-0.3,5.2-0.4,7.8c-2.7,0.2-5.3,0.3-7.7,0.5
			c0,16.9,0,33.5,0,50C149.4,373.4,154.7,373.4,160.4,373.4z M414,373.4c0-5.8,0-11,0-16.4c8.4,0,16.5,0,25,0c0,5.5,0,10.9,0,16.3
			c5.9,0,11.2,0,16.6,0c0-16.8,0-33.4,0-50.2c-2.8,0-5.2,0-7.8,0c-0.2-2.8-0.4-5.4-0.7-8c-14.1,0-27.9,0-41.7,0
			c-0.2,2.8-0.4,5.3-0.6,7.9c-2.8,0.1-5.2,0.3-7.7,0.4c0,16.9,0,33.4,0,50C402.8,373.4,408,373.4,414,373.4z M219.7,315
			c0,19.7,0,39,0,58.3c5.7,0,11.1,0,16.9,0c0-5.7,0-11,0-16.7c11.4,0,22.3,0,33.6,0c0-2.9,0-5.5,0-8.1c2.9-0.2,5.4-0.3,7.9-0.4
			c0-8.4,0-16.5,0-25c-2.8,0-5.2,0-8.2,0c0-2.9,0-5.4,0-8.1C253,315,236.6,315,219.7,315z M117.7,315.1c-14,0-27.7,0-41.7,0
			c-0.2,2.7-0.3,5.3-0.5,8.1c-2.7,0-5.2,0-7.7,0c0,14.1,0,27.8,0,41.6c2.8,0.2,5.2,0.3,7.8,0.5c0.1,2.8,0.3,5.4,0.4,8
			c14.1,0,27.9,0,41.8,0c0.2-2.8,0.3-5.3,0.5-8c3-0.2,5.4-0.3,8-0.5c0-2.7,0-5.2,0-7.8c-5.7,0-11.1,0-16.8,0c0,2.7,0,5.1,0,7.8
			c-8.4,0-16.5,0-24.8,0c0-13.9,0-27.6,0-41.5c8.4,0,16.5,0,24.7,0c0.1,2.7,0.3,5.3,0.4,7.7c5.8,0,11.2,0,16.5,0c0-2.8,0-5.2,0-7.8
			c-2.8-0.1-5.4-0.3-8.1-0.4C118,320.2,117.8,317.7,117.7,315.1z M523.2,365c-11.2,0-22.2,0-33.6,0c0-17,0-33.4,0-49.9
			c-5.8,0-11.1,0-16.6,0c0,19.6,0,38.9,0,58.1c16.9,0,33.6,0,50.2,0C523.2,370.5,523.2,368.1,523.2,365z M346,373.2
			c6,0,11.4,0,17.2,0c0-16.9,0-33.4,0-50.2c5.8,0,11.1,0,16.5,0c0-2.7,0-5.1,0-7.9c-16.8,0-33.5,0-50.2,0c0,2.8,0,5.3,0,8.2
			c5.6,0,10.9,0,16.4,0C346,340.1,346,356.5,346,373.2z M295.8,315.1c0,19.6,0,38.9,0,58.3c5.6,0,10.9,0,16.3,0
			c0-19.6,0-38.9,0-58.3C306.4,315.1,301.2,315.1,295.8,315.1z"/>
		<path class="st1" d="M160.4,373.4c-5.7,0-11,0-16.6,0c0-16.5,0-33,0-50c2.5-0.1,5-0.3,7.7-0.5c0.1-2.6,0.3-5,0.4-7.8
			c13.9,0,27.6,0,41.8,0c0.2,2.5,0.3,5,0.5,7.9c2.6,0,5,0,7.8,0c0,16.8,0,33.4,0,50.2c-5.3,0-10.7,0-16.5,0c0-5.4,0-10.7,0-16.3
			c-8.6,0-16.6,0-25.2,0C160.4,362.5,160.4,367.8,160.4,373.4z M185.3,323.4c-8.6,0-16.6,0-24.6,0c0,8.4,0,16.5,0,24.5
			c8.4,0,16.4,0,24.6,0C185.3,339.7,185.3,331.7,185.3,323.4z"/>
		<path class="st1" d="M414,373.4c-5.9,0-11.2,0-16.8,0c0-16.6,0-33.1,0-50c2.4-0.1,4.8-0.2,7.7-0.4c0.2-2.5,0.4-5.1,0.6-7.9
			c13.8,0,27.6,0,41.7,0c0.2,2.6,0.4,5.2,0.7,8c2.6,0,5.1,0,7.8,0c0,16.8,0,33.4,0,50.2c-5.4,0-10.7,0-16.6,0c0-5.4,0-10.8,0-16.3
			c-8.5,0-16.6,0-25,0C414,362.4,414,367.6,414,373.4z M438.7,323.4c-8.4,0-16.5,0-24.6,0c0,8.3,0,16.5,0,24.6c8.3,0,16.4,0,24.6,0
			C438.7,339.8,438.7,331.8,438.7,323.4z"/>
		<path class="st1" d="M219.7,315c16.9,0,33.3,0,50.3,0c0,2.7,0,5.2,0,8.1c3,0,5.4,0,8.2,0c0,8.5,0,16.6,0,25
			c-2.5,0.1-5,0.3-7.9,0.4c0,2.6,0,5.2,0,8.1c-11.4,0-22.3,0-33.6,0c0,5.7,0,11,0,16.7c-5.8,0-11.2,0-16.9,0
			C219.7,354,219.7,334.7,219.7,315z M236.6,348c8.4,0,16.5,0,24.7,0c0-8.4,0-16.5,0-24.6c-8.4,0-16.4,0-24.7,0
			C236.6,331.6,236.6,339.6,236.6,348z"/>
		<path class="st1" d="M117.7,315.1c0.2,2.6,0.3,5.1,0.5,7.8c2.7,0.1,5.3,0.3,8.1,0.4c0,2.5,0,4.9,0,7.8c-5.3,0-10.7,0-16.5,0
			c-0.1-2.4-0.3-4.9-0.4-7.7c-8.3,0-16.3,0-24.7,0c0,13.8,0,27.5,0,41.5c8.3,0,16.4,0,24.8,0c0-2.6,0-5.1,0-7.8c5.7,0,11.1,0,16.8,0
			c0,2.6,0,5.1,0,7.8c-2.6,0.2-5.1,0.3-8,0.5c-0.2,2.7-0.3,5.2-0.5,8c-13.9,0-27.6,0-41.8,0c-0.1-2.6-0.2-5.1-0.4-8
			c-2.6-0.2-5-0.3-7.8-0.5c0-13.8,0-27.6,0-41.6c2.5,0,4.9,0,7.7,0c0.2-2.9,0.4-5.4,0.5-8.1C90,315.1,103.6,315.1,117.7,315.1z"/>
		<path class="st1" d="M523.2,365c0,3,0,5.4,0,8.2c-16.6,0-33.3,0-50.2,0c0-19.3,0-38.6,0-58.1c5.5,0,10.8,0,16.6,0
			c0,16.6,0,32.9,0,49.9C501.1,365,512.1,365,523.2,365z"/>
		<path class="st1" d="M346,373.2c0-16.8,0-33.2,0-49.9c-5.5,0-10.8,0-16.4,0c0-2.8,0-5.3,0-8.2c16.7,0,33.3,0,50.2,0
			c0,2.8,0,5.2,0,7.9c-5.4,0-10.7,0-16.5,0c0,16.8,0,33.3,0,50.2C357.4,373.2,352,373.2,346,373.2z"/>
		<path class="st1" d="M295.8,315.1c5.4,0,10.7,0,16.3,0c0,19.4,0,38.7,0,58.3c-5.4,0-10.6,0-16.3,0
			C295.8,354,295.8,334.7,295.8,315.1z"/>
		<path class="st0" d="M185.3,323.4c0,8.2,0,16.2,0,24.5c-8.2,0-16.2,0-24.6,0c0-8,0-16.1,0-24.5
			C168.7,323.4,176.8,323.4,185.3,323.4z"/>
		<path class="st0" d="M438.7,323.4c0,8.4,0,16.4,0,24.6c-8.2,0-16.3,0-24.6,0c0-8.2,0-16.3,0-24.6
			C422.3,323.4,430.3,323.4,438.7,323.4z"/>
		<path class="st0" d="M236.6,348c0-8.4,0-16.4,0-24.6c8.3,0,16.3,0,24.7,0c0,8.2,0,16.2,0,24.6C253,348,245,348,236.6,348z"/>
	</g>
</g>
<g>
	<g>
		<path class="st2" d="M155.1,293.5c-11.6,0-23.3,0-34.9,0c0.2-2.7,0.4-5.4,0.5-8.4c-3.2-0.2-5.7-0.4-8.3-0.6c0-25.1,0-49.9,0-74.9
			c36.6,0,72.9,0,109.5,0c0,2.9,0,5.6,0,8.3c2.9,0.1,5.5,0.2,8.5,0.4c0,14,0,27.6,0,41.2c8.7,0,16.9,0,25.5,0c0-13.9,0-27.5,0-41.3
			c2.9-0.1,5.5-0.3,8.5-0.4c0-3.1,0-5.6,0-8.1c19.9,0,39.3,0,59.1,0c0,2.9,0,5.4,0,7.9c5.8,0,11.2,0,16.6,0c0.2-3,0.3-5.5,0.5-7.9
			c19.8,0,39.2,0,58.9,0c0,2.9,0,5.5,0,8.1c2.8,0,5.2,0,7.9,0c0.2-2.8,0.3-5.3,0.5-8.1c22.6,0,44.9,0,67.5,0c0,2.9,0,5.4,0,8.5
			c2.8,0,5.4,0,8.2,0c0,8.4,0,16.4,0,24.9c-5.6,0-11,0-16.3,0c0,17.1,0,33.7,0,50.3c-11.3,0-22.6,0-33.9,0c0-2.8,0-5.5,0-8.4
			c-3.2-0.2-5.8-0.4-8.8-0.6c0-16.7,0-33.1,0-49.6c-3,0-5.5,0-8.1,0c0,19.7,0,39.1,0,58.5c-11.3,0-22.6,0-33.9,0c0-2.7,0-5.5,0-8.4
			c-3,0-5.6,0-8.8,0c0.3,3,0.6,5.7,0.8,8.4c-11.3,0-22.6,0-33.9,0c-0.2-2.6-0.3-5.2-0.5-8c-2.8,0-5.4,0-8.5,0c0,2.8,0,5.4,0,8
			c-19.6,0-39.2,0-58.8,0c0-2.7,0-5.4,0-8.4c-3.2,0-5.9,0-9,0c0,2.9,0,5.7,0,8.4c-22.6,0-45.2,0-67.8,0c0.3-2.8,0.6-5.5,0.9-8.4
			c-3.5-0.2-6.1-0.4-9-0.6c0-5.7,0-10.9,0-15.8c-11.4,0-22.4,0-34.1,0C154.3,277.3,154.7,285.4,155.1,293.5z M399.1,276.5
			c0-16.9,0-33.4,0-50.1c-2.9-0.1-5.4-0.3-8.1-0.4c-0.1-2.8-0.3-5.2-0.4-7.8c-14,0-27.7,0-41.7,0c-0.2,2.7-0.3,5.3-0.5,8.2
			c-2.7,0-5.1,0-7.6,0c0,16.9,0,33.4,0,50.1c5.5,0,10.8,0,16.5,0c0-5.6,0-10.9,0-16.2c8.7,0,16.9,0,25.4,0c0,5.6,0,10.8,0,16.2
			C388.2,276.5,393.4,276.5,399.1,276.5z M264.5,226.2c0,14.2,0,27.8,0,41.7c2.8,0.2,5.4,0.4,8.1,0.6c0.2,2.8,0.3,5.4,0.4,7.9
			c14.1,0,27.8,0,42,0c0-2.8,0-5.3,0-8c3.1-0.2,5.7-0.3,8.2-0.5c0-14.1,0-27.7,0-41.5c-2.8-0.1-5.4-0.3-8.5-0.4c0-2.8,0-5.4,0-7.7
			c-14.3,0-27.9,0-42,0c0,2.8,0,5.2,0,7.9C269.8,226.2,267.3,226.2,264.5,226.2z M121,218.2c0,19.6,0,38.9,0,58.2
			c5.6,0,10.9,0,16.7,0c0-8.4,0-16.5,0-25.1c11.4,0,22.3,0,33.3,0c0-2.9,0-5.3,0-8.2c-11.1,0-22,0-33.2,0c0-5.8,0-11.1,0-17
			c14.1,0,27.9,0,41.7,0c0-2.9,0-5.3,0-7.9C159.9,218.2,140.6,218.2,121,218.2z M416.5,226.4c5.8,0,11,0,16.8,0c0,16.9,0,33.4,0,50
			c5.7,0,11,0,16.8,0c0-16.8,0-33.3,0-50.3c5.9,0,11.3,0,16.5,0c0-2.9,0-5.3,0-7.9c-16.9,0-33.4,0-50.1,0
			C416.5,220.9,416.5,223.3,416.5,226.4z M197.1,218.2c0,19.6,0,38.9,0,58.2c16.8,0,33.3,0,49.8,0c0-2.8,0-5.4,0-8.4
			c-11.2,0-22.1,0-33.4,0c0-16.9,0-33.2,0-49.8C207.8,218.2,202.7,218.2,197.1,218.2z"/>
		<path class="st1" d="M399.1,276.5c-5.6,0-10.9,0-16.5,0c0-5.4,0-10.6,0-16.2c-8.5,0-16.6,0-25.4,0c0,5.3,0,10.6,0,16.2
			c-5.8,0-11,0-16.5,0c0-16.6,0-33.1,0-50.1c2.5,0,4.9,0,7.6,0c0.2-2.9,0.3-5.4,0.5-8.2c14,0,27.6,0,41.7,0c0.1,2.6,0.3,5,0.4,7.8
			c2.7,0.1,5.3,0.3,8.1,0.4C399.1,243,399.1,259.6,399.1,276.5z M357.6,226.4c0,8.6,0,16.7,0,24.6c8.4,0,16.5,0,24.4,0
			c0-8.5,0-16.5,0-24.6C373.7,226.4,365.8,226.4,357.6,226.4z"/>
		<path class="st1" d="M264.5,226.2c2.9,0,5.3,0,8.2,0c0-2.7,0-5.1,0-7.9c14.1,0,27.8,0,42,0c0,2.4,0,4.9,0,7.7
			c3.1,0.1,5.7,0.3,8.5,0.4c0,13.8,0,27.4,0,41.5c-2.5,0.1-5.1,0.3-8.2,0.5c0,2.7,0,5.2,0,8c-14.2,0-27.9,0-42,0
			c-0.1-2.6-0.3-5.1-0.4-7.9c-2.7-0.2-5.3-0.4-8.1-0.6C264.5,254,264.5,240.4,264.5,226.2z M306.1,268c0-14.2,0-27.9,0-41.5
			c-8.4,0-16.5,0-24.6,0c0,13.9,0,27.6,0,41.5C289.9,268,297.8,268,306.1,268z"/>
		<path class="st1" d="M121,218.2c19.5,0,38.9,0,58.5,0c0,2.6,0,5,0,7.9c-13.8,0-27.6,0-41.7,0c0,5.9,0,11.2,0,17
			c11.2,0,22.1,0,33.2,0c0,2.8,0,5.2,0,8.2c-11,0-21.9,0-33.3,0c0,8.7,0,16.8,0,25.1c-5.8,0-11.1,0-16.7,0
			C121,257.1,121,237.8,121,218.2z"/>
		<path class="st1" d="M416.5,226.4c0-3.1,0-5.5,0-8.2c16.7,0,33.2,0,50.1,0c0,2.6,0,5,0,7.9c-5.3,0-10.6,0-16.5,0
			c0,17,0,33.6,0,50.3c-5.8,0-11,0-16.8,0c0-16.6,0-33.2,0-50C427.5,226.4,422.3,226.4,416.5,226.4z"/>
		<path class="st1" d="M197.1,218.2c5.6,0,10.8,0,16.4,0c0,16.5,0,32.9,0,49.8c11.3,0,22.2,0,33.4,0c0,3.1,0,5.6,0,8.4
			c-16.5,0-33,0-49.8,0C197.1,257.1,197.1,237.8,197.1,218.2z"/>
		<path class="st2" d="M357.6,226.4c8.2,0,16.1,0,24.4,0c0,8.1,0,16.2,0,24.6c-8,0-16,0-24.4,0C357.6,243.1,357.6,235,357.6,226.4z"
			/>
		<path class="st2" d="M306.1,268c-8.3,0-16.2,0-24.6,0c0-13.8,0-27.5,0-41.5c8.1,0,16.1,0,24.6,0
			C306.1,240.1,306.1,253.8,306.1,268z"/>
	</g>
</g>
</svg>
