<?xml version="1.0" encoding="utf-8"?>
<!-- Generator: Adobe Illustrator 24.1.0, SVG Export Plug-In . SVG Version: 6.00 Build 0)  -->
<svg version="1.1" id="Layer_1" xmlns="http://www.w3.org/2000/svg" xmlns:xlink="http://www.w3.org/1999/xlink" x="0px" y="0px"
	 viewBox="0 0 300 300" style="enable-background:new 0 0 300 300;" xml:space="preserve">
<g>
	<g>
		<path d="M-211.1,159.9c0-2.9,0-5.7,0-8.7c-2.9,0-5.8,0-8.7,0c0-25.4,0-50.7,0-76c25.2,0,50.5,0,75.9,0c0,2.8,0,5.7,0,8.7
			c2.7,0,5.2,0,7.9,0c0,8.4,0,16.7,0,25.2c-2.5,0-5.1,0-7.8,0c0,8.4,0,16.6,0,25c-11.4,0-22.6,0-34.1,0c0,8.7,0,17.2,0,25.8
			C-189.1,159.9-200,159.9-211.1,159.9z M-211.9,83.1c0,0.2,0,0.8,0,1.1c0,19.5,0,39.1,0,58.7c6,0,11.9,0,17.9,0
			c0-8.3,0-16.6,0-24.9c11.1,0,22,0,33.1,0c0-3,0-5.9,0-8.9c-11.1,0-22,0-33,0c0-5.7,0-11.3,0-17c14,0,27.9,0,41.8,0c0-3.1,0-6,0-9
			c-19.6,0-39.2,0-58.5,0C-211.4,83.1-211.4,83.1-211.9,83.1z"/>
	</g>
</g>
</svg>
