<?xml version="1.0" encoding="utf-8"?>
<!-- Generator: Adobe Illustrator 24.1.0, SVG Export Plug-In . SVG Version: 6.00 Build 0)  -->
<svg version="1.1" id="Layer_1" xmlns="http://www.w3.org/2000/svg" xmlns:xlink="http://www.w3.org/1999/xlink" x="0px" y="0px"
	 viewBox="0 0 300 300" style="enable-background:new 0 0 300 300;" xml:space="preserve">
<style type="text/css">
	.st0{fill:url(#SVGID_1_);}
	.st1{fill:#0D4184;}
</style>
<radialGradient id="SVGID_1_" cx="150" cy="150" r="150" gradientUnits="userSpaceOnUse">
	<stop  offset="0" style="stop-color:#838383"/>
	<stop  offset="0" style="stop-color:#FFFFFF"/>
	<stop  offset="0.1091" style="stop-color:#EBF0F6"/>
	<stop  offset="0.3328" style="stop-color:#B7C9E0"/>
	<stop  offset="0.6525" style="stop-color:#638BBB"/>
	<stop  offset="1" style="stop-color:#004190"/>
</radialGradient>
<circle class="st0" cx="150" cy="150" r="150"/>
<g>
	<g>
		<path class="st1" d="M90.9,249.6c0-6.2,0-12.2,0-18.6c-6.2,0-12.4,0-18.6,0c0-54.4,0-108.6,0-162.9c54,0,108.2,0,162.6,0
			c0,6,0,12.2,0,18.6c5.8,0,11.1,0,16.9,0c0,18,0,35.8,0,54c-5.4,0-10.9,0-16.7,0c0,18,0,35.6,0,53.6c-24.4,0-48.4,0-73.1,0
			c0,18.6,0,36.9,0,55.3C138.1,249.6,114.7,249.6,90.9,249.6z M89.2,85c-0.1,0.4,0,1.7,0,2.4c0,41.8,0,83.8,0,125.8
			c12.9,0,25.5,0,38.4,0c0-17.8,0-35.6,0-53.4c23.8,0,47.1,0,70.9,0c0-6.4,0-12.6,0-19.1c-23.8,0-47.1,0-70.7,0
			c0-12.2,0-24.2,0-36.4c30,0,59.8,0,89.6,0c0-6.6,0-12.9,0-19.3c-42,0-84,0-125.4,0C90.4,85,90.4,85,89.2,85z"/>
	</g>
</g>
</svg>
