<svg width="41" height="47" viewBox="0 0 41 47" fill="none" xmlns="http://www.w3.org/2000/svg">
<path d="M0 7.40853C0 3.31691 3.31691 0 7.40852 0C11.5001 0 14.817 3.31691 14.817 7.40852V10.1194C14.817 14.9822 18.7591 18.9243 23.622 18.9243H27.9203C30.4092 18.9243 32.4269 20.942 32.4269 23.4309C32.4269 25.9199 30.4092 27.9375 27.9203 27.9375H23.622C18.7591 27.9375 14.817 31.8796 14.817 36.7425V39.5224C14.817 43.614 11.5001 46.9309 7.40852 46.9309C3.31691 46.9309 0 43.614 0 39.5224V7.40853Z" fill="#5560D4"/>
<path d="M34.1832 0H23.8577C22.5798 0 21.5439 1.0359 21.5439 2.31374C21.5439 5.90522 22.4763 8.50674 24.3412 10.1183C26.6204 12.0752 30.8795 13.0536 37.1185 13.0536C39.102 13.0536 40.71 11.4457 40.71 9.46216V6.52682C40.71 2.92216 37.7878 0 34.1832 0Z" fill="white"/>
<path d="M29.7973 33.9464C24.272 35.65 21.5093 38.8846 21.5093 43.6503C21.5093 45.5003 23.009 47 24.859 47H33.6996C37.5713 47 40.7099 43.8614 40.7099 39.9897V35.7076C40.7099 34.2009 39.4884 32.9794 37.9817 32.9794C34.6435 32.9794 31.9154 33.3017 29.7973 33.9464Z" fill="#D29DFD"/>
</svg>
